<?xml version="1.0" encoding="utf-8"?>
<!-- Generator: Adobe Illustrator 27.0.0, SVG Export Plug-In . SVG Version: 6.00 Build 0)  -->
<svg version="1.1" id="Layer_1" xmlns="http://www.w3.org/2000/svg" xmlns:xlink="http://www.w3.org/1999/xlink" x="0px" y="0px"
	 viewBox="0 0 500 500" style="enable-background:new 0 0 500 500;" xml:space="preserve">
<style type="text/css">
	.st0{fill:#02205F;}
	.st1{fill:#EC9D31;}
	.st2{fill:#FFFFFF;}
</style>
<g>
	<g>
		<path class="st0" d="M475,160.8c0,6.4-0.1,196.7,0.1,214.8c0.2,14-5.9,24.8-19.2,33.5c-21.8,10.9-144.4,67.4-155.9,72.2
			c-6.8,2.9-17.2,2.5-17.2-17.5c0-8.1,0-85.1-0.1-87c0.1-1.9,1.5-2.8,2.7-1.8c2.1,1.8,19.2,47.3,46.5,47.3
			c30.5,0,103.8-47.3,103.8-47.3l0-203.1l-32-19l-0.3-52.4c0,0,33.2,18.9,49.3,28.1C473.5,140.2,475,145.9,475,160.8z"/>
		<path class="st0" d="M32.1,165.8c0,6.4-0.2,197-0.2,215.2c0,14.4,5.8,19.6,14.7,25C65.1,416.8,95,434.2,95,434.2v-45.8L72.2,375
			V160.3c0,0,180.7-80.3,181.1-80.4s0.2-0.5,0-0.4c-0.2,0-181.8,41-207.7,54.4C32.8,141.4,31.9,147,32.1,165.8z"/>
		<path class="st1" d="M395.1,150.3l-0.2-54.7c0,0-117.2-68-125.9-73c-12-6.6-19-6.5-28.7-1.4c-2.3,1.3-117.2,67.7-132,76.2
			c-0.5,0.3-0.2,1,0.3,1c0.4,0,0.7-0.1,1.1-0.2c1.2-0.3,143.8-32.3,143.8-32.3L395.1,150.3z"/>
		<path class="st0" d="M206.1,254v31.6c0,7.2,3.8,13.8,10,17.4l27.4,15.8c6.2,3.6,13.8,3.6,20,0l27.4-15.8c6.2-3.6,10-10.2,10-17.4
			V254c0-7.2-3.8-13.8-10-17.4l-27.4-15.8c-6.2-3.6-13.8-3.6-20,0l-27.4,15.8C209.9,240.3,206.1,246.9,206.1,254z"/>
		<path class="st2" d="M286.2,262.2h-2.9c-2.4,0-4.4-2.1-4.4-4.5c0-1.2,0.5-2.4,1.5-3.2l1.9-1.9c1.9-1.9,1.9-4.9,0-6.8l-4.3-4.3
			c-0.9-0.9-2.1-1.4-3.4-1.4c-1.3,0-2.5,0.5-3.4,1.4l-1.8,1.8c-0.9,1-2,1.5-3.3,1.5c-2.5,0-4.6-2-4.6-4.4v-3c0-2.6-2.1-4.9-4.7-4.9
			h-5.9c-2.6,0-4.7,2.2-4.7,4.9v2.9c0,2.4-2.1,4.4-4.6,4.4c-1.2,0-2.4-0.5-3.2-1.4l-1.9-1.9c-0.9-0.9-2.1-1.4-3.4-1.4
			c-1.3,0-2.5,0.5-3.4,1.4l-4.4,4.3c-1.9,1.9-1.9,4.9,0,6.7l1.8,1.8c1,0.9,1.5,2,1.5,3.3c0,2.5-2,4.5-4.4,4.5h-2.9
			c-2.7,0-4.9,2.1-4.9,4.7v2.9v2.9c0,2.6,2.2,4.7,4.9,4.7h2.9c2.4,0,4.4,2.1,4.4,4.5c0,1.2-0.5,2.4-1.5,3.3l-1.8,1.8
			c-1.9,1.9-1.9,4.9,0,6.7l4.3,4.3c0.9,0.9,2.1,1.4,3.4,1.4c1.3,0,2.5-0.5,3.4-1.4l1.9-1.9c0.8-0.9,2-1.4,3.2-1.4
			c2.5,0,4.6,2,4.6,4.4v2.9c0,2.6,2.1,4.9,4.7,4.9h5.9c2.6,0,4.7-2.2,4.7-4.9v-2.9c0-2.4,2.1-4.4,4.6-4.4c1.2,0,2.4,0.5,3.3,1.5
			l1.8,1.8c0.9,0.9,2.1,1.4,3.4,1.4s2.5-0.5,3.4-1.4l4.3-4.3c1.9-1.9,1.9-4.9,0-6.8l-1.9-1.9c-0.9-0.8-1.5-2-1.5-3.2
			c0-2.5,2-4.5,4.4-4.5h2.9c2.6,0,4.5-2.1,4.5-4.7v-3v-2.9C290.8,264.3,288.9,262.2,286.2,262.2z M269.2,269.8L269.2,269.8
			c0,8.5-6.9,15.5-15.5,15.5s-15.5-7-15.5-15.5l0,0l0,0c0-8.5,6.9-15.5,15.5-15.5S269.2,261.3,269.2,269.8L269.2,269.8z"/>
		<path class="st1" d="M196.2,182.8l57.5-25.4l78.6,36.2v-15.4L253.8,142l-93.5,43c-25.7,11.1-27.3,37.6-27.3,65.6v39.9
			c0,28,2.6,52.9,27.6,65.5c12.2,6.2,56.2,25.4,56.2,25.4l11.9,48.5l0-25.4l-0.1-34.1l-32.3-14.6c-22.1-10.6-28.3-15.7-28.3-58.6
			v-53.4C167.9,201.3,174.4,193.8,196.2,182.8z"/>
	</g>
</g>
</svg>
