<?xml version="1.0" encoding="UTF-8"?>
<svg id="Layer_2" data-name="Layer 2" xmlns="http://www.w3.org/2000/svg" viewBox="0 0 72.66 72.66">
  <defs>
    <style>
      .cls-1 {
        fill: #7f3f98;
        fill-rule: evenodd;
      }

      .cls-2 {
        fill: #fff;
        stroke: #e6e7e8;
        stroke-miterlimit: 10;
        stroke-width: .75px;
      }
    </style>
  </defs>
  <g id="Layer_1-2" data-name="Layer 1">
    <rect class="cls-2" x=".38" y=".38" width="71.91" height="71.91" rx="19.16" ry="19.16"/>
    <path class="cls-1" d="m40.42,36.29v19.27l11.45-11.45v-19.27l-11.45,11.45h0Zm-3.28-19.68v18.32c-.55.54-1.09,1.08-1.64,1.62v-18.32c.55-.54,1.09-1.08,1.64-1.62h0Zm3.28-3.28v18.32c-.55.54-1.09,1.08-1.64,1.62V14.95c.55-.54,1.09-1.08,1.64-1.62h0Zm-6.56,6.55v18.32c-.55.54-1.09,1.08-1.64,1.62v-18.32c.55-.54,1.09-1.08,1.64-1.62h0Zm-3.25.96l11.45-11.46v22.95l-3.28,3.29v15.64l-8.17,8.17V20.84h0Zm8.17,32.71l-9.8,9.8v-6l-9.84,9.84v-23.92l9.84-9.84v-13.31l14.71-14.68v25.25s9.81-9.82,9.81-9.82v23.91s-14.72,14.72-14.72,14.72v-5.96h0Zm-9.8,1.49v-19.29l-8.21,8.21v19.29l8.21-8.21Z"/>
  </g>
</svg>