<?xml version="1.0" encoding="UTF-8"?>
<svg id="Layer_2" data-name="Layer 2" xmlns="http://www.w3.org/2000/svg" xmlns:xlink="http://www.w3.org/1999/xlink" viewBox="0 0 50.76 50.78">
  <defs>
    <style>
      .cls-1 {
        fill: #14a24b;
      }

      .cls-2 {
        fill: #02205f;
      }

      .cls-3 {
        fill: url(#linear-gradient);
      }
    </style>
    <linearGradient id="linear-gradient" x1="0" y1="24.89" x2="50.13" y2="24.89" gradientUnits="userSpaceOnUse">
      <stop offset="0" stop-color="#02205f"/>
      <stop offset="1" stop-color="#834c9e"/>
    </linearGradient>
  </defs>
  <g id="Layer_1-2" data-name="Layer 1">
    <g>
      <path class="cls-1" d="m25.39,11.1s-5.65,1.62-6.05,1.62-7.24,5.57-7.24,5.57v2.97l6.65,3.48,7.18-4.13,5.56,3.68,7.89-2.49-2.09-6.16-7.02-3.8-4.88-.74Z"/>
      <g>
        <path class="cls-3" d="m49.53,20.34h-3.28c-.27,0-.51-.18-.58-.44-.08-.3-.17-.59-.26-.88-.03-.11-.07-.22-.11-.33-.07-.22-.15-.43-.23-.65-.04-.11-.08-.21-.12-.32-.34-.88-.75-1.73-1.2-2.55-.92-1.64-2.05-3.15-3.35-4.49-.29-.29-.58-.58-.88-.85-.09-.08-.17-.16-.26-.23-.09-.08-.17-.15-.26-.23-.09-.08-.18-.15-.27-.22-.09-.08-.18-.15-.27-.22-.09-.07-.18-.15-.28-.21-.09-.07-.18-.14-.26-.2-.01-.01-.02-.02-.04-.03-.09-.06-.17-.13-.26-.19-.08-.06-.17-.12-.26-.18-.02-.02-.05-.03-.07-.05-.07-.05-.14-.1-.22-.15-.02-.02-.04-.03-.06-.04-.08-.05-.16-.1-.24-.16-.02-.01-.03-.02-.05-.03-.09-.06-.18-.11-.26-.17,0,0,0,0,0,0-.1-.06-.2-.12-.3-.18-.06-.04-.11-.07-.17-.1-.03-.01-.05-.03-.08-.04-.33-.19-.66-.37-1-.55-.08-.04-.17-.09-.26-.13-.26-.13-.52-.25-.78-.36-.07-.03-.14-.06-.21-.09-.08-.03-.16-.07-.24-.1-.06-.02-.11-.05-.17-.07-.06-.03-.12-.05-.18-.07-.09-.04-.18-.07-.27-.1-.27-.1-.54-.2-.82-.29-.08-.03-.15-.05-.23-.08-.23-.07-.47-.14-.7-.21-.07-.02-.15-.04-.22-.06-.04-.01-.09-.02-.13-.03-.11-.03-.23-.06-.34-.09-.01,0-.02,0-.04,0-.11-.03-.22-.05-.32-.08-.01,0-.02,0-.04,0-.1-.02-.19-.04-.29-.06-.06-.01-.13-.03-.19-.04-.05,0-.1-.02-.14-.03-.07-.01-.14-.03-.21-.04,0,0,0,0,0,0-.08-.01-.16-.03-.24-.04-.08-.01-.17-.03-.25-.04-.1-.02-.2-.03-.3-.04-.07,0-.13-.02-.2-.03-.08-.01-.17-.02-.25-.03-.08-.01-.17-.02-.25-.03-.14-.01-.28-.03-.42-.04-.14-.01-.27-.02-.41-.03-.07,0-.15,0-.22-.01-.09,0-.18,0-.26-.01-.3-.01-.61-.02-.92-.02h0c-.21,0-.42,0-.64,0-.08,0-.16,0-.24,0-.04,0-.09,0-.13,0-.08,0-.15,0-.23.01-.08,0-.16,0-.25.02-.08,0-.16.01-.24.02-.08,0-.16.01-.24.02-.07,0-.14.01-.2.02-.02,0-.04,0-.06,0-.09,0-.18.02-.27.03-.08,0-.17.02-.25.03-.09.01-.19.03-.28.04-.08.01-.16.02-.24.03-.11.02-.22.04-.34.06-.07.01-.13.02-.2.03-.06.01-.12.02-.18.03-.06.01-.12.02-.19.04-.02,0-.04,0-.06.01-.02,0-.04,0-.06.01-.1.02-.19.04-.29.06-.01,0-.03,0-.04,0-.11.02-.22.05-.32.08-.01,0-.02,0-.04,0-.11.03-.23.06-.34.09-.12.03-.24.06-.35.1,0,0-.01,0-.02,0-.11.03-.21.06-.32.09-.11.03-.22.07-.34.1-.11.03-.22.07-.33.11,0,0,0,0,0,0-.11.04-.22.08-.33.11-.21.07-.42.15-.62.23-.02,0-.03.01-.05.02-.1.04-.2.08-.3.12-.1.04-.2.08-.3.12-.02,0-.04.02-.06.02-.84.36-1.65.78-2.43,1.25h0c-.1.06-.2.12-.3.18,0,0,0,0,0,0-.09.05-.18.11-.26.17-.02.01-.03.02-.05.03-.08.05-.16.1-.24.16-.02.01-.04.03-.06.04-.07.05-.14.1-.22.15-.02.02-.05.03-.07.05-.09.06-.17.12-.26.18-.09.06-.17.12-.26.19-.01,0-.02.02-.04.03-.09.07-.18.13-.26.2-.09.07-.18.14-.28.21-.09.07-.18.15-.27.22s-.18.15-.27.22c-.09.08-.18.15-.26.23-.09.08-.17.15-.26.23-.34.31-.68.64-1,.97-.48.5-.93,1.02-1.36,1.56,0,0,0,0,0,0-.14.18-.28.36-.42.54,0,0,0,.01-.01.02-.13.18-.26.36-.39.55,0,0,0,0,0,.01-.39.57-.75,1.15-1.09,1.76-.22.4-.43.8-.62,1.22-.05.1-.1.21-.14.31-.05.1-.09.21-.14.31-.14.31-.26.63-.38.96-.08.22-.16.43-.23.65-.07.22-.14.44-.21.66,0,0,0,.01,0,.02-.03.1-.06.21-.09.31-.06.22-.12.45-.18.67-.03.1-.05.21-.07.31-.09.4-.17.81-.24,1.22-.07.41-.13.83-.17,1.25-.08.74-.12,1.48-.12,2.24,0,.14,0,.29,0,.43,0,.35.02.7.05,1.04h0c.02.35.06.69.1,1.03,0,0,0,0,0,.01.03.22.06.44.09.67,0,0,0,.01,0,.02.03.22.07.44.11.65.12.67.28,1.32.46,1.97.03.11.06.22.1.33.1.33.21.65.32.98.15.43.32.85.5,1.27.36.83.78,1.63,1.24,2.4.12.19.24.38.36.57.12.19.25.38.37.56.06.09.13.18.19.28,0,0,0,0,0,0,.06.09.12.17.19.26,0,0,.01.02.02.03l.15.2c.09.12.19.24.28.36.06.08.12.15.18.22.06.07.12.15.18.22.02.02.03.04.05.06.14.16.28.33.42.48.08.08.15.17.23.25.23.25.46.49.7.72.24.24.49.46.74.69.07.06.13.12.2.18.03.03.07.06.1.09.07.06.14.12.21.17.09.07.17.14.26.21.09.07.17.14.26.21.09.07.18.14.27.21.09.07.18.14.27.2h0c.09.07.18.13.27.2.09.06.17.12.26.18.01,0,.02.02.03.02.09.06.17.12.26.17.09.06.19.12.28.18.28.18.57.36.87.52.06.03.11.07.17.1,0,0,0,0,0,0v-5.63c-.36-.29-.7-.59-1.03-.9-1.02-.97-1.92-2.08-2.66-3.29-.63-1.03-1.15-2.13-1.54-3.28-.11-.33.08-.68.41-.77l2.91-.78c.3-.08.61.08.72.37.3.83.68,1.62,1.14,2.36.01.02.03.05.04.07.55.86,1.2,1.65,1.94,2.35.59.55,1.23,1.04,1.91,1.47v13.47c0,.4-.38.69-.76.58-.08-.02-.15-.04-.17-.05-.15-.04-.3-.09-.45-.14-.11-.04-.23-.07-.34-.11-.04-.01-.07-.03-.11-.04l-.32-.11s-.04-.01-.05-.02c-.11-.04-.21-.08-.32-.12-.14-.05-.27-.1-.41-.16-.13-.05-.25-.1-.38-.15s-.25-.1-.38-.16c-.12-.05-.25-.11-.37-.17-.12-.05-.24-.11-.36-.17,0,0,0,0,0,0-.11-.05-.23-.11-.34-.16-.02,0-.04-.02-.06-.03-.09-.05-.18-.09-.27-.14-.14-.07-.28-.14-.42-.22-.12-.06-.24-.13-.36-.19-.11-.06-.21-.12-.32-.18-.01,0-.03-.01-.04-.02-.01,0-.02-.01-.03-.02-.1-.06-.19-.11-.29-.17-.02-.01-.04-.02-.06-.03-.11-.06-.22-.13-.32-.2-.12-.07-.23-.14-.35-.22-.12-.07-.23-.15-.34-.22-.11-.08-.23-.15-.34-.23-.11-.08-.22-.16-.33-.23-.11-.08-.22-.16-.33-.24-.11-.08-.22-.16-.33-.24-.1-.08-.21-.16-.31-.24,0,0-.01-.01-.02-.02-.1-.08-.2-.16-.31-.24-.1-.09-.21-.17-.31-.26-.09-.08-.19-.16-.28-.24-.03-.02-.05-.04-.08-.07-.09-.08-.17-.15-.26-.23-.31-.27-.61-.56-.91-.85-.09-.09-.18-.18-.27-.27-.1-.1-.19-.19-.28-.29-.09-.1-.19-.2-.28-.3-.18-.2-.37-.4-.54-.61-.09-.1-.18-.21-.26-.31-.09-.1-.17-.21-.26-.31-.09-.11-.17-.21-.26-.32s-.17-.21-.25-.32c-.08-.11-.16-.21-.24-.32,0,0-.01-.01-.02-.02-.07-.09-.14-.19-.21-.28-.02-.03-.05-.06-.07-.1-.06-.09-.12-.18-.19-.27-.08-.11-.15-.22-.22-.33,0,0-.01-.02-.02-.03-.07-.11-.14-.21-.21-.32-.15-.23-.29-.46-.43-.7-.07-.12-.14-.23-.21-.35-1.02-1.77-1.83-3.67-2.4-5.68C.37,30.27.04,28.08,0,25.82c0-.14,0-.29,0-.43,0-2.12.26-4.18.75-6.16.07-.27.14-.54.22-.81.15-.54.32-1.07.51-1.59.47-1.31,1.04-2.56,1.71-3.76.14-.24.28-.49.42-.73.07-.12.15-.24.22-.36.07-.12.15-.24.22-.35.08-.12.15-.23.23-.35.08-.12.16-.23.24-.35.16-.23.32-.46.49-.68.17-.22.34-.44.51-.66.09-.11.17-.22.26-.32.09-.11.18-.21.27-.32.18-.21.36-.41.54-.61,0,0,.02-.02.03-.03.09-.1.18-.2.27-.29.1-.1.19-.2.29-.3.08-.08.16-.16.24-.24.04-.04.08-.08.12-.12.05-.05.09-.09.14-.14.05-.06.11-.11.16-.16.06-.06.12-.12.18-.17.03-.03.06-.05.08-.08.09-.08.18-.16.26-.24.01-.01.02-.02.03-.03.09-.08.18-.16.27-.24.02-.01.03-.03.05-.04.09-.08.18-.15.27-.23.02-.01.03-.03.05-.04.09-.08.18-.16.28-.23.01,0,.03-.02.04-.03.1-.08.21-.17.31-.25.11-.09.22-.17.33-.26.11-.08.22-.17.34-.25.11-.08.23-.17.34-.25.34-.24.69-.48,1.05-.71.24-.15.48-.3.72-.44.12-.07.24-.14.36-.21.11-.07.23-.13.34-.19.01,0,.02-.01.04-.02.12-.06.23-.13.35-.19.12-.07.25-.13.37-.19.12-.06.23-.12.35-.17.02,0,.04-.02.05-.03.11-.05.21-.1.32-.15.02,0,.03-.02.05-.02.11-.05.22-.1.34-.15.01,0,.02-.01.04-.02.11-.05.23-.1.34-.15.02,0,.05-.02.07-.03.09-.03.17-.07.26-.11.06-.03.13-.05.19-.08.06-.02.12-.05.18-.07.06-.02.12-.05.17-.07.11-.04.21-.08.32-.12.13-.05.26-.09.38-.14.01,0,.02,0,.03-.01.13-.04.25-.09.38-.13.12-.04.24-.08.36-.12.1-.03.2-.06.3-.09.1-.03.2-.06.3-.09.05-.02.1-.03.15-.04.04-.01.07-.02.11-.03.07-.02.15-.04.22-.06.14-.04.27-.07.41-.11.08-.02.16-.04.24-.06.32-.08.64-.15.96-.21.06-.01.13-.03.19-.04.07-.01.15-.03.22-.04.08-.02.17-.03.25-.04.03,0,.05,0,.08-.01l.14-.02c.06-.01.13-.02.19-.03.06,0,.12-.02.18-.03.08-.01.17-.02.26-.04.08-.01.17-.02.26-.03.08-.01.17-.02.26-.03.1-.01.2-.02.3-.03.07,0,.14-.01.21-.02.09,0,.17-.02.26-.02.23-.02.46-.04.69-.05.08,0,.16,0,.24-.01.06,0,.12,0,.18,0,.05,0,.11,0,.16,0,.17,0,.34-.01.52-.01.09,0,.17,0,.26,0,.04,0,.08,0,.12,0h0c.13,0,.26,0,.39,0,.09,0,.18,0,.27,0,.06,0,.13,0,.19,0,.05,0,.1,0,.15,0,.15,0,.3.01.45.02.15,0,.31.02.46.03.03,0,.05,0,.08,0,.08,0,.17.01.25.02.17.01.34.03.5.05.08,0,.17.02.25.03.08.01.17.02.25.03.08,0,.15.02.23.03.09.01.18.02.27.04.08.01.17.02.25.04.04,0,.07.01.11.02.05,0,.09.01.14.02.1.02.2.03.3.05.2.03.4.07.6.12.4.08.79.17,1.18.27.09.02.18.05.27.07.03,0,.07.02.1.03.01,0,.02,0,.03,0,.44.12.87.25,1.3.4.13.04.27.09.4.14.13.05.26.09.4.14.13.05.26.1.39.15.13.05.26.1.39.16.39.16.77.33,1.15.5.13.06.25.12.38.18s.25.12.37.19c.12.06.25.13.37.19.12.06.24.13.37.2.12.07.24.14.36.2.06.03.13.07.19.11.06.03.11.07.17.1.24.14.48.29.72.44.36.23.71.46,1.05.71.11.08.23.16.34.25.11.08.23.17.34.25.11.08.22.17.33.26.1.08.21.17.31.25.01,0,.03.02.04.03.09.08.19.15.28.23.02.01.03.03.05.04.09.08.18.15.27.23.02.01.03.03.05.04.09.08.18.16.27.24.01,0,.02.02.03.03.09.08.18.16.26.24.03.02.06.05.08.08.06.06.12.12.18.17.06.05.11.1.16.16.05.05.09.09.14.14.04.04.08.08.12.12.04.04.08.08.12.12.04.04.08.08.12.12.1.1.19.2.29.3.09.1.18.19.27.29,0,0,.02.02.03.03.18.2.36.41.54.61.09.11.18.21.27.32.09.11.18.21.26.32.17.22.34.44.51.66.17.22.33.45.49.68.08.11.16.23.24.35.08.12.15.23.23.35.08.12.15.24.22.35.07.12.15.24.22.36.1.16.19.33.29.5.03.05.06.1.09.15.69,1.22,1.28,2.51,1.75,3.85.19.52.36,1.05.51,1.59.08.26.14.52.21.78.03.13.07.27.1.4.09.38-.2.73-.59.73Z"/>
        <path class="cls-2" d="m15.15,31.89s-.03-.05-.04-.07c-.46-.74-.85-1.53-1.14-2.36-.1-.29-.42-.45-.72-.37l-2.91.78c-.33.09-.53.44-.41.77.39,1.16.91,2.26,1.54,3.28.74,1.21,1.64,2.31,2.66,3.29.33.32.67.62,1.03.9v5.63s0,0,0,0c-.06-.03-.11-.07-.17-.1-.29-.17-.58-.34-.87-.52-.09-.06-.19-.12-.28-.18-.09-.06-.17-.12-.26-.17-.01,0-.02-.01-.03-.02-.09-.06-.18-.12-.26-.18-.09-.06-.18-.13-.27-.19h0c-.09-.07-.18-.13-.27-.2-.09-.07-.18-.14-.27-.21-.09-.07-.18-.14-.26-.21-.09-.07-.17-.14-.26-.21-.07-.06-.14-.12-.21-.17-.03-.03-.07-.06-.1-.09-.07-.06-.13-.12-.2-.18-.25-.22-.5-.45-.74-.69-.24-.24-.47-.48-.7-.72-.08-.08-.15-.16-.23-.25-.14-.16-.28-.32-.42-.48-.02-.02-.03-.04-.05-.06-.06-.07-.12-.15-.18-.22-.06-.07-.12-.15-.18-.22-.09-.12-.19-.24-.28-.36l-.15-.2s-.01-.02-.02-.03c-.06-.08-.12-.17-.19-.26,0,0,0,0,0,0-.06-.09-.13-.18-.19-.28-.13-.18-.25-.37-.37-.56-.12-.19-.24-.38-.36-.57-.46-.77-.88-1.57-1.24-2.4-.18-.42-.35-.84-.5-1.27-.12-.32-.22-.65-.32-.98-.03-.11-.07-.22-.1-.33-.19-.64-.34-1.3-.46-1.97-.04-.22-.08-.44-.11-.65,0,0,0-.01,0-.02-.03-.22-.06-.44-.09-.67,0,0,0,0,0-.01-.04-.34-.07-.68-.1-1.02h0c-.02-.35-.04-.7-.05-1.05,0-.14,0-.29,0-.43,0-.76.04-1.5.12-2.24.02-.15.04-.3.06-.45H.14c-.09.89-.14,1.79-.14,2.7,0,.14,0,.29,0,.43.04,2.26.37,4.45.96,6.53.57,2,1.38,3.91,2.4,5.68.07.12.14.24.21.35.14.24.28.47.43.7.07.11.14.22.21.32,0,0,.01.02.02.03.07.11.15.22.22.33.06.09.12.18.19.27.02.03.05.06.07.1.07.1.14.19.21.28,0,0,.01.01.02.02.08.11.16.21.24.32.08.11.17.22.25.32s.17.21.26.32c.08.11.17.21.26.31.09.1.18.21.26.31.18.21.36.41.54.61.09.1.19.2.28.3.09.1.19.2.28.29.09.09.18.18.27.27.29.29.6.57.91.85.09.08.17.15.26.23.03.02.05.04.08.07.09.08.19.16.28.24.1.09.21.17.31.26.1.08.2.16.31.24,0,0,.01.01.02.02.1.08.21.16.31.24.11.08.22.16.33.24.11.08.22.16.33.24.11.08.22.16.33.23.11.08.23.15.34.23.11.08.23.15.34.22.11.07.23.15.35.22.11.07.22.13.32.2.02.01.04.02.06.03.1.06.19.11.29.17.01,0,.02.01.03.02.01,0,.03.01.04.02.1.06.21.12.32.18.12.07.24.13.36.19.14.07.28.15.42.22.09.05.18.09.27.14.02,0,.04.02.06.03.11.06.23.11.34.16,0,0,0,0,0,0,.12.06.24.11.36.17.12.06.25.11.37.17.12.05.25.11.38.16s.25.1.38.15c.13.05.27.1.41.16.1.04.21.08.32.12.02,0,.03.01.05.02.11.04.21.08.32.11.04.01.07.02.11.04.11.04.23.08.34.11.15.05.3.09.45.14.02,0,.09.03.17.05.38.11.76-.18.76-.58v-13.47c-.69-.43-1.33-.92-1.91-1.47-.74-.69-1.4-1.48-1.94-2.35Z"/>
        <path class="cls-2" d="m27.62,24.07c1.61.43,3.02,1.37,4.04,2.62,1.41-1.33,3.31-2.15,5.4-2.15.15,0,.29,0,.43.01,0,.14.02.42.02.68,0,.33.27.59.6.59h2.97c.35,0,.62-.29.6-.64-.06-.95-.2-2.71-.41-3.6-.05-.19-.09-.38-.15-.57-.06-.22-.13-.45-.2-.67-.31-.96-.71-1.88-1.18-2.75-.69-1.27-1.55-2.44-2.54-3.48-1-1.05-2.14-1.97-3.4-2.72-.59-.35-1.2-.67-1.83-.95-.69-.31-1.41-.57-2.15-.77-.07-.02-.15-.04-.22-.06-.65-.17-1.31-.31-1.99-.4-.69-.09-1.4-.15-2.11-.15-.04,0-.08,0-.12,0-.67,0-1.32.04-1.97.12-.72.09-1.43.22-2.12.4l-.14.04c-.74.2-1.46.45-2.16.74-.65.27-1.27.59-1.87.94-1.27.74-2.43,1.66-3.45,2.7-1.02,1.05-1.9,2.23-2.61,3.52-.49.9-.91,1.84-1.23,2.83-.07.22-.14.44-.2.67-.05.18-.1.36-.14.54-.22.9-.36,2.68-.42,3.64-.02.35.25.64.6.64h2.98c.33,0,.6-.26.6-.59,0-.26.01-.54.02-.68.14,0,.29-.01.43-.01,2.2,0,4.18.9,5.61,2.36,1.01-1.33,2.44-2.33,4.1-2.8v17.51c.64.08,1.3.12,1.97.12.04,0,.08,0,.12,0,.72,0,1.42-.06,2.11-.15.68-.09,1.34-.23,1.99-.4v-.04.04c.82-.22,1.61-.5,2.37-.83.51-.22,1.01-.48,1.49-.75,1.21-.69,2.32-1.53,3.31-2.5.99-.96,1.86-2.06,2.58-3.25.61-1.01,1.12-2.1,1.51-3.24.11-.33-.08-.68-.42-.77l-2.91-.78c-.3-.08-.62.08-.72.38-.29.81-.66,1.59-1.1,2.31-.54.87-1.18,1.67-1.91,2.38-.56.54-1.17,1.03-1.83,1.45-.2.13-.4.25-.61.37-.56.32-1.15.59-1.76.82-.35.13-.71.25-1.08.34-.3.08-.6.15-.91.21m-8.3-15.09c-1.24-1.27-2.91-2.11-4.77-2.31.05-.1.1-.2.16-.3.53-.97,1.18-1.86,1.94-2.65.7-.72,1.49-1.36,2.35-1.9l.23-.14c.65-.39,1.34-.71,2.07-.97.31-.11.63-.21.95-.3.38-.1.77-.19,1.17-.25.64-.11,1.3-.16,1.97-.16.04,0,.08,0,.12,0,.72,0,1.43.08,2.11.2.38.07.76.16,1.13.27.29.08.58.18.86.28.74.27,1.44.62,2.1,1.02l.27.17c.83.54,1.58,1.17,2.25,1.89.73.78,1.36,1.66,1.87,2.61.04.07.08.15.11.22-1.76.19-3.34.96-4.56,2.11-1.44-1.76-3.63-2.89-6.09-2.89s-4.81,1.22-6.25,3.1Z"/>
        <path class="cls-2" d="m46.98,25.82c-.32,0-.58.25-.6.57,0,.16-.02.31-.03.47,0,0,0,0,0,0-.02.26-.04.51-.07.77,0,.08-.02.17-.03.25,0,0,0,0,0,.01-.03.22-.06.45-.09.67,0,0,0,.01,0,.02-.03.22-.07.44-.11.65-.02.1-.04.21-.06.31-.11.57-.25,1.14-.41,1.69-.03.1-.06.2-.09.3-.1.33-.21.65-.32.98-.15.43-.32.85-.5,1.27-.14.31-.28.62-.43.92-.2.4-.41.8-.64,1.19-.07.12-.14.25-.22.37-.1.17-.2.33-.31.49-.12.19-.24.38-.37.56-.06.09-.13.18-.19.28h0c-.06.09-.12.17-.19.26,0,.01-.01.02-.02.03-.05.07-.1.14-.15.2-.09.12-.18.24-.28.36-.06.08-.12.15-.18.22-.06.07-.12.15-.18.22-.02.02-.03.04-.05.06-.14.16-.28.33-.42.48-.07.08-.15.17-.23.25-.07.07-.13.14-.2.21-.2.21-.41.42-.62.63-.02.02-.04.04-.06.06-.11.1-.21.2-.32.3-.08.07-.16.14-.23.21-.07.06-.13.12-.2.18-.03.03-.07.06-.1.09-.07.06-.14.12-.21.17-.09.07-.17.14-.26.21-.09.07-.17.14-.26.21-.09.07-.18.14-.27.21-.09.07-.18.14-.27.2t0,0c-.09.07-.18.13-.27.19-.09.06-.17.12-.26.18-.01,0-.02.02-.03.02-.09.06-.17.12-.26.17-.09.06-.19.12-.28.18-.21.14-.43.27-.65.4-.07.04-.15.09-.22.13-.06.03-.11.07-.17.1-.02.01-.04.02-.06.03-.15.09-.31.17-.46.25,0,0-.01,0-.02.01-.13.07-.26.14-.4.2-.1.05-.19.1-.29.14-.08.04-.15.07-.23.11-.16.07-.32.15-.48.21-.24.1-.48.2-.73.3-.08.03-.16.06-.25.09-.16.06-.33.12-.5.18-.18.06-.36.12-.54.18-.1.03-.19.06-.29.09-.09.03-.18.06-.27.08-.1.03-.2.06-.3.08-.4.11-.81.2-1.22.29-.65.13-1.32.24-1.99.31-.69.07-1.4.11-2.11.12-.04,0-.08,0-.12,0-.45,0-.89-.01-1.33-.04-.35-.02-.64.25-.64.6v3.18c0,.32.25.58.57.6.46.03.93.04,1.4.04.04,0,.08,0,.12,0,.71,0,1.41-.03,2.11-.1.67-.06,1.34-.14,1.99-.25.51-.09,1.02-.19,1.53-.3.1-.02.2-.05.3-.07.1-.02.2-.05.3-.08.08-.02.16-.04.25-.07.13-.03.26-.07.39-.11,0,0,0,0,0,0,.13-.04.26-.08.39-.12.26-.08.52-.16.78-.25.13-.04.26-.09.39-.14.13-.05.26-.09.38-.14.13-.05.26-.1.38-.15.13-.05.25-.1.38-.15s.25-.1.37-.16c.12-.05.25-.11.37-.16.25-.11.49-.23.73-.35.12-.06.24-.12.36-.18.12-.06.24-.12.36-.19.13-.07.26-.14.39-.21,0,0,.01,0,.02-.01.1-.06.2-.11.3-.17.93-.54,1.83-1.13,2.68-1.77.12-.09.24-.19.36-.28.11-.08.21-.17.32-.25.21-.17.42-.35.62-.52.1-.09.2-.18.3-.27.09-.08.17-.16.26-.24.06-.06.13-.12.19-.18.15-.14.3-.28.44-.42.1-.1.19-.19.29-.29.1-.1.19-.19.28-.29.09-.1.19-.2.28-.3.18-.2.37-.4.54-.61.09-.1.18-.21.26-.31.09-.1.17-.21.26-.31.09-.11.17-.21.26-.32s.17-.21.25-.32c.08-.11.16-.21.24-.32,0,0,.01-.01.02-.02.07-.09.14-.19.21-.28.02-.03.05-.06.07-.1.06-.09.12-.18.19-.27.08-.11.15-.22.22-.33,0,0,.01-.02.02-.03.07-.11.14-.21.21-.32.15-.23.29-.46.43-.7.07-.12.14-.23.21-.35.13-.22.25-.44.37-.67.12-.22.24-.45.35-.68,0,0,0,0,0,0,.08-.15.15-.31.22-.46.23-.5.45-1,.65-1.51.05-.13.1-.26.15-.38.1-.25.19-.51.27-.76,0,0,0-.01,0-.02.1-.28.19-.57.27-.86,0,0,0-.02,0-.03.03-.1.06-.2.09-.3.04-.13.07-.26.11-.39.03-.12.06-.25.1-.37.42-1.66.67-3.38.74-5.14.01-.34-.26-.63-.6-.63h-3.18Z"/>
      </g>
    </g>
  </g>
</svg>