<?xml version="1.0" encoding="UTF-8"?>
<svg id="Layer_2" data-name="Layer 2" xmlns="http://www.w3.org/2000/svg" xmlns:xlink="http://www.w3.org/1999/xlink" viewBox="0 0 50.92 55.42">
  <defs>
    <style>
      .cls-1 {
        fill: #f47932;
      }

      .cls-2 {
        fill: #232463;
      }

      .cls-3 {
        fill: url(#linear-gradient);
      }
    </style>
    <linearGradient id="linear-gradient" x1="18.58" y1="38.62" x2="20.83" y2="-1.72" gradientUnits="userSpaceOnUse">
      <stop offset=".21" stop-color="#232463"/>
      <stop offset=".78" stop-color="#f47932"/>
      <stop offset="1" stop-color="#f47932"/>
    </linearGradient>
  </defs>
  <g id="Layer_1-2" data-name="Layer 1">
    <g>
      <polygon class="cls-1" points="34.82 1.35 31.65 8.99 26.46 0 34.82 1.35"/>
      <path class="cls-2" d="m41.78,29.96c0,.14,0,.29,0,.43-.02.7-.08,1.39-.18,2.06-.11.73-.27,1.44-.47,2.13-.2.68-.45,1.35-.73,2-.28.64-.61,1.26-.97,1.86-.49.8-1.04,1.56-1.66,2.27-.3.34-.61.67-.93.99-.32.31-.65.61-.99.89-.73.6-1.51,1.14-2.33,1.61-.58.33-1.18.62-1.79.88-.67.28-1.36.52-2.06.71-.67.18-1.36.32-2.06.41-.69.09-1.4.14-2.12.15h-.06c-.66,0-1.31-.04-1.94-.11-.71-.08-1.4-.21-2.08-.38-.7-.18-1.39-.4-2.05-.66-.64-.26-1.26-.55-1.86-.88-.6-.33-1.18-.7-1.73-1.11-.18-.13-.36-.27-.53-.41-.38-.3-.75-.63-1.11-.97-.37-.35-.72-.72-1.06-1.11-.14-.16-.28-.32-.41-.49l2.58-1.49,1.13-.65c.24.26.48.52.74.76.68.64,1.44,1.2,2.25,1.67.08.05.16.09.25.14.04.02.08.04.11.06.06.03.12.06.18.09.82.42,1.69.75,2.6.97.32.08.65.15.99.2.63.1,1.28.16,1.94.16.02,0,.04,0,.06,0,.72,0,1.43-.07,2.12-.2.33-.06.65-.13.97-.22.9-.24,1.75-.58,2.55-1.01.1-.05.19-.1.29-.16.11-.06.21-.12.31-.18.77-.47,1.49-1.02,2.14-1.65.66-.64,1.26-1.36,1.76-2.14.05-.08.11-.16.16-.25.02-.04.05-.08.07-.12.51-.85.92-1.76,1.21-2.72.1-.34.19-.69.27-1.04.13-.61.21-1.23.24-1.86,0-.07,0-.13,0-.2,0-.14,0-.29,0-.43,0-.55-.04-1.1-.11-1.63-.05-.37-.12-.74-.2-1.1-.08-.36-.18-.72-.3-1.06l3.41-1.97.3-.18c.02.06.05.12.07.18.24.63.44,1.28.59,1.94.16.67.28,1.36.35,2.07,0,.04,0,.08.01.12.05.54.08,1.08.08,1.63Z"/>
      <path class="cls-3" d="m38.46,20.07c.08.11.16.21.24.32l-2.86,1.65-.81.47c-.24-.31-.49-.6-.75-.88-.54-.58-1.14-1.1-1.78-1.56-.22-.16-.45-.31-.69-.46-.02-.01-.04-.03-.06-.04-.01,0-.02-.01-.03-.02-.91-.55-1.9-.99-2.94-1.29-.39-.11-.78-.2-1.19-.28-.69-.13-1.4-.19-2.12-.2-.02,0-.04,0-.06,0-.66,0-1.31.05-1.94.16-.41.06-.81.15-1.2.26-1.04.28-2.02.69-2.92,1.21-.03.02-.07.04-.1.06-.32.19-.62.39-.92.6-.6.43-1.16.91-1.66,1.44-.54.55-1.02,1.16-1.44,1.81-.18.28-.35.56-.51.85,0,.01-.01.02-.02.03-.5.93-.89,1.94-1.13,3-.09.37-.16.75-.21,1.13-.07.53-.11,1.08-.11,1.63,0,.13,0,.25,0,.37l-.1.06h.1c.02.71.11,1.39.25,2.06.08.36.17.72.28,1.07.11.36.23.71.38,1.05l-3.47,2h-.26s.04.08.05.12l-4.08,2.36-2.86,1.65-.9.52c-.09-.17-.17-.35-.25-.52-.5-1.08-.93-2.2-1.28-3.36-.04-.13-.08-.26-.12-.4-.04-.12-.07-.25-.1-.37-.36-1.33-.61-2.71-.75-4.13-.07-.68-.11-1.37-.12-2.06,0-.14,0-.29,0-.43,0-.55.02-1.09.05-1.63.09-1.41.29-2.79.6-4.13.03-.14.07-.29.1-.43.32-1.27.73-2.51,1.23-3.7.37-.87.78-1.71,1.24-2.53.51-.91,1.08-1.79,1.69-2.63.72-.98,1.5-1.91,2.35-2.77,1.58-1.61,3.37-3.01,5.32-4.16.84-.49,1.71-.94,2.61-1.33L28.69,1.72l2.28,3.83-11.04,3.97s-3.43,1.28-4.72,1.99c-.14.08-.29.16-.43.24-1.63.95-3.12,2.12-4.43,3.46-1.31,1.34-2.44,2.85-3.36,4.5-.07.12-.13.24-.2.36-.69,1.3-1.25,2.68-1.66,4.13-.06.23-.13.46-.18.69-.28,1.11-.46,2.26-.55,3.44-.04.54-.06,1.08-.06,1.63,0,.14,0,.29,0,.43.01.7.06,1.38.14,2.06.11.91.27,1.79.49,2.66l4.28-2.47c-.01-.06-.02-.13-.03-.19-.1-.68-.17-1.36-.18-2.06,0-.14,0-.29,0-.43,0-.55.03-1.1.08-1.63.07-.76.2-1.5.38-2.22.16-.65.35-1.29.59-1.91.28-.74.61-1.45.99-2.14.38-.69.81-1.36,1.29-1.99.41-.54.85-1.06,1.33-1.54.48-.5,1-.96,1.54-1.39.61-.48,1.25-.92,1.92-1.32.7-.41,1.44-.78,2.21-1.08.59-.24,1.21-.44,1.83-.61.74-.2,1.51-.35,2.29-.44.64-.08,1.29-.11,1.94-.11h.06c.72,0,1.43.05,2.12.15.78.1,1.54.26,2.28.47.63.18,1.25.4,1.85.65.74.31,1.46.67,2.14,1.08.68.41,1.34.88,1.95,1.38.01,0,.02.02.04.03.5.41.97.85,1.42,1.32.43.45.83.92,1.21,1.42Z"/>
      <path class="cls-2" d="m37.25,18.65c-.45-.47-.92-.91-1.42-1.32-.01,0-.02-.02-.04-.03-.61-.51-1.27-.97-1.95-1.38-.68-.41-1.4-.77-2.14-1.08-.6-.25-1.22-.47-1.85-.65-.74-.21-1.5-.37-2.28-.47-.69-.09-1.4-.14-2.12-.15h-.06c-.66,0-1.31.04-1.94.11-.78.09-1.55.24-2.29.44-.63.17-1.24.37-1.83.61-.77.31-1.5.67-2.21,1.08-.67.39-1.31.83-1.92,1.32-.54.43-1.06.9-1.54,1.39-.47.48-.92,1-1.33,1.54-.48.63-.91,1.29-1.29,1.99-.38.69-.71,1.4-.99,2.14-.23.62-.43,1.25-.59,1.91-.18.72-.3,1.46-.38,2.22-.05.54-.08,1.08-.08,1.63,0,.14,0,.29,0,.43.02.7.08,1.39.18,2.06,0,.06.02.13.03.19l4.9,1.93c-.14-.34-.27-.69-.38-1.05-.11-.35-.2-.71-.28-1.07-.14-.67-.22-1.36-.25-2.06h-.1l.1-.06c0-.12,0-.25,0-.37,0-.55.04-1.1.11-1.63.05-.38.12-.76.21-1.13.25-1.06.63-2.06,1.13-3,0-.01.01-.02.02-.03.16-.29.33-.57.51-.85.42-.65.9-1.25,1.44-1.81.51-.53,1.07-1.01,1.66-1.44.3-.21.61-.42.92-.6.03-.02.07-.04.1-.06.91-.52,1.89-.93,2.92-1.21.39-.11.79-.19,1.2-.26.63-.1,1.28-.16,1.94-.16.02,0,.04,0,.06,0,.72,0,1.43.07,2.12.2.4.07.8.16,1.19.28,1.04.3,2.03.74,2.94,1.29.01,0,.02.01.03.02.02.01.04.03.06.04.23.15.46.3.69.46.64.46,1.24.99,1.78,1.56.27.28.52.58.75.88l.81-.47,2.86-1.65c-.08-.11-.16-.22-.24-.32-.37-.5-.78-.97-1.21-1.42Z"/>
      <path class="cls-2" d="m50.92,29.96c0,.14,0,.29,0,.43-.01.69-.05,1.38-.12,2.06-.14,1.41-.39,2.79-.75,4.13-.03.12-.07.25-.1.37-.37,1.3-.84,2.55-1.4,3.76-.37.79-.78,1.56-1.22,2.3h0c-1.13,1.89-2.49,3.61-4.05,5.14-1.56,1.53-3.31,2.85-5.22,3.94-.72.41-1.46.79-2.22,1.13-1.23.55-2.51,1.01-3.84,1.36h0c-.1.03-.19.05-.29.08-1.34.34-2.71.57-4.13.68-.7.06-1.41.09-2.12.09-.67,0-1.34-.03-2-.08-1.41-.11-2.79-.33-4.13-.67-.1-.02-.2-.05-.3-.08-1.32-.34-2.6-.79-3.83-1.33-.78-.34-1.53-.72-2.26-1.14-1.91-1.08-3.67-2.4-5.24-3.93-.08-.08-.16-.16-.25-.24-.99-.99-1.9-2.06-2.71-3.2l3.78-2.18c.68.91,1.43,1.76,2.25,2.55.2.19.4.38.61.56,1.14,1.02,2.39,1.91,3.74,2.66.03.02.06.03.08.05,1.3.72,2.68,1.31,4.13,1.74.28.08.55.16.83.23,1.07.27,2.17.46,3.29.57.64.06,1.29.09,1.94.09h.06c.72,0,1.43-.04,2.12-.11,1.12-.12,2.22-.32,3.28-.6.29-.08.57-.16.85-.25,1.45-.45,2.83-1.06,4.13-1.8,0,0,0,0,.01,0,1.57-.9,3.01-1.99,4.29-3.25,1.28-1.26,2.41-2.68,3.34-4.23.02-.03.03-.05.05-.08.77-1.29,1.4-2.68,1.88-4.13.09-.26.17-.52.24-.78.31-1.08.54-2.2.67-3.35.08-.68.13-1.37.14-2.06,0-.14,0-.29,0-.43,0-.55-.02-1.09-.06-1.63-.07-.9-.19-1.77-.37-2.64-.05-.26-.11-.51-.17-.77-.06-.24-.12-.48-.19-.72-.25-.87-.55-1.72-.9-2.54-.23-.54-.49-1.07-.76-1.58-.05-.09-.1-.19-.15-.28-.33-.6-.69-1.19-1.08-1.75-.66-.96-1.4-1.87-2.21-2.7-.16-.17-.33-.34-.5-.5l2.35-1.36,1.61-.93c.95,1.01,1.82,2.11,2.6,3.27.13.2.26.39.39.59l.69,1.16h0s.09.15.09.15c.3.55.59,1.12.85,1.69.1.22.19.43.29.65.45,1.06.83,2.16,1.13,3.3.04.13.07.27.1.4.04.14.07.28.1.43.31,1.34.51,2.72.6,4.13.04.54.05,1.08.05,1.63Z"/>
      <circle class="cls-1" cx="25.46" cy="30.13" r="7.67"/>
    </g>
  </g>
</svg>