<?xml version="1.0" encoding="UTF-8"?>
<svg id="Layer_2" data-name="Layer 2" xmlns="http://www.w3.org/2000/svg" xmlns:xlink="http://www.w3.org/1999/xlink" viewBox="0 0 51.18 50.78">
  <defs>
    <style>
      .cls-1 {
        fill: url(#linear-gradient-2);
      }

      .cls-2 {
        fill: #232463;
      }

      .cls-3 {
        fill: url(#linear-gradient);
      }
    </style>
    <linearGradient id="linear-gradient" x1="14.28" y1="39.76" x2="45.34" y2="28.11" gradientUnits="userSpaceOnUse">
      <stop offset="0" stop-color="#f6ad3b"/>
      <stop offset=".48" stop-color="#f05a28"/>
      <stop offset="1" stop-color="#02205f"/>
    </linearGradient>
    <linearGradient id="linear-gradient-2" x1=".41" y1="24.74" x2="31.92" y2="12.92" gradientUnits="userSpaceOnUse">
      <stop offset="0" stop-color="#02205f"/>
      <stop offset=".52" stop-color="#f05a28"/>
      <stop offset="1" stop-color="#f6ad3b"/>
    </linearGradient>
  </defs>
  <g id="Layer_1-2" data-name="Layer 1">
    <g>
      <circle class="cls-2" cx="25.59" cy="25.39" r="7.5"/>
      <path class="cls-3" d="m51.18,25.39c0,1.46-.13,2.89-.36,4.28-.14.79-.31,1.57-.52,2.34-.18.66-.38,1.3-.61,1.94-.25.69-.53,1.37-.83,2.03-.35.75-.73,1.48-1.15,2.19-.4.69-.84,1.35-1.3,1.99-.84,1.16-1.78,2.25-2.8,3.25-1.02,1.01-2.13,1.92-3.3,2.75h0c-.64.45-1.31.87-2,1.27-.47.27-.96.53-1.45.77-.69.34-1.41.65-2.13.92-.83.32-1.68.59-2.56.82-.8.21-1.61.38-2.44.52-1.35.22-2.73.33-4.14.33s-2.86-.12-4.24-.35c-.79-.13-1.57-.29-2.33-.5-.48-.12-.95-.26-1.41-.42-.78-.25-1.54-.54-2.29-.87-.1-.04-.12-.18-.05-.25l3.14-3.14s.1-.06.16-.04c.52.18,1.05.35,1.58.49.4.11.8.2,1.2.28,1.37.28,2.79.42,4.24.42s2.8-.14,4.14-.4c.44-.09.87-.19,1.3-.3.86-.22,1.7-.5,2.51-.83.4-.16.8-.34,1.18-.52.48-.22.94-.46,1.39-.72.35-.2.69-.41,1.03-.63,1.21-.78,2.34-1.69,3.36-2.69,1.03-1.01,1.94-2.12,2.74-3.31.22-.34.44-.68.65-1.03.38-.65.73-1.32,1.04-2.01.2-.44.38-.89.55-1.34.21-.57.39-1.15.55-1.74.11-.4.2-.8.29-1.2.29-1.38.44-2.81.44-4.28s-.15-2.9-.44-4.28c-.08-.4-.18-.8-.29-1.2-.16-.59-.35-1.17-.55-1.74-.17-.45-.35-.9-.55-1.34-.31-.69-.66-1.36-1.04-2.01-.18-.31-.38-.63-.58-.93-.04-.06-.03-.14.02-.19l2.94-2.94c.07-.07.18-.06.24.02.42.6.82,1.21,1.19,1.84.42.71.8,1.44,1.15,2.19.3.66.58,1.34.83,2.03.23.64.44,1.28.61,1.94.21.77.38,1.55.52,2.34.24,1.39.36,2.82.36,4.28Z"/>
      <path class="cls-1" d="m36.7,2.74l-3.09,3.09s-.11.06-.16.03c-.78-.31-1.59-.58-2.42-.79-.43-.11-.87-.21-1.3-.3-1.34-.27-2.72-.4-4.14-.4s-2.87.14-4.24.42c-.4.08-.8.17-1.2.28-.57.15-1.13.32-1.67.52-.29.1-.59.21-.87.32-.88.36-1.73.77-2.54,1.23-.35.2-.69.41-1.03.63-1.21.78-2.34,1.68-3.36,2.69-1.03,1-1.94,2.11-2.74,3.31-.22.34-.44.68-.65,1.04-.38.65-.73,1.32-1.04,2.01-.08.17-.15.34-.22.52-.35.83-.64,1.68-.88,2.56-.11.4-.2.8-.29,1.2-.29,1.38-.44,2.81-.44,4.28s.15,2.9.44,4.28c.08.4.18.8.29,1.2.24.88.53,1.73.88,2.56.07.18.14.35.22.52.31.69.66,1.36,1.04,2.01.18.32.38.63.58.93.04.06.03.14-.02.19l-3.07,3.07c-.46-.64-.9-1.31-1.3-2-.27-.46-.53-.93-.77-1.41-.46-.9-.86-1.84-1.2-2.8-.23-.64-.44-1.28-.61-1.94-.21-.77-.38-1.55-.52-2.34-.24-1.39-.36-2.82-.36-4.28s.13-2.89.36-4.28c.14-.79.31-1.57.52-2.34.18-.66.38-1.3.61-1.94.34-.96.75-1.89,1.21-2.8.24-.48.5-.95.77-1.41.4-.69.83-1.35,1.3-2,.84-1.16,1.78-2.25,2.8-3.25,1.02-1.01,2.12-1.92,3.3-2.75.64-.45,1.31-.87,2-1.27.72-.41,1.47-.79,2.24-1.13.81-.37,1.64-.69,2.5-.96.46-.16.94-.29,1.41-.42.76-.21,1.54-.37,2.33-.5,1.38-.23,2.8-.35,4.24-.35s2.79.11,4.14.33c.83.13,1.64.3,2.44.52.87.22,1.73.5,2.56.82.66.25,1.31.52,1.94.83.1.05.12.18.04.25Z"/>
      <path class="cls-2" d="m37.54,28.59c-.08-.02-.16.03-.19.11-.09.33-.2.65-.32.97-.1.27-.21.52-.33.78-.16.36-.34.71-.55,1.05-.41.7-.89,1.36-1.43,1.96-.15.17-.31.33-.47.49-.02.02-.04.03-.05.05-.76.74-1.61,1.38-2.54,1.92-.34.2-.7.38-1.06.53-.28.13-.58.25-.87.35-.33.12-.66.22-1,.31-.71.19-1.46.31-2.21.37l.45-1.73-5.05,2.91,3.12,4.82.37-1.76c.06,0,.12,0,.18,0,1.43,0,2.81-.18,4.14-.52l.08-.05.03.03c1.38-.37,2.69-.9,3.9-1.59.01,0,.03-.01.04-.02.32-.19.64-.38.95-.59.88-.58,1.71-1.25,2.46-2,.93-.92,1.75-1.93,2.43-3.04.07-.11.14-.23.21-.34,0,0,.01-.02.02-.02.61-1.04,1.39-3.18,1.59-3.77.03-.08-.02-.18-.11-.2l-3.78-1.03Z"/>
      <path class="cls-2" d="m19.51,35.92c-.68-.38-1.32-.83-1.91-1.34-.21-.18-.42-.37-.63-.57-.02-.02-.03-.04-.05-.05-.74-.73-1.38-1.56-1.91-2.46-.2-.34-.38-.68-.55-1.04-.12-.26-.23-.52-.33-.79-.14-.37-.26-.74-.36-1.12-.1-.37-.19-.76-.25-1.14l2.1.03-4.13-4.09-4.42,3.98,2.17.03h0c.1.78.24,1.55.44,2.29l.02.08c.38,1.36.93,2.66,1.63,3.85,0,0,0,.02.01.02.07.11.14.23.21.34.69,1.11,1.5,2.12,2.43,3.04l-6.31,6.31c-.06.06-.06.16,0,.22.96.93,1.99,1.79,3.08,2.56.06.04.15.04.2-.02l9.46-9.46c.08-.08.05-.2-.04-.25-.3-.14-.58-.29-.86-.45Z"/>
      <path class="cls-2" d="m41.93,23.43c-.06-.49-.14-.98-.24-1.46-.06-.28-.13-.56-.21-.84,0,0,0-.01,0-.02-.38-1.39-.94-2.7-1.65-3.91,0,0-.01-.02-.02-.02-.07-.11-.14-.23-.21-.34-.68-1.11-1.5-2.12-2.43-3.03l6.32-6.32c.06-.06.06-.16,0-.22-.96-.93-1.99-1.79-3.08-2.56-.06-.04-.15-.04-.2.02l-9.46,9.45c-.08.08-.05.2.05.25.3.14.58.29.86.45.93.53,1.78,1.17,2.54,1.92.02.02.03.04.05.05.16.16.32.32.46.49.54.6,1.03,1.26,1.44,1.96.2.34.38.69.55,1.04.12.26.23.51.33.78.14.37.26.74.36,1.12.1.37.19.76.25,1.15l-2.04-.03,4.14,4.09,4.22-3.98-2.03-.03Z"/>
      <path class="cls-2" d="m26.47,7.08l-.49,1.98c-.13,0-.26,0-.39,0-1.14,0-2.25.11-3.33.33-.31.06-.61.13-.9.21h-.01c-1.32.35-2.58.86-3.75,1.5-.05.03-.1.05-.15.09-.02,0-.03.02-.04.02-1.25.71-2.4,1.58-3.41,2.58-.92.91-1.74,1.93-2.43,3.04-.07.11-.14.23-.21.34,0,0-.01.02-.01.02-.68,1.15-1.21,2.44-1.59,3.76-.02.08.03.17.11.19l3.77,1.04c.08.02.17-.03.19-.11.09-.33.2-.65.32-.97.1-.27.21-.53.33-.79.16-.35.34-.7.54-1.04.53-.9,1.17-1.73,1.91-2.46.02-.02.03-.03.05-.05.2-.2.41-.39.62-.57.59-.51,1.23-.95,1.91-1.34.34-.2.7-.38,1.06-.54.25-.11.51-.22.77-.32.35-.13.73-.25,1.1-.34.79-.2,1.6-.34,2.43-.38l-.45,1.72,5.05-3.03-3.01-4.9Z"/>
    </g>
  </g>
</svg>