<?xml version="1.0" encoding="UTF-8"?>
<svg id="Layer_2" data-name="Layer 2" xmlns="http://www.w3.org/2000/svg" viewBox="0 0 197.26 196.53">
  <defs>
    <style>
      .cls-1 {
        fill: #834c9e;
      }
    </style>
  </defs>
  <g id="Layer_1-2" data-name="Layer 1">
    <path class="cls-1" d="M197.25,96.52c-4.32,4.11-8.97,7.82-12.67,12.43-7.81,9.74-15.02,19.95-22.51,29.96-10.2,13.63-20.89,26.84-34.27,37.57-26.89,21.55-56.45,25.82-88.08,12.4C15.36,178.53,2.54,159.12,.36,133.14-3.98,81.47,31.93,24.26,80.09,5.22c17.24-6.82,34.49-7.45,51.3,1.06,16.3,8.25,25.33,21.93,26.72,40.04,.59,7.71,.22,15.73-1.23,23.32-2.95,15.39-11.7,27.07-25.7,34.4-8.11,4.24-16.5,7.94-24.7,12.01-5.51,2.73-11.07,5.44-16.35,8.59-13.75,8.23-22.92,19.66-24.26,37.18-9.87-5.97-15.26-14.08-16.89-24.78-1.64-10.81,2.58-19.86,8.92-28.08-13-14.9-9.02-34.6,8.15-40.39-.08,1.05-.12,2.01-.24,2.96-1.08,8.63,2.44,15.13,10.81,17.17,6.02,1.47,12.54,1.85,18.75,1.45,12.8-.82,24.87-4.67,35.73-11.63,11.35-7.27,11.86-13.64,1.95-22.85-10.16-9.45-22.65-11.82-35.82-10.33-25.25,2.87-46.4,13.99-62.59,33.68-7.39,8.99-11.88,19.29-9.59,31.44,1.48,7.87,5.99,13.89,11.4,19.53,1.73,1.81,3.12,4.62,3.34,7.1,1.33,15.14,12.31,29.52,26.76,34.35,1.69,.57,3.48,.84,4.76,1.14,1.95-8.41,3.81-16.42,5.78-24.91,10.95,3.31,20.93,4.26,31.08,1.92,12.14-2.79,22.91-8.5,32.06-16.64,11.18-9.95,21.47-20.89,32.4-31.14,7.99-7.49,16.39-14.53,24.6-21.78,.02,5.52,0,16.48,0,16.48Z"/>
  </g>
</svg>