<?xml version="1.0" encoding="UTF-8"?>
<svg id="Layer_2" data-name="Layer 2" xmlns="http://www.w3.org/2000/svg" xmlns:xlink="http://www.w3.org/1999/xlink" viewBox="0 0 50.6 50.78">
  <defs>
    <style>
      .cls-1 {
        fill: url(#linear-gradient-2);
      }

      .cls-2 {
        fill: #02205f;
      }

      .cls-3 {
        fill: url(#linear-gradient);
      }
    </style>
    <linearGradient id="linear-gradient" x1="22.01" y1="9.15" x2="39.64" y2="33.41" gradientUnits="userSpaceOnUse">
      <stop offset=".12" stop-color="#02205f"/>
      <stop offset=".18" stop-color="#1f1b64"/>
      <stop offset=".3" stop-color="#55146e"/>
      <stop offset=".42" stop-color="#830e77"/>
      <stop offset=".54" stop-color="#a8097e"/>
      <stop offset=".66" stop-color="#c50583"/>
      <stop offset=".77" stop-color="#da0287"/>
      <stop offset=".89" stop-color="#e6008a"/>
      <stop offset="1" stop-color="#eb008b"/>
    </linearGradient>
    <linearGradient id="linear-gradient-2" x1="11.2" y1="15.93" x2="28.35" y2="41.59" gradientUnits="userSpaceOnUse">
      <stop offset="0" stop-color="#eb008b"/>
      <stop offset=".09" stop-color="#e50089"/>
      <stop offset=".21" stop-color="#d40386"/>
      <stop offset=".34" stop-color="#b90681"/>
      <stop offset=".49" stop-color="#930b7a"/>
      <stop offset=".64" stop-color="#631271"/>
      <stop offset=".8" stop-color="#281a66"/>
      <stop offset=".9" stop-color="#02205f"/>
    </linearGradient>
  </defs>
  <g id="Layer_1-2" data-name="Layer 1">
    <g>
      <path class="cls-2" d="m27.17.43v8.73c-.61-.07-1.24-.11-1.87-.11s-1.26.04-1.88.11V.43c0-.2.16-.37.36-.39.5-.03,1.01-.05,1.52-.05s1.01.02,1.51.05c.2.01.36.18.36.39Z"/>
      <path class="cls-2" d="m27.17,41.62v8.73c0,.2-.16.37-.36.39-.5.03-1,.05-1.51.05s-1.01-.02-1.52-.05c-.2-.01-.36-.18-.36-.39v-8.73c.61.07,1.24.11,1.88.11s1.26-.04,1.87-.11Z"/>
      <path class="cls-2" d="m50.19,23.42h-3.62c-.2,0-.36-.15-.38-.35-.06-.52-.13-1.03-.23-1.53-.1-.54-.22-1.08-.36-1.61-.48-1.8-1.2-3.51-2.12-5.08-.93-1.6-2.06-3.06-3.36-4.35-1.3-1.29-2.77-2.42-4.37-3.34-.94-.54-1.92-1.01-2.94-1.4-.52-.2-1.05-.38-1.6-.54-.17-.05-.28-.2-.28-.37V1.12c0-.25.24-.44.48-.38.13.03.26.07.39.1.34.09.68.18,1.01.29,1.8.56,3.52,1.31,5.13,2.24,1.93,1.11,3.71,2.47,5.28,4.03,1.57,1.56,2.94,3.33,4.06,5.26,1.11,1.9,1.97,3.96,2.55,6.14h0c.24.9.43,1.81.58,2.74.07.48.13.97.18,1.46.02.23-.16.42-.39.42Z"/>
      <path class="cls-2" d="m19.67,45.93v3.73c0,.25-.24.44-.48.38-.18-.04-.36-.09-.54-.14-.29-.08-.58-.16-.86-.25-1.85-.57-3.61-1.35-5.25-2.3-1.92-1.12-3.68-2.48-5.24-4.04-1.56-1.56-2.91-3.33-4.02-5.25-1.1-1.9-1.95-3.95-2.52-6.11-.26-.95-.45-1.91-.59-2.9-.07-.48-.13-.97-.17-1.46-.02-.22.16-.42.39-.42h3.62c.2,0,.36.15.38.35.05.51.12,1.02.21,1.53.11.6.24,1.19.39,1.77.48,1.79,1.18,3.49,2.09,5.06.92,1.59,2.04,3.05,3.32,4.34,1.29,1.29,2.74,2.42,4.33,3.35.97.57,2,1.06,3.06,1.46.52.2,1.06.38,1.6.54.17.05.28.2.28.37Z"/>
      <path class="cls-2" d="m50.21,27.17c.22,0,.4.19.39.42-.04.49-.1.98-.17,1.46-.14,1-.35,1.98-.6,2.94h0c-.21.79-.46,1.57-.74,2.32-.23.61-.48,1.21-.75,1.79h0c-.27.58-.56,1.15-.87,1.7h0c-.06.11-.12.22-.19.32-.25.44-.52.87-.8,1.29-.34.52-.71,1.03-1.09,1.52-.38.5-.78.98-1.2,1.44-.31.35-.63.68-.96,1.01-.12.12-.24.23-.36.35-.46.44-.93.86-1.42,1.27-.5.41-1.01.81-1.54,1.17-.63.45-1.28.86-1.95,1.25-1.61.93-3.33,1.68-5.13,2.24-.33.1-.67.2-1.01.29-.13.04-.26.07-.39.1-.24.06-.48-.12-.48-.38v-3.73c0-.17.12-.32.28-.37.54-.16,1.07-.34,1.6-.54,1.02-.39,2.01-.86,2.94-1.4.17-.1.34-.19.5-.3.56-.34,1.11-.71,1.63-1.11.51-.38,1.01-.79,1.48-1.22.26-.23.51-.47.75-.71.2-.2.4-.4.59-.61.43-.46.83-.94,1.21-1.43.39-.49.74-1,1.08-1.53.16-.25.32-.51.47-.77.17-.29.32-.58.48-.87.29-.57.57-1.15.81-1.75.25-.61.47-1.23.66-1.87.06-.2.12-.4.17-.6.16-.59.29-1.19.4-1.8.09-.5.16-1.01.21-1.53.02-.2.18-.35.38-.35h3.62Z"/>
      <path class="cls-3" d="m40.88,30.29c-.2.63-.43,1.24-.7,1.84-.23.51-.48,1-.76,1.47-.04.07-.08.14-.13.21l-1.41-1.1h0s-1.93-1.51-1.93-1.51l-2.75-2.15-.4-.31-.58-.45-1.3-1.01-.13-.1-.55-.43h0s-1.2-.94-1.2-.94l-.65-.51-.72-.56-.51-.4-.05-.04-.45-.35-.42-.33-.25-.19-.21-.16-.49-.39-.95-.74h0s-.75-.58-.75-.58l-.17-.14-.92-.72-.96-.75-.73-.57-1.15-.9-1.88-1.47-.7-.55-3.35-2.61c.45-.45.93-.87,1.42-1.27.51-.41,1.05-.78,1.61-1.13.1-.06.19-.12.29-.17.24-.14.48-.27.72-.4.26-.14.53-.27.81-.39.35-.16.71-.3,1.07-.44.43-.16.88-.3,1.33-.42.18-.05.36-.1.55-.14.61-.14,1.24-.26,1.88-.32.61-.07,1.24-.11,1.88-.11s1.26.04,1.87.11c.64.07,1.26.18,1.88.33.13.03.27.06.4.1.5.13.99.28,1.47.46.64.24,1.27.52,1.88.83.2.1.41.22.6.33,1.25.71,2.39,1.59,3.4,2.59,1.01,1,1.9,2.14,2.62,3.38l-3.64,2.1c-.54-.92-1.19-1.77-1.95-2.51-.33-.32-.67-.63-1.03-.92-.47-.37-.97-.71-1.5-1.01-.13-.07-.25-.14-.38-.21-.6-.32-1.22-.58-1.88-.79-.23-.07-.45-.14-.68-.2-.39-.1-.79-.19-1.19-.25-.61-.1-1.24-.14-1.87-.14s-1.27.05-1.88.14c-.3.05-.59.1-.88.17-.15.03-.31.07-.46.12-.18.05-.36.1-.54.16-.39.13-.77.27-1.14.43l1.14.89,1.19.93h0s.69.54.69.54l1.6,1.25.28.22,1.55,1.21.32.25.97.76.91.71.29.23.35.27.93.73.3.23,1.16.91.13.1.42.33.16.13,1.69,1.32,2.4,1.87.36.28,2.04,1.6.23.18h0s1.36,1.06,1.36,1.06Z"/>
      <path class="cls-1" d="m37.01,36.78c-.07.07-.13.13-.2.2-.38.38-.78.74-1.2,1.08-.5.41-1.03.79-1.59,1.14-.2.13-.4.25-.61.37-.2.11-.4.23-.6.33-.19.1-.38.19-.58.28-.42.2-.86.38-1.3.55-.48.18-.97.33-1.47.46-.13.04-.27.07-.4.1-.61.15-1.24.26-1.88.33-.61.07-1.24.11-1.87.11s-1.26-.04-1.88-.11c-.64-.07-1.26-.18-1.88-.32-.18-.04-.37-.09-.55-.14-.45-.12-.89-.26-1.33-.42-.65-.24-1.27-.51-1.88-.83-.24-.13-.48-.26-.72-.4-1.23-.72-2.36-1.6-3.36-2.6-1-1-1.87-2.14-2.58-3.38l3.64-2.1c.53.92,1.17,1.76,1.91,2.51.35.35.72.69,1.11,1,.44.34.9.66,1.38.94.16.1.33.19.5.28.6.32,1.22.58,1.87.79.18.06.36.11.54.16.44.12.88.22,1.34.29.61.1,1.24.14,1.88.14s1.26-.05,1.87-.14c.39-.06.78-.14,1.16-.24.01,0,.02,0,.03,0,.23-.06.46-.13.68-.2.47-.15.93-.33,1.37-.54l-1.37-1.07-1.48-1.15h0s-.4-.31-.4-.31l-1.26-.98h0l-.61-.48-1.61-1.26-.26-.2-.96-.75-.91-.71-.22-.17-.31-.24-.9-.7-.44-.35-1.06-.83h0s-.71-.56-.71-.56h0s-.1-.08-.1-.08l-1.58-1.24-2.4-1.88-.42-.33-1.68-1.32h0l-.29-.23-1.62-1.27h0c.2-.63.45-1.23.72-1.82.19-.41.4-.81.62-1.2.09-.16.19-.32.28-.47l3.12,2.44h0s.21.17.21.17l2.75,2.15.29.23.67.52,1.21.94.23.18,1.07.84h0l.57.45.76.59.84.65.28.22.19.15.38.3.35.28.35.28.03.03.56.44.66.52h0s1.15.9,1.15.9l.06.05.33.26h0s1.54,1.21,1.54,1.21l.91.71.97.76,1.88,1.47.87.68,1.51,1.18,1.82,1.42Z"/>
      <path class="cls-2" d="m19.67,1.11v3.74c0,.17-.11.32-.28.37-.54.16-1.07.34-1.6.54-1.06.4-2.09.9-3.06,1.46-.06.03-.12.07-.18.11-.57.34-1.12.7-1.65,1.09-.52.38-1.02.78-1.5,1.21-.35.3-.68.62-1,.94-.13.12-.25.25-.36.37-.43.45-.84.93-1.23,1.42-.39.49-.75,1-1.1,1.52-.22.33-.43.68-.63,1.03-.11.2-.23.4-.33.6-.3.56-.58,1.14-.83,1.74-.26.6-.48,1.22-.68,1.85-.09.29-.17.58-.25.87-.14.52-.26,1.04-.35,1.57-.09.5-.17,1.01-.23,1.53-.02.2-.19.35-.38.35H.41c-.23,0-.41-.19-.39-.42.05-.49.1-.98.18-1.46.14-.92.33-1.82.57-2.7.23-.88.51-1.74.84-2.58.23-.61.49-1.2.77-1.78.27-.58.57-1.14.88-1.69.01-.02.02-.04.03-.06.3-.52.62-1.04.96-1.54.35-.52.72-1.03,1.11-1.52s.79-.97,1.22-1.43c.24-.26.48-.52.73-.77.2-.19.39-.39.6-.58.46-.44.94-.86,1.44-1.26.5-.41,1.02-.8,1.56-1.16.53-.37,1.08-.72,1.64-1.04,1.64-.96,3.4-1.74,5.25-2.31.28-.09.57-.17.86-.25h0c.18-.05.36-.1.54-.14.24-.06.48.12.48.38Z"/>
      <path class="cls-2" d="m39.42,17.19c-.72-1.24-1.6-2.38-2.62-3.38-1.01-1.01-2.16-1.88-3.4-2.59-.2-.11-.4-.23-.6-.33-.61-.31-1.23-.59-1.88-.83-.48-.18-.97-.33-1.47-.46-.13-.04-.27-.07-.4-.1-.61-.15-1.24-.26-1.88-.33-.61-.07-1.24-.11-1.87-.11s-1.88.11-1.88.11v4.24s1.24-.14,1.88-.14,1.26.05,1.87.14c.41.06.8.15,1.19.25.23.06.46.13.68.2.65.21,1.28.48,1.88.79.13.07.26.14.38.21.52.3,1.03.64,1.5,1.01.36.29.71.59,1.03.92.76.74,1.41,1.59,1.95,2.51.41.71.75,1.46,1.02,2.25.04.11.07.22.11.33.06.2.27.32.47.26l2.22-.6,1.1-.29c.21-.06.33-.28.27-.49-.37-1.26-.89-2.46-1.54-3.57Z"/>
      <path class="cls-2" d="m27.17,37.38s-1.24.14-1.87.14-1.27-.05-1.88-.14c-.45-.07-.9-.17-1.34-.29-.18-.05-.36-.1-.54-.16-.65-.21-1.28-.47-1.87-.79-.17-.09-.33-.18-.5-.28-.48-.28-.94-.6-1.38-.94-.39-.31-.76-.64-1.11-1-.74-.75-1.39-1.59-1.91-2.51-.43-.75-.78-1.55-1.04-2.38-.02-.06-.04-.12-.06-.18-.06-.2-.27-.31-.47-.26l-1.62.43-1.7.45c-.21.06-.33.28-.27.48.36,1.25.87,2.44,1.51,3.54.71,1.24,1.58,2.37,2.58,3.38,1,1.01,2.13,1.88,3.36,2.6.24.14.48.27.72.4.6.31,1.23.59,1.88.83.43.16.88.3,1.33.42.18.05.36.1.55.14.61.14,1.24.26,1.88.32.61.07,1.24.11,1.88.11s1.87-.11,1.87-.11v-4.24Z"/>
    </g>
  </g>
</svg>