<?xml version="1.0" encoding="UTF-8"?>
<svg id="Layer_1" data-name="Layer 1" xmlns="http://www.w3.org/2000/svg" width="1000" height="1000" xmlns:xlink="http://www.w3.org/1999/xlink" viewBox="0 0 1000 1000">
  <defs>
    <style>
      .cls-1 {
        fill: #02205f;
      }

      .cls-2 {
        fill: url(#linear-gradient);
      }
    </style>
    <linearGradient id="linear-gradient" x1="768.05" y1="312.9" x2="483.47" y2="511.36" gradientUnits="userSpaceOnUse">
      <stop offset="0" stop-color="#763f98"/>
      <stop offset="1" stop-color="#02205f"/>
    </linearGradient>
  </defs>
  <g>
    <path class="cls-1" d="M489.45,499.2c-.33,.14-.62,.33-.95,.47-1.61,.8-3.27,1.61-4.92,2.46-14.06,6.81-30.1,14.29-47.09,21.34-.09,0-.19,.09-.28,.09-27.54,11.45-57.26,21.77-83.67,26.6-.57,.09-1.04,.19-1.56,.28-9.51,1.7-25.98,4.31-44.72,4.26-2.08,0-4.16-.05-6.29-.14-10.13-.38-20.68-1.61-31.09-4.26-1.18-.28-2.41-.62-3.64-.99-7.29-2.08-14.39-4.92-21.06-8.66-7.34-4.12-14.25-9.37-20.21-16-10.17-11.22-16.52-24.09-19.88-37.86-4.69-19.36-3.6-40.46,.95-61.15-6.01,23.8-9.18,48.7-9.18,74.35,0,33.74,5.49,66.16,15.62,96.5,16.09,5.96,33.79,7.86,51.73,7.29,15.05-.43,30.29-2.51,44.77-5.3h.05c3.08-.61,6.06-1.18,9.04-1.85,4.54-.99,9.04-1.99,13.35-3.03,7.9-1.85,20.73-7.24,35.92-14.48,33.7-16,78.8-40.94,105.63-56.03l.05-.05c1.47-.85,2.84-1.61,4.16-2.37,.47-.24,.9-.19,1.23,0,.71,.43,1.04,1.51,.19,2.18-8.14,6.11-18.5,13.87-29.82,22.53-.09,.05-.19,.09-.24,.19h-.05s-.05,.09-.09,.14c-13.54,10.41-28.35,21.86-42.03,32.89-.05,.05-.14,.09-.19,.19-8.85,7.15-17.18,14.01-24.47,20.26-10.65,9.28-18.93,17.08-22.76,22.05-4.12,5.4-8.09,10.84-11.93,16.42-.99,1.42-1.99,2.79-2.84,4.21h-.05c-1.85,2.79-3.69,5.58-5.44,8.42-6.96,11.22-13.06,22.72-17.79,34.36-7.1,17.37-11.12,35.02-10.55,52.58,36.35,29.34,79.6,50.5,126.93,60.58-9.75-3.36-18.93-7.81-27.17-13.44-9.65-6.53-17.98-14.72-24.66-24.75-7.19-10.88-11.12-23.33-12.45-36.25-.8-7.34-.66-14.86,.14-22.29,.19-1.28,.28-2.46,.52-3.74v-.05c.95-6.91,2.6-13.68,4.73-20.21,.19-.62,.43-1.28,.66-1.89,.76-2.41,1.61-4.73,2.56-7.1,6.2-16,14.72-31.28,24.61-45.76,7.38-10.74,15.48-21.11,23.99-31.09,10.7-12.59,22.05-24.56,33.32-35.92h.09c3.03-3.17,6.06-6.2,9.18-9.23,1.18-1.18,7.86-7.53,16.66-15.71,2.79-2.6,5.77-5.4,8.85-8.28,1.7-1.56,3.36-3.12,5.11-4.73,0,0,.09-.05,.19-.19,1.23-1.18,9.18-8.47,9.18-8.47,0,0,.95-22.15-22.34-9.37Z"/>
    <path class="cls-1" d="M597.21,441.03l-66.92,168.86c-1.8,4.5-8.19,4.07-9.37-.57l-18.17-91.67-.14-.62-2.22-11.31-11.17-5.68-.71-.38-83.25-42.74c-4.12-2.37-2.79-8.66,1.94-9.18l180.12-19.69c7.1-.8,12.49,6.29,9.89,12.97Z"/>
  </g>
  <path class="cls-1" d="M587.32,428.06l-180.12,19.69c-4.73,.52-6.06,6.81-1.94,9.18l83.25,42.74c-1.61,.8-3.27,1.61-4.92,2.46-14.06,6.81-30.1,14.29-47.09,21.34-.09,0-.19,.09-.28,.09-27.54,11.45-57.26,21.77-83.67,26.6-.57,.09-1.04,.19-1.56,.28-9.51,1.7-25.98,4.31-44.72,4.26-2.08,0-4.16-.05-6.29-.14-10.13-.38-20.68-1.61-31.09-4.26-1.18-.28-2.41-.62-3.64-.99-7.29-2.08-14.39-4.92-21.06-8.66-7.34-4.12-14.25-9.37-20.21-16-10.17-11.22-16.52-24.09-19.88-37.86-4.69-19.36-3.6-40.46,.95-61.15-6.01,23.8-9.18,48.7-9.18,74.35,0,33.74,5.49,66.16,15.62,96.5,16.09,5.96,33.79,7.86,51.73,7.29,15.05-.43,30.29-2.51,44.77-5.3h.05c3.08-.61,6.06-1.18,9.04-1.85,4.54-.99,9.04-1.99,13.35-3.03,7.9-1.85,20.73-7.24,35.92-14.48,33.7-16,78.8-40.94,105.63-56.03l.05-.05c1.47-.85,2.84-1.61,4.16-2.37,.47-.24,.9-.19,1.23,0,.71,.43,1.04,1.51,.19,2.18-8.14,6.11-18.5,13.87-29.82,22.53-.09,.05-.19,.09-.24,.19h-.05s-.05,.09-.09,.14c-13.54,10.41-28.35,21.86-42.03,32.89-.05,.05-.14,.09-.19,.19-8.85,7.15-17.18,14.01-24.47,20.26-10.65,9.28-18.93,17.08-22.76,22.05-4.12,5.4-8.09,10.84-11.93,16.42-.99,1.42-1.99,2.79-2.84,4.21h-.05c-1.85,2.79-3.69,5.58-5.44,8.42-6.96,11.22-13.06,22.72-17.79,34.36-7.1,17.37-11.12,35.02-10.55,52.58,36.35,29.34,79.6,50.5,126.93,60.58-9.75-3.36-18.93-7.81-27.17-13.44-9.65-6.53-17.98-14.72-24.66-24.75-7.19-10.88-11.12-23.33-12.45-36.25-.8-7.34-.66-14.86,.14-22.29,.19-1.28,.28-2.46,.52-3.74v-.05c.95-6.91,2.6-13.68,4.73-20.21,.19-.62,.43-1.28,.66-1.89,.76-2.41,1.61-4.73,2.56-7.1,6.2-16,14.72-31.28,24.61-45.76,7.38-10.74,15.48-21.11,23.99-31.09,10.7-12.59,22.05-24.56,33.32-35.92h.09c3.03-3.17,6.06-6.2,9.18-9.23,1.18-1.18,7.86-7.53,16.66-15.71,2.79-2.6,5.77-5.4,8.85-8.28,1.7-1.56,3.36-3.12,5.11-4.73,0,0,.09-.05,.19-.19l.14,.62,18.17,91.67c1.18,4.64,7.57,5.06,9.37,.57l66.92-168.86c2.6-6.67-2.79-13.77-9.89-12.97Zm-377.85-19.5c-1.7,5.63-3.22,11.31-4.45,17.08,5.02-20.07,12.02-39.33,20.78-57.6-6.2,12.45-11.93,26.22-16.33,40.51Z"/>
  <path class="cls-2" d="M848.55,406.72c-8.19-30.81-20.4-59.96-36.02-86.94-15.81-27.35-35.12-52.44-57.31-74.63h-.05c-22.2-22.2-47.23-41.5-74.59-57.31-22.81-13.2-47.18-23.95-72.79-31.9-.76-.24-1.47-.52-2.22-.76-16.75-5.3-33.89-9.42-51.4-12.26-.52-.09-1.04-.19-1.56-.24-17.08-2.51-34.55-3.79-52.29-3.79-184,0-335.82,137.62-358.26,315.52-1.89,14.96-2.84,30.15-2.84,45.57,0,172.98,121.63,317.51,284,352.81,24.85,5.44,50.64,8.28,77.09,8.28,31.14,0,61.38-3.93,90.25-11.36,2.18-.57,4.35-1.14,6.53-1.75,17.13-4.92,33.84-11.22,50.02-18.79,11.45-5.11,22.62-10.74,33.41-16.99,27.35-15.81,52.44-35.12,74.63-57.36,22.2-22.15,41.5-47.23,57.36-74.59,15.57-26.98,27.78-56.13,35.97-86.94,8-29.77,12.26-61.05,12.26-93.33s-4.26-63.56-12.21-93.28Zm-232.02,368.39c-.14,.09-.32,.14-.46,.19-35.6,15.04-74.72,23.3-115.74,23.3-21.58,0-42.6-2.27-62.84-6.68-46.41-9.89-88.83-30.63-124.47-59.4-44-35.46-77.69-83.16-95.97-137.88-9.93-29.75-15.32-61.54-15.32-94.63,0-25.15,3.11-49.56,9-72.91,1.21-5.66,2.69-11.23,4.36-16.75,4.32-14.02,9.93-27.52,16.01-39.73,.28-.51,.51-1.02,.79-1.49,48.5-99.31,150.5-167.72,268.43-167.72,164.89,0,298.59,133.7,298.59,298.59,0,123.68-75.23,229.77-182.39,275.11Z"/>
</svg>