<?xml version="1.0" encoding="UTF-8"?>
<svg id="Layer_2" data-name="Layer 2" xmlns="http://www.w3.org/2000/svg" viewBox="0 0 51.26 51.26">
  <defs>
    <style>
      .cls-1 {
        fill: #2592d0;
      }

      .cls-2 {
        fill: #282862;
      }

      .cls-3 {
        fill: #204496;
      }

      .cls-4 {
        stroke: #204496;
      }

      .cls-4, .cls-5, .cls-6, .cls-7 {
        fill: none;
        stroke-width: .48px;
      }

      .cls-4, .cls-6 {
        stroke-miterlimit: 10;
      }

      .cls-5 {
        stroke: #0f72b8;
      }

      .cls-5, .cls-7 {
        stroke-miterlimit: 10;
      }

      .cls-6 {
        stroke: #1dbce7;
      }

      .cls-8 {
        fill: #1dbce7;
      }

      .cls-7 {
        stroke: #2592d0;
      }

      .cls-9 {
        fill: #1b7fc1;
      }
    </style>
  </defs>
  <g id="Layer_1-2" data-name="Layer 1">
    <g>
      <g>
        <path class="cls-5" d="m43.58,33.19l-10.4,10.4c-7.04,7.04-18.47,7.05-25.51,0h0c-7.04-7.04-7.04-18.47,0-25.51l10.4-10.4c7.04-7.04,18.47-7.05,25.51,0h0c7.04,7.04,7.04,18.47,0,25.51Z"/>
        <path class="cls-7" d="m33.19,7.68l10.4,10.4c7.04,7.04,7.05,18.47,0,25.51h0c-7.04,7.04-18.47,7.04-25.51,0l-10.4-10.4c-7.04-7.04-7.05-18.47,0-25.51h0c7.04-7.04,18.47-7.04,25.51,0Z"/>
        <path class="cls-4" d="m43.67,18.28v14.7c0,9.96-8.08,18.04-18.04,18.04h0c-9.96,0-18.04-8.08-18.04-18.04v-14.7C7.59,8.32,15.67.24,25.63.24h0c9.96,0,18.04,8.08,18.04,18.04Z"/>
        <path class="cls-6" d="m32.98,43.67h-14.7C8.32,43.67.24,35.59.24,25.63H.24C.24,15.67,8.32,7.59,18.28,7.59h14.7c9.96,0,18.04,8.08,18.04,18.04h0c0,9.96-8.08,18.04-18.04,18.04Z"/>
      </g>
      <g>
        <path class="cls-2" d="m33.59,27.83v.07c0,.68-.08,1.33-.24,1.96-.01.04-.02.08-.03.12-.17.64-.42,1.25-.74,1.82,0,.01-.01.02-.02.03-.34.6-.76,1.15-1.24,1.65-.49.5-1.05.94-1.66,1.3-.03.02-.07.04-.1.06-.55.32-1.15.56-1.77.74-.02,0-.05.01-.07.02-.66.18-1.36.28-2.09.28v-4.03c.36,0,.71-.05,1.05-.14.34-.1.67-.23.97-.41.21-.13.41-.27.6-.44.08-.07.15-.14.23-.22.04-.04.07-.08.11-.11.2-.22.37-.47.51-.73.16-.3.29-.63.37-.97.07-.29.11-.6.11-.91v-.07h0c0-.36-.06-.71-.16-1.05-.1-.33-.23-.64-.41-.93-.18-.29-.39-.55-.63-.78-.24-.23-.51-.44-.81-.6-.29-.16-.6-.29-.93-.37-.32-.08-.65-.13-.99-.13s-.67.04-.99.13c-.33.08-.64.21-.93.37-.29.16-.56.36-.81.6-.24.23-.45.5-.63.78-.18.29-.32.6-.41.93-.1.33-.16.68-.16,1.05h0v11.41c-.45-.16-.89-.34-1.31-.55-.27-.13-.54-.28-.8-.43-.69-.41-1.34-.88-1.94-1.41v-9.03h.02c0-.7.1-1.38.28-2.02,0-.02.01-.05.02-.07.18-.62.43-1.21.74-1.76.02-.05.05-.09.08-.14.29-.49.63-.95,1.02-1.36l.04-.04.22-.22.11-.11.04-.04c.45-.42.95-.79,1.49-1.1h0c.56-.32,1.15-.57,1.79-.74.04-.01.07-.02.11-.03.65-.17,1.33-.26,2.03-.26s1.38.09,2.03.26c.03,0,.05.01.08.02.64.17,1.25.43,1.82.75h0c.6.34,1.15.76,1.64,1.24.49.48.92,1.03,1.27,1.62.02.04.05.09.08.13.31.55.56,1.14.74,1.77,0,.01,0,.02.01.04.18.65.28,1.34.29,2.06h0Z"/>
        <path class="cls-3" d="m15.29,21.83c-.17.29-.33.58-.47.88-.2.41-.38.84-.52,1.27-.08.24-.16.48-.23.72-.22.8-.36,1.63-.41,2.48-.02.22-.02.44-.02.66h-4.03c0-1.33.17-2.62.48-3.86.02-.1.05-.2.08-.29,0-.01,0-.02,0-.03.36-1.32.89-2.57,1.56-3.73h.27l.04.02h0l3.25,1.88h0Z"/>
        <path class="cls-9" d="m23.54,12.01l.52,4c-.51.07-1.02.17-1.51.3-.29.08-.57.16-.85.26-.46.16-.91.35-1.35.56-.23.11-.46.23-.68.36-.73.42-1.41.91-2.03,1.47-.15.13-.3.27-.45.42l-2.85-2.85c.9-.9,1.92-1.69,3.02-2.35.09-.06.18-.11.28-.16,0,0,.01,0,.02-.01,1.18-.68,2.46-1.21,3.82-1.57,0,0,.02,0,.03-.01.06-.02.13-.03.19-.05.6-.15,1.21-.27,1.84-.35h0Z"/>
        <path class="cls-8" d="m41.66,27.83h-4.03c0-.2,0-.39-.02-.59-.05-.88-.19-1.73-.42-2.55-.07-.25-.14-.48-.23-.72-.16-.45-.34-.89-.54-1.31-.14-.28-.29-.56-.45-.84l3.05-1.76.24-.14.2-.12s.05.08.07.12c.67,1.16,1.19,2.41,1.56,3.73.01.03.02.06.02.09.02.08.04.16.06.23.31,1.23.48,2.53.48,3.86h0Z"/>
        <path class="cls-1" d="m33.86,14.15c.25.15.5.3.74.47-.23-.16-.47-.31-.71-.45-.06-.03-.11-.07-.17-.1.04.02.07.04.11.07-.07-.04-.14-.09-.22-.13,0,0-.01,0-.02-.01-1.11-.64-2.31-1.14-3.57-1.5-.06-.02-.13-.04-.19-.05-.03,0-.06-.02-.09-.02,0,0,0,0,.01,0,0,0,0,0-.01,0h0c-.06-.02-.13-.04-.19-.05-.15-.04-.31-.07-.46-.11-.07-.02-.15-.03-.23-.05-.09-.02-.18-.04-.27-.06-.14-.03-.29-.05-.43-.07-.16-.02-.31-.05-.47-.07l-.53,4c.13.02.26.04.39.06.2.03.4.07.6.11.08.02.16.04.25.06.1.02.2.05.3.07h0c.29.08.57.16.85.26.45.16.88.34,1.3.54.25.12.48.24.72.38.73.42,1.41.91,2.03,1.47.15.13.3.27.45.42l2.85-2.85c-.92-.91-1.94-1.7-3.05-2.37h0Z"/>
      </g>
    </g>
  </g>
</svg>