<?xml version="1.0" encoding="UTF-8"?>
<svg id="Layer_2" data-name="Layer 2" xmlns="http://www.w3.org/2000/svg" xmlns:xlink="http://www.w3.org/1999/xlink" viewBox="0 0 51 50.78">
  <defs>
    <style>
      .cls-1 {
        fill: url(#linear-gradient-2);
      }

      .cls-2 {
        fill: #82c45d;
      }

      .cls-3 {
        fill: url(#linear-gradient);
      }

      .cls-4 {
        fill: #3b9248;
      }
    </style>
    <linearGradient id="linear-gradient" x1="53.54" y1="20.33" x2="13.2" y2="50.75" gradientUnits="userSpaceOnUse">
      <stop offset=".15" stop-color="#3b9248"/>
      <stop offset=".35" stop-color="#4fa04e"/>
      <stop offset=".85" stop-color="#82c45d"/>
    </linearGradient>
    <linearGradient id="linear-gradient-2" x1="16.81" y1=".44" x2="4.98" y2="34.96" xlink:href="#linear-gradient"/>
  </defs>
  <g id="Layer_1-2" data-name="Layer 1">
    <g>
      <ellipse class="cls-4" cx="29.92" cy="12.12" rx="3.86" ry="3.83"/>
      <ellipse class="cls-4" cx="39.51" cy="5.19" rx="4.88" ry="4.84"/>
      <path class="cls-2" d="m21.21,9.63v3.49c0,.18-.11.35-.28.42-1.32.55-5.2,2.27-7.22,6.89-1.77,4.05-.82,7.52-.32,9.03.09.27-.09.55-.38.58-.23.03-.46.06-.71.11-.95.19-1.76.49-2.41.81-.24.12-.53,0-.62-.24-.11-.3-.19-.56-.25-.77-.08-.27-.14-.56-.2-.84-.08-.4-.16-.8-.21-1.21-.11-.78-.17-1.58-.17-2.4s.06-1.61.17-2.39c.06-.41.13-.81.21-1.21.06-.28.13-.56.2-.84.04-.15.08-.3.13-.45.21-.7.46-1.38.75-2.04.19-.42.4-.84.62-1.25.08-.14.15-.27.23-.41.24-.41.5-.81.77-1.2.59-.84,1.25-1.62,1.98-2.34.91-.91,1.92-1.71,3.02-2.39.18-.12.37-.23.56-.34.14-.08.27-.15.41-.23.89-.48,2.08-.88,3.13-1.21.29-.09.58.13.58.43Z"/>
      <path class="cls-3" d="m49.02,35.51c-.8,1.83-4.17,8.92-12.51,12.85-8.9,4.2-17.11,1.78-18.89,1.21-1.58-.56-3.55-1.41-5.63-2.73-1.7-1.08-3.07-2.2-4.14-3.21-.12-.11-.16-.28-.12-.43.27-1.02.77-2.63,1.66-4.22,1.02-1.81,2.55-3.59,4.82-4.41.61-.22,1.09-.31,1.65-.4,4.51-.8,6.64,1.17,11.01,1.6.84.09,4.05.34,7.58-.95,3.15-1.15,5.31-3.08,6.62-4.51.07-.08.2.01.14.1-.94,1.68-2.59,4.05-5.35,6.01-3.06,2.18-6.08,2.87-7.28,3.09-6.71,1.25-11.06-1.93-13.59.6-.86.86-1.16,1.93-1.29,2.6.67.45,1.42.9,2.26,1.34.88.47,1.72.85,2.52,1.17.3.12.6.23.88.33.71.21,2.34.66,4.55.82.02,0,.03,0,.05,0,.15.01.31.02.46.03.18,0,.36.02.54.02.14,0,.28,0,.42,0,.03,0,.06,0,.1,0,.04,0,.07,0,.11,0,.09,0,.18,0,.26,0,.12,0,.24,0,.36,0,.15,0,.3,0,.45-.02.15,0,.3-.02.46-.03.15,0,.31-.02.46-.04,10.78-.99,19-9.99,19-20.95,0-3.88-.96-7.38-2.81-10.5.81-1.43,1.42-2.84,1.81-3.97.12-.35.57-.42.79-.12,1.11,1.51,3.61,5.47,4.4,11.19.88,6.41-.84,11.42-1.74,13.52Z"/>
      <path class="cls-4" d="m45.8,19.78c-6,7.36-13.54,10.21-18.06,10.68-7.37.76-6.87-5.46-1.94-8.05,2.26-1.19,3.54-3.22,4.25-4.75.03-.07.13-.07.16,0,2.24,4.19-.38,7.29-.38,7.29,1.72-.37,4.29-1.14,7-2.86,3.13-1.99,5.06-4.36,6.09-5.86.35-.51.55-.85.83-1.34,1.03,1.74,1.56,2.87,2.05,4.89Z"/>
      <path class="cls-1" d="m25.31.45v3.44c0,.24-.19.44-.44.45-11.38.36-20.5,9.65-20.5,21.04,0,1.29.12,2.55.34,3.77.04.21.08.41.12.62.04.2.09.39.13.58,0,.03,0,.05.02.08.02.1.05.21.08.31,0,.04.02.09.03.13.02.06.04.13.05.19.02.06.03.12.05.18.03.11.06.22.1.33.05.16.1.31.15.46.13.38.57,1.5.82,2.05.06.14.05.29-.03.41-.31.5-1.11,1.89-1.73,3.94-.11.37-.62.43-.82.1-2.35-3.84-3.7-8.34-3.7-13.16,0-1.97.23-3.89.66-5.74.03-.11.05-.22.08-.33C3.41,8.45,13.15.32,24.85,0c.25,0,.46.2.46.45Z"/>
      <path class="cls-2" d="m7.99,43.66c-.2-.08-.31-.31-.25-.52.27-1.02.77-2.6,1.64-4.16,1.02-1.81,2.55-3.59,4.82-4.41.61-.22,1.09-.31,1.65-.4,4.51-.8,6.64,1.17,11.01,1.6.84.09,4.05.34,7.58-.95,3.15-1.15,5.31-3.08,6.61-4.51.07-.08.2.01.15.1-.94,1.68-2.59,4.05-5.35,6.01-3.06,2.18-6.08,2.87-7.28,3.09-6.71,1.25-11.06-1.93-13.59.6-.86.86-1.16,1.93-1.29,2.6.62.41-4.09,1.59-5.68.95Z"/>
    </g>
  </g>
</svg>