<?xml version="1.0" encoding="UTF-8"?>
<svg id="Layer_2" data-name="Layer 2" xmlns="http://www.w3.org/2000/svg" xmlns:xlink="http://www.w3.org/1999/xlink" viewBox="0 0 50.76 50.78">
  <defs>
    <style>
      .cls-1 {
        fill: url(#linear-gradient-2);
      }

      .cls-2 {
        fill: #02205f;
      }

      .cls-3 {
        fill: #834c9e;
      }

      .cls-4 {
        fill: url(#linear-gradient-3);
      }

      .cls-5 {
        fill: url(#linear-gradient);
      }
    </style>
    <linearGradient id="linear-gradient" x1="2.84" y1="31.77" x2="16.87" y2="45.48" gradientUnits="userSpaceOnUse">
      <stop offset=".06" stop-color="#804c9c"/>
      <stop offset="1" stop-color="#02205f"/>
    </linearGradient>
    <linearGradient id="linear-gradient-2" x1="2.56" y1="8.82" x2="46.62" y2="32.74" gradientUnits="userSpaceOnUse">
      <stop offset=".03" stop-color="#02205f"/>
      <stop offset=".91" stop-color="#834c9e"/>
    </linearGradient>
    <linearGradient id="linear-gradient-3" x1="9.03" y1="29.92" x2="41.7" y2="29.92" gradientUnits="userSpaceOnUse">
      <stop offset="0" stop-color="#804c9c"/>
      <stop offset=".87" stop-color="#02205f"/>
    </linearGradient>
  </defs>
  <g id="Layer_1-2" data-name="Layer 1">
    <g>
      <circle class="cls-3" cx="25.37" cy="25.39" r="7.5"/>
      <path class="cls-5" d="m19.62,45.97v3.54c0,.31-.3.55-.6.47,0,0,0,0,0,0-2.15-.55-4.19-1.38-6.08-2.45-1.91-1.08-3.67-2.4-5.24-3.92-1.58-1.53-2.96-3.26-4.1-5.16-1.13-1.88-2.03-3.92-2.64-6.08h0C.41,30.48.08,28.49,0,26.44c-.01-.34.26-.63.6-.63h3.18c.32,0,.58.25.6.57.08,1.68.35,3.3.8,4.85.52,1.78,1.26,3.47,2.2,5.02.95,1.56,2.09,2.99,3.4,4.25,1.3,1.25,2.75,2.33,4.33,3.22,1.3.73,2.7,1.33,4.15,1.77.2.06.35.25.35.46Z"/>
      <path class="cls-1" d="m50.76,25.39c0,.14,0,.29,0,.43-.04,2.26-.37,4.45-.96,6.53-.61,2.14-1.49,4.16-2.6,6.03-1.12,1.88-2.47,3.6-4.02,5.12-1.55,1.52-3.29,2.85-5.19,3.94-1.65.94-3.41,1.71-5.26,2.27-.38.12-.77-.18-.77-.58v-3.34c0-.25.16-.48.4-.56,1.2-.42,2.36-.95,3.45-1.58,1.56-.89,3-1.99,4.28-3.24,1.28-1.25,2.4-2.67,3.33-4.21.92-1.54,1.66-3.21,2.16-4.97.49-1.72.78-3.53.81-5.39,0-.14,0-.29,0-.43,0-1.73-.21-3.41-.6-5.02-.44-1.81-1.12-3.52-2-5.11-.9-1.63-2-3.12-3.28-4.45-1.29-1.34-2.76-2.51-4.36-3.47h0c-1.58-.95-3.29-1.69-5.11-2.19-.47-.13-.95-.25-1.43-.35-.67-.14-1.36-.24-2.05-.31-.68-.07-1.36-.11-2.05-.11-.04,0-.08,0-.12,0-.67,0-1.33.03-1.98.09-.71.07-1.41.17-2.1.3-.46.09-.91.19-1.35.31-1.83.49-3.56,1.22-5.16,2.15-1.62.95-3.11,2.11-4.42,3.45-1.31,1.33-2.44,2.84-3.35,4.49-.82,1.47-1.47,3.06-1.92,4.72-.07.26-.31.44-.58.44H1.23c-.39,0-.67-.36-.59-.73.03-.13.06-.27.1-.4.55-2.2,1.39-4.29,2.47-6.22,1.11-1.98,2.47-3.79,4.05-5.39,1.58-1.61,3.37-3,5.32-4.14,1.92-1.12,4.01-2,6.21-2.59.81-.22,1.64-.4,2.48-.53.69-.11,1.39-.2,2.1-.25.65-.05,1.32-.08,1.98-.08.04,0,.08,0,.12,0,.69,0,1.38.03,2.05.09.69.06,1.38.15,2.05.26.87.15,1.73.34,2.57.57,2.19.6,4.26,1.5,6.16,2.63,1.94,1.15,3.71,2.56,5.27,4.16,1.55,1.6,2.89,3.4,3.98,5.35,1.07,1.92,1.89,3.99,2.43,6.17.49,1.97.75,4.03.75,6.16Z"/>
      <path class="cls-4" d="m41.7,25.39c0,.14,0,.29,0,.43-.04,1.45-.26,2.85-.65,4.18-.4,1.36-.98,2.65-1.7,3.85-.72,1.19-1.59,2.28-2.58,3.25-.99.97-2.1,1.81-3.31,2.5-1.2.68-2.49,1.22-3.85,1.58v-.04s0,.04,0,.04c-.67.18-1.35.32-2.05.41v8.55c0,.32-.25.58-.56.6-.49.03-.99.05-1.49.05-.04,0-.08,0-.12,0-.47,0-.95-.01-1.41-.04-.32-.02-.57-.28-.57-.6v-12.78c.64.11,1.31.16,1.98.16.04,0,.08,0,.12,0,.7,0,1.39-.07,2.05-.19.33-.06.65-.13.97-.22.37-.1.73-.21,1.08-.34.61-.23,1.2-.5,1.76-.82.89-.51,1.71-1.12,2.44-1.83.73-.71,1.38-1.5,1.91-2.38.54-.88.97-1.83,1.28-2.83.3-.98.48-2.02.51-3.09,0-.14,0-.28,0-.43,0-.94-.11-1.85-.3-2.72-.24-1.05-.62-2.04-1.11-2.97-.5-.95-1.13-1.83-1.87-2.61-.74-.79-1.59-1.49-2.52-2.06-.66-.4-1.36-.75-2.1-1.02-.28-.11-.57-.2-.86-.28-.39-.11-.79-.21-1.19-.28-.67-.12-1.35-.19-2.05-.19-.04,0-.08,0-.12,0-.68,0-1.34.06-1.98.16-.39.06-.78.15-1.15.25-.32.08-.64.18-.95.3-.58.2-1.13.45-1.66.74-.14.07-.27.15-.4.23-.95.56-1.82,1.25-2.58,2.04-.76.79-1.41,1.68-1.94,2.65-.51.94-.9,1.95-1.15,3.02-.2.89-.31,1.81-.31,2.76,0,.14,0,.29,0,.43.04,1.08.21,2.13.52,3.13.31,1.02.76,1.99,1.32,2.88.56.89,1.23,1.7,1.99,2.41.57.54,1.74,1.32,2.28,1.66.17.11.27.3.27.5v3.57c0,.35-.36.58-.67.44-.51-.22-1-.46-1.48-.73-1.23-.68-2.36-1.51-3.36-2.47-1.02-.97-1.91-2.08-2.66-3.29-.74-1.2-1.33-2.51-1.74-3.89-.4-1.34-.63-2.75-.66-4.22,0-.14,0-.29,0-.43,0-1.32.16-2.61.46-3.84.34-1.43.87-2.78,1.57-4.03.71-1.29,1.59-2.47,2.61-3.52,1.02-1.05,2.18-1.96,3.45-2.7,1.25-.73,2.6-1.3,4.03-1.68l.14-.04c.69-.18,1.39-.31,2.1-.4.65-.08,1.31-.12,1.98-.12.04,0,.08,0,.12,0,.7,0,1.38.05,2.05.14.7.09,1.38.23,2.05.41l.22.06c1.41.4,2.75.98,3.98,1.73,1.25.76,2.39,1.67,3.4,2.72.99,1.04,1.85,2.21,2.54,3.48.67,1.24,1.19,2.58,1.53,3.98.29,1.22.45,2.5.45,3.81Z"/>
      <path class="cls-2" d="m41.7,25.39c0,.14,0,.29,0,.43-.04,1.45-.26,2.85-.65,4.18-.4,1.36-.98,2.65-1.7,3.85-.72,1.19-1.59,2.28-2.58,3.25-.99.97-2.1,1.81-3.31,2.5-1.2.68-2.49,1.22-3.85,1.58v-.04s0,.04,0,.04c-.67.18-1.35.32-2.05.41v8.55c0,.32-.25.58-.56.6-.49.03-.99.05-1.49.05-.04,0-.08,0-.12,0-.47,0-.95-.01-1.41-.04-.32-.02-.57-.28-.57-.6v-12.78c.64.11,1.31.16,1.98.16.04,0,.08,0,.12,0,.7,0,1.39-.07,2.05-.19.33-.06.65-.13.97-.22.37-.1.73-.21,1.08-.34.61-.23,1.2-.5,1.76-.82.89-.51,1.71-1.12,2.44-1.83.73-.71,1.38-1.5,1.91-2.38.54-.88.97-1.83,1.28-2.83.3-.98.48-2.02.51-3.09,0-.14,0-.28,0-.43"/>
    </g>
  </g>
</svg>