<?xml version="1.0" encoding="UTF-8"?>
<svg id="Layer_2" data-name="Layer 2" xmlns="http://www.w3.org/2000/svg" xmlns:xlink="http://www.w3.org/1999/xlink" viewBox="0 0 50.76 50.78">
  <defs>
    <style>
      .cls-1 {
        fill: url(#linear-gradient-2);
      }

      .cls-2 {
        fill: #ac7c39;
      }

      .cls-3 {
        fill: url(#linear-gradient-3);
      }

      .cls-4 {
        fill: url(#linear-gradient);
      }

      .cls-5 {
        fill: url(#linear-gradient-4);
      }
    </style>
    <linearGradient id="linear-gradient" x1="13.38" y1="6.25" x2="19.65" y2="16.16" gradientUnits="userSpaceOnUse">
      <stop offset="0" stop-color="#262a62"/>
      <stop offset=".16" stop-color="#403372"/>
      <stop offset=".34" stop-color="#583c81"/>
      <stop offset=".53" stop-color="#69428c"/>
      <stop offset=".74" stop-color="#734592"/>
      <stop offset="1" stop-color="#774795"/>
    </linearGradient>
    <linearGradient id="linear-gradient-2" x1="7.45" y1="16.13" x2="27.88" y2="21.05" gradientUnits="userSpaceOnUse">
      <stop offset="0" stop-color="#262a62"/>
      <stop offset=".08" stop-color="#35335d"/>
      <stop offset=".39" stop-color="#68524d"/>
      <stop offset=".65" stop-color="#8d6942"/>
      <stop offset=".86" stop-color="#a3763b"/>
      <stop offset="1" stop-color="#ac7c39"/>
    </linearGradient>
    <linearGradient id="linear-gradient-3" x1="-986.31" y1="-272.95" x2="-980.04" y2="-263.04" gradientTransform="translate(-948.93 -228.42) rotate(-180)" xlink:href="#linear-gradient"/>
    <linearGradient id="linear-gradient-4" x1="-991.69" y1="-262.94" x2="-971.26" y2="-258.02" gradientTransform="translate(-948.93 -228.42) rotate(-180)" gradientUnits="userSpaceOnUse">
      <stop offset="0" stop-color="#262a62"/>
      <stop offset=".06" stop-color="#31305e"/>
      <stop offset=".47" stop-color="#73594a"/>
      <stop offset=".76" stop-color="#9c723d"/>
      <stop offset=".91" stop-color="#ac7c39"/>
    </linearGradient>
  </defs>
  <g id="Layer_1-2" data-name="Layer 1">
    <g>
      <path class="cls-4" d="m45.95,11.13l-11.03,6.37c-.13.07-.29.04-.38-.07-.2-.24-.42-.47-.64-.69-.18-.18-.36-.35-.54-.51-.52-.46-1.07-.87-1.65-1.22-.13-.08-.27-.16-.41-.24-.96-.54-1.98-.95-3.05-1.21-1.06-.26-2.16-.39-3.26-.36-.27,0-.54.02-.81.05-.8.07-1.59.23-2.37.47-.87.26-1.72.63-2.54,1.1-.12.07-.25.15-.37.22-.92.57-1.74,1.25-2.44,2.01-.73.78-1.34,1.65-1.83,2.57-.49.93-.86,1.91-1.1,2.92-.23,1-.34,2.03-.32,3.06,0,.03,0,.05,0,.08.02.68.1,1.36.24,2.04.06.32.14.63.23.94.07.23.14.46.22.69.05.14,0,.29-.13.36l-3.16,1.82c-.16.09-.36.02-.43-.15-.2-.49-.37-.98-.51-1.48-.01-.05-.03-.1-.04-.15-.17-.58-.3-1.17-.4-1.77-.13-.79-.2-1.58-.22-2.38-.02-1.4.13-2.79.46-4.14.33-1.37.84-2.69,1.52-3.94.67-1.24,1.51-2.4,2.5-3.44.96-1.01,2.07-1.92,3.31-2.68.12-.07.24-.15.37-.22,1.14-.66,2.34-1.17,3.55-1.52.4-.12.8-.22,1.21-.31,1.01-.22,2.04-.33,3.06-.35,1.47-.03,2.93.14,4.35.5,1.41.36,2.78.91,4.06,1.63.8.46,1.57.98,2.29,1.58l4.26-2.46c-1.28-1.24-2.7-2.3-4.21-3.17-1.63-.93-3.38-1.64-5.19-2.1-1.81-.47-3.68-.69-5.56-.66-1.83.03-3.67.29-5.48.82,0,0,0,0-.01,0-1.6.46-3.16,1.12-4.67,1.99-.12.07-.25.14-.37.22-1.61.97-3.04,2.13-4.28,3.42-1.28,1.34-2.37,2.82-3.24,4.41-.88,1.6-1.54,3.3-1.98,5.07-.43,1.74-.64,3.54-.62,5.35.02,1.61.23,3.24.63,4.83.04.17.09.35.14.52.12.45.27.89.42,1.33.18.51.38,1.01.6,1.51.06.14.01.31-.12.38l-3.28,1.89c-.15.09-.35.03-.42-.13-.22-.48-.42-.96-.61-1.44-.23-.6-.44-1.2-.62-1.81-.06-.2-.12-.4-.17-.6C.32,29.94.02,27.76,0,25.6c-.02-2.19.25-4.37.78-6.47.54-2.12,1.35-4.18,2.42-6.1,1.06-1.91,2.38-3.7,3.93-5.3,1.51-1.55,3.24-2.94,5.18-4.1.12-.07.25-.15.37-.22,1.49-.86,3.04-1.56,4.62-2.08.37-.12.73-.24,1.1-.34C20.58.35,22.79.03,25,0c2.26-.03,4.5.24,6.67.8,2.17.56,4.27,1.4,6.24,2.52,1.93,1.1,3.74,2.46,5.35,4.07.2.2.4.4.59.61.43.46.85.95,1.26,1.45.33.4.64.82.94,1.25.1.14.06.34-.1.43Z"/>
      <path class="cls-1" d="m45.95,11.13l-11.03,6.37c-.13.07-.29.04-.38-.07-.2-.24-.42-.47-.64-.69-.18-.18-.36-.35-.54-.51-.52-.46-1.07-.87-1.65-1.22-.13-.08-.27-.16-.41-.24-.96-.54-1.98-.95-3.05-1.21-1.06-.26-2.16-.39-3.26-.36-.27,0-.54.02-.81.05-.8.07-1.59.23-2.37.47-.87.26-1.72.63-2.54,1.1-.12.07-.25.15-.37.22-.92.57-1.74,1.25-2.44,2.01-.73.78-1.34,1.65-1.83,2.57-.49.93-.86,1.91-1.1,2.92-.23,1-.34,2.03-.32,3.06,0,.03,0,.05,0,.08.02.68.1,1.36.24,2.04.06.32.14.63.23.94.07.23.14.46.22.69.05.14,0,.29-.13.36l-3.16,1.82c-.16.09-.36.02-.43-.15-.2-.49-.37-.98-.51-1.48-.01-.05-.03-.1-.04-.15-.17-.58-.3-1.17-.4-1.77-.13-.79-.2-1.58-.22-2.38-.02-1.4.13-2.79.46-4.14.33-1.37.84-2.69,1.52-3.94.67-1.24,1.51-2.4,2.5-3.44.96-1.01,2.07-1.92,3.31-2.68.12-.07.24-.15.37-.22,1.14-.66,2.34-1.17,3.55-1.52.4-.12.8-.22,1.21-.31,1.01-.22,2.04-.33,3.06-.35,1.47-.03,2.93.14,4.35.5,1.41.36,2.78.91,4.06,1.63.8.46,1.57.98,2.29,1.58l4.26-2.46c-1.28-1.24-2.7-2.3-4.21-3.17-1.63-.93-3.38-1.64-5.19-2.1-1.81-.47-3.68-.69-5.56-.66-1.83.03-3.67.29-5.48.82,0,0,0,0-.01,0-1.6.46-3.16,1.12-4.67,1.99-.12.07-.25.14-.37.22-1.61.97-3.04,2.13-4.28,3.42-1.28,1.34-2.37,2.82-3.24,4.41-.88,1.6-1.54,3.3-1.98,5.07-.43,1.74-.64,3.54-.62,5.35.02,1.61.23,3.24.63,4.83.04.17.09.35.14.52.12.45.27.89.42,1.33.18.51.38,1.01.6,1.51.06.14.01.31-.12.38l-3.28,1.89c-.15.09-.35.03-.42-.13-.22-.48-.42-.96-.61-1.44-.23-.6-.44-1.2-.62-1.81-.06-.2-.12-.4-.17-.6C.32,29.94.02,27.76,0,25.6c-.02-2.19.25-4.37.78-6.47.54-2.12,1.35-4.18,2.42-6.1,1.06-1.91,2.38-3.7,3.93-5.3,1.51-1.55,3.24-2.94,5.18-4.1.12-.07.25-.15.37-.22,1.49-.86,3.04-1.56,4.62-2.08.37-.12.73-.24,1.1-.34C20.58.35,22.79.03,25,0c2.26-.03,4.5.24,6.67.8,2.17.56,4.27,1.4,6.24,2.52,1.93,1.1,3.74,2.46,5.35,4.07.2.2.4.4.59.61.43.46.85.95,1.26,1.45.33.4.64.82.94,1.25.1.14.06.34-.1.43Z"/>
      <path class="cls-2" d="m34.82,17.03c-.05.24-.35.33-.51.14-.13-.15-.27-.29-.41-.43-.18-.18-.36-.35-.54-.51-.52-.46-1.07-.87-1.65-1.22-.13-.08-.27-.16-.41-.24-.96-.54-1.98-.95-3.05-1.21-1.06-.26-2.16-.39-3.26-.36-.27,0-.54.02-.81.05-.8.07-1.59.23-2.37.47-.87.26-1.72.63-2.54,1.1-.12.07-.25.15-.37.22-.92.57-1.74,1.25-2.44,2.01-.73.78-1.34,1.65-1.83,2.57-.49.93-.86,1.91-1.1,2.92-.23,1-.34,2.03-.32,3.06,0,.03,0,.05,0,.08.02.68.1,1.36.24,2.04.06.32.14.63.23.94.07.23.14.46.22.69.05.14,0,.29-.13.36l-3.16,1.82c-.16.09-.36.02-.43-.15-.2-.49-.37-.98-.51-1.48-.01-.05-.03-.1-.04-.15-.17-.58-.3-1.17-.4-1.77-.13-.79-.2-1.58-.22-2.38-.02-1.4.13-2.79.46-4.14.33-1.37.84-2.69,1.52-3.94.67-1.24,1.51-2.4,2.5-3.44.96-1.01,2.07-1.92,3.31-2.68.12-.07.24-.15.37-.22,1.14-.66,2.34-1.17,3.55-1.52.4-.12.8-.22,1.21-.31,1.01-.22,2.04-.33,3.06-.35,1.47-.03,2.93.14,4.35.5,1.41.36,2.78.91,4.06,1.63.8.46,1.57.98,2.29,1.58l-.87,4.32Z"/>
      <path class="cls-3" d="m4.8,39.65l11.03-6.37c.13-.07.29-.04.38.07.2.24.42.47.64.69.18.18.36.35.54.51.52.46,1.07.87,1.65,1.22.13.08.27.16.41.24.96.54,1.98.95,3.05,1.21,1.06.26,2.16.39,3.26.36.27,0,.54-.02.81-.05.8-.07,1.59-.23,2.37-.47.87-.26,1.72-.63,2.54-1.1.12-.07.25-.15.37-.22.92-.57,1.74-1.25,2.44-2.01.73-.78,1.34-1.65,1.83-2.57.49-.93.86-1.91,1.1-2.92.23-1,.34-2.03.32-3.06,0-.03,0-.05,0-.08-.02-.68-.1-1.36-.24-2.04-.06-.32-.14-.63-.23-.94-.07-.23-.14-.46-.22-.69-.05-.14,0-.29.13-.36l3.16-1.82c.16-.09.36-.02.43.15.2.49.37.98.51,1.48.01.05.03.1.04.15.17.58.3,1.17.4,1.77.13.79.2,1.58.22,2.38.02,1.4-.13,2.79-.46,4.14-.33,1.37-.84,2.69-1.52,3.94-.67,1.24-1.51,2.4-2.5,3.44-.96,1.01-2.07,1.92-3.31,2.68-.12.07-.24.15-.37.22-1.14.66-2.34,1.17-3.55,1.52-.4.12-.8.22-1.21.31-1.01.22-2.04.33-3.06.35-1.47.03-2.93-.14-4.35-.5-1.41-.36-2.78-.91-4.06-1.63-.8-.46-1.57-.98-2.29-1.58l-4.26,2.46c1.28,1.24,2.7,2.3,4.21,3.17,1.63.93,3.38,1.64,5.19,2.1,1.81.47,3.68.69,5.56.66,1.83-.03,3.67-.29,5.48-.82,0,0,0,0,.01,0,1.6-.46,3.16-1.12,4.67-1.99.12-.07.25-.14.37-.22,1.61-.97,3.04-2.13,4.28-3.42,1.28-1.34,2.37-2.82,3.24-4.41.88-1.6,1.54-3.3,1.98-5.07.43-1.74.64-3.54.62-5.35-.02-1.61-.23-3.24-.63-4.83-.04-.17-.09-.35-.14-.52-.12-.45-.27-.89-.42-1.33-.18-.51-.38-1.01-.6-1.51-.06-.14-.01-.31.12-.38l3.28-1.89c.15-.09.35-.03.42.13.22.48.42.96.61,1.44.23.6.44,1.2.62,1.81.06.2.12.4.17.6.59,2.14.89,4.32.9,6.48.02,2.19-.25,4.37-.78,6.47-.54,2.12-1.35,4.18-2.42,6.1-1.06,1.91-2.38,3.7-3.93,5.3-1.51,1.55-3.24,2.94-5.18,4.1-.12.07-.25.15-.37.22-1.49.86-3.04,1.56-4.62,2.08-.37.12-.73.24-1.1.34-2.17.62-4.39.94-6.6.97-2.26.03-4.5-.24-6.67-.8-2.17-.56-4.27-1.4-6.24-2.52-1.93-1.1-3.74-2.46-5.35-4.07-.2-.2-.4-.4-.59-.61-.43-.46-.85-.95-1.26-1.45-.33-.4-.64-.82-.94-1.25-.1-.14-.06-.34.1-.43Z"/>
      <path class="cls-5" d="m4.8,39.65l11.03-6.37c.13-.07.29-.04.38.07.2.24.42.47.64.69.18.18.36.35.54.51.52.46,1.07.87,1.65,1.22.13.08.27.16.41.24.96.54,1.98.95,3.05,1.21,1.06.26,2.16.39,3.26.36.27,0,.54-.02.81-.05.8-.07,1.59-.23,2.37-.47.87-.26,1.72-.63,2.54-1.1.12-.07.25-.15.37-.22.92-.57,1.74-1.25,2.44-2.01.73-.78,1.34-1.65,1.83-2.57.49-.93.86-1.91,1.1-2.92.23-1,.34-2.03.32-3.06,0-.03,0-.05,0-.08-.02-.68-.1-1.36-.24-2.04-.06-.32-.14-.63-.23-.94-.07-.23-.14-.46-.22-.69-.05-.14,0-.29.13-.36l3.16-1.82c.16-.09.36-.02.43.15.2.49.37.98.51,1.48.01.05.03.1.04.15.17.58.3,1.17.4,1.77.13.79.2,1.58.22,2.38.02,1.4-.13,2.79-.46,4.14-.33,1.37-.84,2.69-1.52,3.94-.67,1.24-1.51,2.4-2.5,3.44-.96,1.01-2.07,1.92-3.31,2.68-.12.07-.24.15-.37.22-1.14.66-2.34,1.17-3.55,1.52-.4.12-.8.22-1.21.31-1.01.22-2.04.33-3.06.35-1.47.03-2.93-.14-4.35-.5-1.41-.36-2.78-.91-4.06-1.63-.8-.46-1.57-.98-2.29-1.58l-4.26,2.46c1.28,1.24,2.7,2.3,4.21,3.17,1.63.93,3.38,1.64,5.19,2.1,1.81.47,3.68.69,5.56.66,1.83-.03,3.67-.29,5.48-.82,0,0,0,0,.01,0,1.6-.46,3.16-1.12,4.67-1.99.12-.07.25-.14.37-.22,1.61-.97,3.04-2.13,4.28-3.42,1.28-1.34,2.37-2.82,3.24-4.41.88-1.6,1.54-3.3,1.98-5.07.43-1.74.64-3.54.62-5.35-.02-1.61-.23-3.24-.63-4.83-.04-.17-.09-.35-.14-.52-.12-.45-.27-.89-.42-1.33-.18-.51-.38-1.01-.6-1.51-.06-.14-.01-.31.12-.38l3.28-1.89c.15-.09.35-.03.42.13.22.48.42.96.61,1.44.23.6.44,1.2.62,1.81.06.2.12.4.17.6.59,2.14.89,4.32.9,6.48.02,2.19-.25,4.37-.78,6.47-.54,2.12-1.35,4.18-2.42,6.1-1.06,1.91-2.38,3.7-3.93,5.3-1.51,1.55-3.24,2.94-5.18,4.1-.12.07-.25.15-.37.22-1.49.86-3.04,1.56-4.62,2.08-.37.12-.73.24-1.1.34-2.17.62-4.39.94-6.6.97-2.26.03-4.5-.24-6.67-.8-2.17-.56-4.27-1.4-6.24-2.52-1.93-1.1-3.74-2.46-5.35-4.07-.2-.2-.4-.4-.59-.61-.43-.46-.85-.95-1.26-1.45-.33-.4-.64-.82-.94-1.25-.1-.14-.06-.34.1-.43Z"/>
      <path class="cls-2" d="m15.93,33.75c.05-.24.35-.33.51-.14.13.15.27.29.41.43.18.18.36.35.54.51.52.46,1.07.87,1.65,1.22.13.08.27.16.41.24.96.54,1.98.95,3.05,1.21,1.06.26,2.16.39,3.26.36.27,0,.54-.02.81-.05.8-.07,1.59-.23,2.37-.47.87-.26,1.72-.63,2.54-1.1.12-.07.25-.15.37-.22.92-.57,1.74-1.25,2.44-2.01.73-.78,1.34-1.65,1.83-2.57.49-.93.86-1.91,1.1-2.92.23-1,.34-2.03.32-3.06,0-.03,0-.05,0-.08-.02-.68-.1-1.36-.24-2.04-.06-.32-.14-.63-.23-.94-.07-.23-.14-.46-.22-.69-.05-.14,0-.29.13-.36l3.16-1.82c.16-.09.36-.02.43.15.2.49.37.98.51,1.48.01.05.03.1.04.15.17.58.3,1.17.4,1.77.13.79.2,1.58.22,2.38.02,1.4-.13,2.79-.46,4.14-.33,1.37-.84,2.69-1.52,3.94-.67,1.24-1.51,2.4-2.5,3.44-.96,1.01-2.07,1.92-3.31,2.68-.12.07-.24.15-.37.22-1.14.66-2.34,1.17-3.55,1.52-.4.12-.8.22-1.21.31-1.01.22-2.04.33-3.06.35-1.47.03-2.93-.14-4.35-.5-1.41-.36-2.78-.91-4.06-1.63-.8-.46-1.57-.98-2.29-1.58l.87-4.32Z"/>
      <g>
        <path class="cls-2" d="m23.35,28.67l-4.68.51s-.02-.03-.02-.04l2.78-3.8-2.78-3.8s.02-.03.03-.04l4.68.51,1.9-4.31s.03,0,.05,0l1.9,4.31,4.68-.51c-.98-1.68-2.6-2.99-4.63-3.54-4.08-1.09-8.27,1.33-9.36,5.4s1.33,8.27,5.4,9.36c.65.18,1.31.26,1.96.26l-1.9-4.31Z"/>
        <path class="cls-2" d="m31.88,21.49s.02.03.02.04c0-.01-.02-.03-.02-.04Z"/>
        <path class="cls-2" d="m31.9,21.54l-2.78,3.8,2.78,3.8s0,.02-.01.02c.33-.57.59-1.18.76-1.84.54-2.03.22-4.09-.75-5.78Z"/>
        <path class="cls-2" d="m27.2,28.67l-1.9,4.31s-.02,0-.04,0c2.72,0,5.25-1.45,6.62-3.8l-4.68-.51Z"/>
      </g>
    </g>
  </g>
</svg>