<?xml version="1.0" encoding="UTF-8"?>
<svg id="Layer_2" data-name="Layer 2" xmlns="http://www.w3.org/2000/svg" viewBox="0 0 163.76 44.81">
  <defs>
    <style>
      .cls-1 {
        fill: #fff;
      }
    </style>
  </defs>
  <g id="Layer_4" data-name="Layer 4">
    <g>
      <g>
        <path class="cls-1" d="m8.31,38.27l-2.74-.57v-.21c0-.25.08-.45.24-.61.16-.16.36-.26.6-.29l2.71-.34-.35-2.37-2.35.31c-.44.06-.84.19-1.2.38-.36.2-.66.44-.92.74-.26.29-.45.63-.59,1.01-.14.38-.21.77-.21,1.18v1.87l4.22.99v.24c0,.25-.09.47-.26.65s-.39.26-.65.26h-3.31c-.38,0-.71-.13-.98-.4-.27-.26-.4-.59-.4-.99v-3.04H0v3.35c0,.5.09.97.28,1.4.19.44.44.82.76,1.14.32.32.7.58,1.14.76.44.19.9.28,1.4.28h2.93c.46,0,.89-.09,1.29-.26s.75-.41,1.06-.71c.3-.3.54-.65.71-1.06.17-.41.26-.84.26-1.3v-.44c0-.47-.14-.89-.42-1.26-.28-.37-.65-.61-1.11-.71Z"/>
        <path class="cls-1" d="m13.66,40.53c0,.34-.1.65-.29.92s-.46.46-.78.57l-2.4.82.63,1.96,2.32-.79c.39-.13.75-.31,1.07-.56.32-.25.6-.53.83-.85.23-.32.41-.68.54-1.07s.19-.79.19-1.21v-5.22h-2.12v5.44Z"/>
        <rect class="cls-1" x="17.32" y="30.53" width="2.12" height="10.38"/>
        <rect class="cls-1" x="24.21" y="29.44" width="1.91" height="1.99"/>
        <polygon class="cls-1" points="34.38 30 33.41 29.03 29.59 33.52 30.68 34.34 34.38 30"/>
        <path class="cls-1" d="m41.98,35.18c-.24-.25-.53-.44-.87-.58-.33-.14-.69-.21-1.06-.21h-5.43l2.74-3.24-1.51-1.41-4.71,5.51,1.53,1.46h7.63c.09,0,.17.03.24.1.07.06.1.14.1.24v1.07c0,.1-.03.17-.1.22-.06.05-.12.07-.17.07h-11.41s-.03.01-.05.02c-.01,0-.02-.02-.03-.02h-.41c-.11,0-.21-.03-.29-.1-.09-.06-.15-.15-.18-.26l-1.57-5.6-2.01.74,1.25,4.48c.06.23,0,.4-.15.54-.16.13-.34.2-.54.2h-2.12c-.17,0-.25-.08-.25-.24v-1.71h-1.76v2.21c0,.3.06.59.18.87.12.27.28.51.49.71.21.2.45.36.72.48.27.12.56.18.87.18h1.85c.35,0,.69-.06,1.01-.17.32-.11.62-.31.9-.6.21.2.46.37.76.53.3.16.65.24,1.05.24h.22s.03-.02.04-.02c.02,0,.03.02.04.02h11c.36,0,.71-.07,1.05-.2.34-.13.64-.32.9-.57s.47-.53.63-.87.24-.7.24-1.09v-1.09c0-.38-.07-.74-.21-1.07s-.34-.62-.58-.86Z"/>
        <path class="cls-1" d="m57.16,38c0,.11-.04.2-.12.29s-.18.12-.29.12h-3.68c-.16,0-.29-.05-.4-.15-.11-.1-.16-.22-.16-.35v-5.48h-2.13v1.01l-1.81.41c-.32.07-.62.2-.9.39-.27.19-.51.41-.7.67-.19.25-.34.53-.45.83-.11.3-.16.6-.16.9v.93c0,.28.06.56.19.83.13.27.3.51.51.71s.45.37.73.5c.27.13.55.19.84.19h.99c.18,0,.38-.02.63-.07s.43-.12.57-.22c.26.42.56.76.93,1.01s.81.38,1.34.38h3.28c.4,0,.78-.08,1.14-.23.36-.15.67-.36.93-.62.26-.26.47-.58.62-.93s.23-.74.23-1.14v-3.35h-2.12v3.37Zm-6.78-.62h-1.91v-.62c0-.21.06-.38.19-.53.13-.15.29-.25.49-.29l1.24-.28v1.72Z"/>
        <polygon class="cls-1" points="53.71 42.68 53.71 44.66 55.63 44.66 57.54 44.66 57.54 42.68 55.63 42.68 53.71 42.68"/>
        <path class="cls-1" d="m70.49,40.26c.2-.2.36-.43.48-.7.12-.26.18-.54.18-.82v-1.63c0-.37-.07-.73-.21-1.06-.14-.33-.34-.62-.58-.87-.25-.25-.53-.44-.86-.58-.33-.14-.68-.21-1.05-.21h-.82c-.3,0-.6.05-.88.15-.28.1-.54.25-.77.43-.23.19-.42.41-.57.67-.15.26-.26.54-.32.85l-.29,1.53c-.04.12-.1.21-.18.29s-.19.11-.32.11h-1.06c-.12,0-.22-.04-.29-.12-.08-.08-.12-.18-.12-.29v-7.48h-2.13v7.53c0,.39.08.76.23,1.12.15.35.35.66.61.91.25.25.56.46.91.61.35.15.72.23,1.12.23h.59c.3,0,.59-.06.87-.17.27-.11.53-.31.77-.6.24.31.5.52.77.62.27.1.54.15.82.15h1.62c.29,0,.57-.06.83-.18.26-.12.49-.28.69-.48Zm-1.46-1.85h-1.96c-.06,0-.11-.02-.14-.06s-.04-.08-.02-.13l.22-1.19s.05-.1.1-.14.1-.07.17-.07h1.37c.08,0,.14.03.18.08.04.05.07.12.08.18v1.32Z"/>
        <path class="cls-1" d="m84.42,38.41h-1.24c-.13,0-.23-.05-.32-.16-.08-.11-.11-.23-.07-.35l.5-2.46-2.16-.37-.59,2.93c-.07.27-.24.41-.51.41h-.5c-.12,0-.22-.04-.29-.13-.08-.09-.12-.19-.12-.31v-2.9h-2.12v2.9c0,.11-.04.21-.13.3-.08.09-.18.14-.29.14h-.68s0,0,0,0c0,0,0,0,0,0h-.65c-.11,0-.2-.03-.27-.09s-.11-.14-.11-.25v-3.01h-2.13v5.43c0,.34-.1.65-.29.93-.19.27-.45.47-.79.57l-2.4.82.65,1.96,2.31-.79c.37-.13.72-.29,1.04-.49.32-.2.6-.43.84-.69s.42-.56.55-.89.2-.69.2-1.08v-.22c.08.08.19.15.35.21.15.06.29.1.4.1h.29s0,0,0,0c0,0,0,0,0,0h.29c.34,0,.67-.06.99-.18s.61-.31.86-.57c.25.26.54.46.85.57s.64.18.99.18c.31,0,.61-.05.89-.16.28-.11.55-.3.8-.59.23.28.47.48.74.59.26.11.54.16.84.16h1.18c.29,0,.57-.06.84-.18s.5-.28.7-.48.36-.43.48-.7c.12-.26.18-.54.18-.82v-4.04h-2.12v3.72Z"/>
        <path class="cls-1" d="m95.64,35.18c-.25-.25-.53-.44-.87-.58-.33-.14-.69-.21-1.06-.21h-.81c-.31,0-.61.05-.9.16-.28.11-.54.26-.77.44-.23.19-.41.41-.57.66-.15.25-.26.53-.32.84l-.26,1.35c-.08.39-.07.77.04,1.14.1.37.27.69.51.98.24.28.53.51.87.69.35.18.72.26,1.13.26h.54c.2,0,.39-.02.6-.07.2-.04.37-.11.51-.18v.07c0,.34-.11.62-.32.84-.21.22-.48.38-.8.49l-2.32.79.63,1.96,2.32-.79c.39-.14.75-.33,1.07-.57.32-.25.6-.53.83-.85.23-.32.41-.68.54-1.06s.19-.78.19-1.21v-3.22c0-.37-.07-.73-.21-1.06-.14-.33-.34-.62-.58-.87Zm-1.32,3.23h-1.97s-.09-.02-.13-.06c-.03-.04-.05-.08-.04-.13l.24-1.19c.05-.15.13-.22.25-.21h1.38c.16.02.24.11.26.26v1.32Z"/>
        <path class="cls-1" d="m111.23,38.02c0,.12-.04.21-.12.29s-.18.11-.29.11h-6.32v2.5h2.97v.09c0,.25-.09.46-.26.62s-.39.24-.65.24h-2.88c-.19,0-.37-.04-.54-.11-.17-.07-.32-.17-.45-.29s-.23-.27-.3-.44c-.07-.17-.11-.35-.11-.54v-3.88h-2.13v4.18c0,.5.1.97.29,1.4.19.44.45.82.77,1.14.32.32.7.58,1.14.76.44.19.9.28,1.4.28h2.51c.46,0,.89-.08,1.29-.24s.75-.38,1.06-.66c.3-.28.54-.61.71-1,.17-.39.26-.81.26-1.27v-.04c0-.12-.01-.19-.04-.22h.88c.4,0,.78-.08,1.14-.23.36-.15.67-.36.93-.62.26-.26.47-.58.63-.93.15-.36.23-.74.23-1.14v-7.47h-2.12v7.5Z"/>
        <path class="cls-1" d="m124.43,35.18c-.25-.25-.53-.44-.86-.58-.33-.14-.68-.21-1.05-.21h-.82c-.3,0-.6.05-.88.15-.28.1-.54.25-.77.43-.23.19-.42.41-.57.67-.15.26-.26.54-.32.85l-.29,1.53c-.04.12-.1.21-.18.29-.08.07-.19.11-.32.11h-1.06c-.12,0-.22-.04-.29-.12-.08-.08-.12-.18-.12-.29v-7.48h-2.13v7.53c0,.39.08.76.23,1.12.15.35.35.66.61.91.25.25.56.46.91.61.35.15.72.23,1.12.23h.59c.3,0,.59-.06.87-.17.27-.11.53-.31.77-.6.24.31.5.52.77.62.27.1.54.15.82.15h1.62c.29,0,.57-.06.83-.18s.49-.28.69-.48c.2-.2.36-.43.48-.7.12-.26.18-.54.18-.82v-1.63c0-.37-.07-.73-.21-1.06-.14-.33-.34-.62-.58-.87Zm-1.32,3.23h-1.96c-.06,0-.11-.02-.14-.06s-.04-.08-.02-.13l.22-1.19s.05-.1.1-.14.1-.07.17-.07h1.37c.08,0,.14.03.18.08.04.05.07.12.08.18v1.32Z"/>
        <path class="cls-1" d="m135.01,36.41c-.1-.2-.23-.39-.39-.59-.16-.2-.37-.38-.64-.54-.69-.45-1.3-.85-1.84-1.21-.23-.15-.45-.29-.67-.43-.22-.14-.42-.27-.59-.38-.17-.11-.37-.24-.58-.37l-1.13,1.71,1.01.68-.04.03s-.04,0-.06.03c-.32.18-.62.46-.87.86-.26.4-.39.87-.4,1.4v.43c0,.31.06.65.18,1.01.12.36.3.69.55.99.25.3.56.56.94.76.38.2.83.3,1.36.3h.31c.57,0,1.05-.1,1.44-.3.39-.2.71-.45.96-.76.25-.3.43-.63.54-.99.11-.36.17-.7.17-1.02v-.46c0-.17-.02-.35-.05-.54-.03-.2-.1-.39-.2-.59Zm-1.88,1.71s0,.06-.02.11c-.01.05-.04.11-.09.17-.04.06-.11.11-.2.16s-.21.07-.35.07h-.9c-.12,0-.22,0-.3-.06s-.15-.11-.21-.18c-.05-.07-.09-.14-.11-.21-.02-.07-.03-.12-.03-.15v-.62c0-.13.03-.22.1-.28.06-.06.12-.1.15-.13l.68-.59c.14.09.26.17.38.25.11.07.22.14.33.2.11.06.2.12.27.15.14.08.22.16.25.26.03.09.04.16.04.21v.62Z"/>
        <path class="cls-1" d="m142.17,35.18c-.25-.25-.53-.44-.87-.58-.33-.14-.69-.21-1.06-.21h-.81c-.31,0-.61.05-.9.16-.28.11-.54.26-.77.44-.23.19-.41.41-.57.66-.15.25-.26.53-.32.84l-.26,1.35c-.08.39-.07.77.04,1.14.1.37.27.69.51.98.24.28.53.51.87.69.35.18.72.26,1.13.26h.54c.2,0,.39-.02.6-.07.2-.04.37-.11.51-.18v.07c0,.34-.11.62-.32.84-.21.22-.48.38-.8.49l-2.32.79.63,1.96,2.32-.79c.39-.14.75-.33,1.07-.57.32-.25.6-.53.83-.85.23-.32.41-.68.54-1.06s.19-.78.19-1.21v-3.22c0-.37-.07-.73-.21-1.06-.14-.33-.34-.62-.58-.87Zm-1.32,3.23h-1.97s-.09-.02-.13-.06c-.03-.04-.05-.08-.04-.13l.24-1.19c.05-.15.13-.22.25-.21h1.38c.16.02.24.11.26.26v1.32Z"/>
        <polygon class="cls-1" points="155.36 30 154.39 29.03 150.57 33.52 151.66 34.34 155.36 30"/>
        <path class="cls-1" d="m163.54,36.04c-.14-.33-.34-.62-.58-.86-.24-.25-.53-.44-.87-.58-.33-.14-.69-.21-1.06-.21h-5.43l2.74-3.24-1.51-1.41-4.71,5.51,1.53,1.46h7.63c.09,0,.17.03.24.1.07.06.1.14.1.24v1.07c0,.1-.03.17-.1.22-.06.05-.12.07-.17.07h-12.06c-.11,0-.2-.03-.27-.09s-.11-.14-.11-.25v-3.01h-2.13v5.43c0,.34-.1.65-.29.93-.19.27-.45.47-.79.57l-2.4.82.65,1.96,2.31-.79c.37-.13.72-.29,1.04-.49.32-.2.6-.43.84-.69.24-.26.42-.56.55-.89.13-.33.2-.69.2-1.08v-.22c.08.08.19.15.35.21.15.06.29.1.4.1h11.29c.36,0,.71-.07,1.05-.2.34-.13.64-.32.9-.57s.47-.53.63-.87.24-.7.24-1.09v-1.09c0-.38-.07-.74-.21-1.07Z"/>
      </g>
      <g>
        <path class="cls-1" d="m46.93,7.69c0-.59-.48-1.06-1.07-1.06h-2.58c-.59,0-1.07.48-1.07,1.07v5.53c0,.59-.48,1.07-1.07,1.07h-11.26s-.01-2.97-.01-2.97v-.15c-.04-.41-.11-.8-.21-1.18-.46-1.73-1.58-3.19-3.08-4.09-.01,0-.03-.02-.05-.03-1.01-.6-2.2-.95-3.47-.95s-2.52.37-3.56,1h0s0,0,0,0c-.02.01-.03.02-.05.03-.44.27-.85.6-1.21.97-.29.29-.55.6-.78.93-.61.88-1.02,1.91-1.16,3.02t0,.02s0,.04,0,.06c0,.05-.01.09-.02.14-.02.21-.03.43-.03.64,0,.23.02.46.04.68,0,.02,0,.03,0,.05,0,.05.01.1.02.15,0,.02,0,.04,0,.06,0,.01,0,.02,0,.03,0,.04.01.09.02.13.41,2.58,2.28,4.68,4.73,5.43.3.09.61.16.93.21.1.02,3.13.02,3.13.02l-.05,1.09c-.03.57-.5,1.02-1.07,1.02l-6.69-.02c-.59,0-1.07.48-1.07,1.07v2.09c0,.59.48,1.07,1.07,1.07h7.5c3.4,0,5.11-1.57,5.11-4.71v-1.6c3.27,0,11.94-.02,11.94-.02,3.4,0,5.11-1.57,5.11-4.71l-.04-6.11Zm-21.89,5.92c-.06.07-.12.13-.2.19-.03.03-.07.06-.1.09-.23.18-.49.32-.77.42-.04.02-.08.03-.11.04-.08.03-.16.05-.24.06-.07.02-.15.03-.22.04-.02,0-.03,0-.05,0-.09.01-.18.02-.27.02-.08,0-.17,0-.24-.02-.02,0-.05,0-.07,0-.07,0-.13-.02-.19-.03-.03,0-.05,0-.08-.02-.07-.01-.14-.03-.2-.05,0,0-.02,0-.03,0-.05-.02-.1-.03-.15-.06,0,0-.01,0-.02,0-.05-.02-.09-.03-.13-.06-.13-.06-.26-.12-.38-.21-.06-.04-.11-.08-.17-.12-.06-.05-.12-.1-.18-.15l-.07-.07s-.02-.02-.03-.03c-.03-.03-.07-.07-.1-.11-.08-.09-.15-.18-.22-.29-.03-.05-.06-.09-.08-.14-.01-.02-.02-.03-.02-.04-.01-.02-.02-.04-.03-.06-.07-.14-.13-.28-.18-.44,0-.01,0-.02-.01-.03-.04-.12-.06-.25-.08-.38h0s0-.03,0-.04c0-.02,0-.04,0-.06v-.02c-.01-.09-.02-.18-.02-.27,0-.08,0-.17.01-.25,0,0,0-.02,0-.02,0-.01,0-.02,0-.03v-.03h0c0-.08.02-.14.03-.21,0-.05.02-.1.04-.15.01-.05.03-.11.05-.15h0c.02-.06.03-.1.05-.15,0,0,0-.01,0-.02.02-.05.05-.11.07-.16.04-.08.08-.15.12-.23.05-.07.09-.14.14-.21.05-.07.1-.13.15-.19.05-.06.11-.12.17-.17,0-.01.01-.02.02-.02.05-.05.1-.09.15-.13.08-.06.16-.12.25-.17h0s0,0,0,0c.01,0,.02-.02.04-.02.03-.02.06-.04.09-.06.06-.03.12-.06.18-.09.04-.02.08-.03.11-.05.07-.03.14-.06.21-.08.06-.02.12-.03.18-.05.12-.03.23-.05.36-.06.06,0,.13-.01.2-.01h.03c.08,0,.16,0,.24.01.02,0,.05,0,.07,0,.08,0,.16.02.24.04.08.02.15.03.23.06.04.02.08.03.12.04.06.02.11.04.17.06.05.02.11.05.16.08.05.03.11.05.15.08,0,0,.01,0,.02,0,.02.01.04.02.06.04.14.09.26.18.38.3.05.05.1.09.14.14.01.01.02.02.03.03.04.04.07.08.11.12.08.09.15.2.21.31.03.04.05.08.07.12.08.16.15.33.2.5,0,.02.01.03.02.05.02.09.05.18.06.28,0,.04.02.08.02.12v.02s0,.02,0,.03,0,.02,0,.03c0,.03,0,.07,0,.11,0,.03,0,.07,0,.1,0,.03,0,.06,0,.09,0,.03,0,.06,0,.09,0,.03,0,.05,0,.07,0,0,0,.01,0,.02,0,.09-.02.18-.04.27-.01.07-.03.14-.05.21,0,.01,0,.03-.01.04,0,.02,0,.03-.01.03-.02.08-.05.15-.08.23-.03.06-.05.12-.08.18-.09.18-.2.34-.32.49-.02.03-.05.06-.07.09-.02.02-.03.03-.05.04Z"/>
        <g>
          <path class="cls-1" d="m163.44,1.05c-.01-.58-.49-1.05-1.07-1.05h-2.62c-.59,0-1.07.48-1.07,1.07l.04,15.91v.79c0,.59.49,1.07,1.08,1.06l2.58-.02c.59,0,1.06-.48,1.06-1.07V1.05Z"/>
          <path class="cls-1" d="m156.81,8.47v5.37c0,3.14-1.67,4.71-5.07,4.71h-3.46c-.69,0-1.34-.18-1.95-.53-.45-.26-.87-.63-1.27-1.08-.87,1.17-2.28,1.8-4.24,1.88-.88,0-1.64-.11-2.29-.33-.87-.31-1.62-.83-2.23-1.57-.92,1.19-2.35,1.83-4.3,1.91-.6,0-1.15-.06-1.66-.18-.63-.13-1.19-.36-1.71-.69,0,.29-.12.55-.31.74-.19.19-.45.31-.74.31h-16.9c-.59,0-1.07-.47-1.07-1.06l.03-16.87c0-.59.48-1.07,1.07-1.07h2.57c.59,0,1.07.48,1.07,1.07v12.66c0,.59.48,1.07,1.07,1.07h7.25c.59,0,1.07-.48,1.07-1.07v-5.98c0-.59.48-1.07,1.07-1.07h2.61c.59,0,1.07.47,1.07,1.07v.02s0,4.86,0,4.86c0,1.2.97,2.17,2.17,2.17h.07c1.2,0,2.17-.97,2.17-2.17v-4.88c0-.59.48-1.07,1.07-1.07h2.61c.44,0,.81.26.98.64v5.31c0,1.16.91,2.11,2.06,2.16v.02c.08,0,.15,0,.22-.01,0,0,.01,0,.02,0,1.17-.03,2.11-.98,2.11-2.16v-5.02c.07-.52.52-.93,1.06-.93h2.58c.59,0,1.07.48,1.07,1.07v5.58c0,.59.48,1.07,1.07,1.07h3.33c.59,0,1.07-.48,1.07-1.07v-4.85c0-.59.48-1.07,1.07-1.07h2.58c.59,0,1.07.48,1.07,1.07Z"/>
          <path class="cls-1" d="m14.33,13.84c0,2.49-1.07,4-3.21,4.51-.56.14-1.19.2-1.89.2h-4.94c-1.1,0-2.02-.36-2.78-1.08-.82-.78-1.24-1.84-1.27-3.19l-.03-4.35-.02-2.57s0-4.26,0-6.3C.19.48.67,0,1.26,0h2.56C4.41,0,4.89.48,4.89,1.07v10.82c0,1.34,1.1,2.51,2.44,2.47.63-.02,1.19-.28,1.61-.7.43-.43.69-1.02.69-1.68v-4.37c.06-.52.48-.93,1.02-.93h2.58c.59,0,1.07.47,1.07,1.06l.04,6.1Z"/>
          <rect class="cls-1" x="146.02" y="20.97" width="8.6" height="3.92" rx=".77" ry=".77"/>
          <rect class="cls-1" x="99.12" y="0" width="8.6" height="3.92" rx=".77" ry=".77"/>
          <rect class="cls-1" x="86.07" y="20.97" width="8.6" height="3.92" rx=".77" ry=".77"/>
          <rect class="cls-1" x="2.96" y="20.97" width="8.6" height="3.92" rx=".77" ry=".77"/>
          <path class="cls-1" d="m107.73,8.51v5.34c0,3.14-1.67,4.71-5.07,4.71h-2.08,0c-.74-.03-1.42-.25-2.03-.67-.32-.22-.61-.49-.87-.79h-.05c-.83.98-2.19,1.46-4.09,1.46h-3.84c-.69,0-1.34-.18-1.95-.53-.44-.26-.85-.61-1.24-1.05h-.05c-.87,1.15-2.28,1.77-4.22,1.84-.88,0-1.64-.11-2.29-.33-.86-.3-1.6-.82-2.21-1.54h-.05c-.92,1.17-2.35,1.8-4.28,1.88-.6,0-1.15-.06-1.66-.18-.62-.13-1.19-.36-1.7-.69,0,.02-.01.05-.02.08,0,.09-.03.18-.05.27-.44,2.01-2.34,7.9-9.8,7.9-5.27,0-9.54-4.27-9.54-9.54,0-.08,0-4.04,0-6.2,0-.59.48-1.07,1.07-1.07h2.7c.59,0,1.07.48,1.07,1.07v5.98s0,0,.01.02c.21,2.48,2.28,4.42,4.81,4.42s4.66-2,4.82-4.52h0s.02-.05.02-.05v-7.84c0-.59.48-1.07,1.07-1.07h2.61c.59,0,1.07.47,1.07,1.07v.02s0,4.1,0,4.1c0,.61.24,1.16.64,1.56.39.39.92.63,1.5.64,1.24.03,2.25-1.05,2.25-2.29v-4c0-.61.49-1.1,1.1-1.1h2.58c.43,0,.81.26.98.64h0s0,4.58,0,4.58c0,1.16.91,2.11,2.06,2.16v.02c.08,0,.15,0,.22-.01,0,0,.01,0,.02,0,1.17-.03,2.11-.98,2.11-2.16v-4.3c.07-.52.52-.93,1.06-.93h2.54c.61,0,1.1.49,1.1,1.1v4.78c0,.61.49,1.1,1.1,1.1h3.64c.61,0,1.1-.49,1.1-1.1v-5.51c0-.61.49-1.1,1.1-1.1h2.51c.57,0,1.04.43,1.09.99v4.97c0,1.19.97,2.16,2.16,2.16h.08c1.2,0,2.17-.98,2.17-2.17v-4.12c0-.61.49-1.1,1.1-1.1h2.51c.61,0,1.1.49,1.1,1.1Z"/>
          <rect class="cls-1" x="41.65" y="20.97" width="3.87" height="3.87" rx=".76" ry=".76"/>
          <rect class="cls-1" x="37.1" y="20.97" width="3.87" height="3.87" rx=".76" ry=".76"/>
          <rect class="cls-1" x="32.56" y="20.97" width="3.87" height="3.87" rx=".76" ry=".76"/>
          <path class="cls-1" d="m16.22,11.95h0v-.13s0,.09,0,.13Z"/>
          <path class="cls-1" d="m14.66,11.98h0v-.17c0,.06,0,.11,0,.17Z"/>
          <path class="cls-1" d="m20.04,11.81v.17h0s0-.05,0-.07c0-.03,0-.06,0-.09Z"/>
        </g>
      </g>
    </g>
  </g>
</svg>