<?xml version="1.0" encoding="UTF-8"?>
<svg id="Layer_2" data-name="Layer 2" xmlns="http://www.w3.org/2000/svg" xmlns:xlink="http://www.w3.org/1999/xlink" viewBox="0 0 51.49 50.78">
  <defs>
    <style>
      .cls-1 {
        fill: url(#linear-gradient-2);
      }

      .cls-2 {
        fill: #262864;
      }

      .cls-3 {
        fill: url(#linear-gradient);
      }

      .cls-4 {
        fill: #58595b;
      }
    </style>
    <linearGradient id="linear-gradient" x1="45.3" y1="37.6" x2="45.45" y2="14.75" gradientUnits="userSpaceOnUse">
      <stop offset="0" stop-color="#58595b"/>
      <stop offset="1" stop-color="#262864"/>
    </linearGradient>
    <linearGradient id="linear-gradient-2" x1="5.94" y1="12.94" x2="7.39" y2="38.85" xlink:href="#linear-gradient"/>
  </defs>
  <g id="Layer_1-2" data-name="Layer 1">
    <g>
      <path class="cls-2" d="m34.22,11.19l-.24.42-1.89,3.27c-.29-.18-.59-.34-.89-.49-.37-.19-.75-.35-1.15-.5-.31-.12-.63-.22-.96-.32-1.05-.29-2.15-.46-3.29-.46h-.06c-1.1,0-2.16.14-3.17.42-.32.08-.64.18-.95.29-.42.15-.82.31-1.21.5-.3.14-.59.3-.88.47l-1.84-3.18-.29-.51c1.26-.74,2.62-1.31,4.06-1.69.05-.01.1-.03.15-.04,1.32-.34,2.7-.52,4.12-.52h.06c1.47,0,2.89.2,4.25.57.05.01.1.02.14.04,1.43.4,2.78.98,4.03,1.73Z"/>
      <path class="cls-2" d="m33.97,39.8h0c-1.22.7-2.53,1.25-3.92,1.62h0c-1.35.37-2.77.56-4.24.57h-.06c-1.42,0-2.81-.18-4.12-.52h0c-1.4-.36-2.73-.9-3.96-1.59l.04-.07,2.09-3.61c.33.18.67.35,1.02.5.26.12.53.22.81.32.36.13.72.24,1.1.33.97.25,1.98.38,3.03.38h.06c1.09,0,2.14-.15,3.14-.42.38-.1.74-.22,1.1-.36.26-.09.51-.2.76-.31.35-.16.7-.34,1.03-.53l2.13,3.69Z"/>
      <path class="cls-2" d="m40.19,17.31l-.25.25-2.92,2.92-1.01,1.01-2.03,2.03-2.15,2.15h-.07l.04.04-1.26,1.26-.49.49-.43.43-.8.8-.8.8-2.18,2.18-5.96-5.96.04-.04h-.07l-8.47-8.47c.71-1.24,1.57-2.38,2.57-3.39l7.68,7.68h0s0,0,0,0l4.21,4.21h0s0,0,0,0h0s.03-.02.03-.02l.03-.02h-.02l2.94-2.94,1.23-1.24,4.58-4.58,3.01-3.01c.99,1.02,1.85,2.16,2.55,3.41Z"/>
      <path class="cls-2" d="m42.31,25.42c0,.08,0,.17,0,.25-.02,1.47-.24,2.89-.62,4.25h-.14l.13.03c-.39,1.39-.97,2.71-1.69,3.93l-.06-.04.05.05c-.72,1.21-1.6,2.33-2.59,3.31l-3.01-3.01c.74-.72,1.39-1.55,1.93-2.44.2-.32.38-.65.54-1,.13-.27.25-.55.36-.83.14-.35.26-.71.36-1.07.29-1.01.46-2.08.48-3.18,0-.08,0-.17,0-.25,0-1-.12-1.96-.34-2.89-.08-.35-.18-.7-.3-1.03-.11-.35-.24-.68-.39-1.01l2.92-2.92.3-.17c.7,1.25,1.23,2.61,1.59,4.03l-.27.07h.29c.31,1.26.47,2.57.47,3.92Z"/>
      <path class="cls-2" d="m17.21,34.28l-3.01,3.01c-.99-.95-2.1-2.25-3.03-3.96-.28-.51-.89-1.7-1.35-3.33-.18-.64-.55-2.24-.64-4.32,0-.08,0-.17,0-.25,0-1.35.16-2.66.47-3.92,0-.04.01-.08.03-.12.36-1.44.91-2.8,1.62-4.06.02-.04.04-.08.07-.12l3.16,3.16c-.17.37-.31.75-.44,1.14-.11.32-.21.65-.29.99-.23.94-.35,1.92-.35,2.94,0,.08,0,.17,0,.25.02,1.12.19,2.2.5,3.22.1.35.22.69.35,1.03.13.32.26.64.42.95.16.33.33.65.52.96.55.9,1.22,1.73,1.97,2.45Z"/>
      <path class="cls-4" d="m20.43,49.8c.95.93,2.65,1.2,5.05.79,0,0,0,0,0,0-.35-.37-.61-.79-.87-1.19-.41-.64-.83-1.31-1.64-1.88-1.04-.72-2.38-1.04-3.99-.96.23.49.38.96.51,1.39.22.71.41,1.33.94,1.84Z"/>
      <path class="cls-4" d="m39.44,43.03c-1.25.22-2.42.95-3.51,2.15.51.18.95.41,1.35.62.66.35,1.22.63,1.97.64,1.33-.01,2.72-1.03,4.13-3.01-.51-.02-.99-.12-1.45-.23-.74-.17-1.51-.34-2.49-.17Z"/>
      <path class="cls-4" d="m32.01,49.81c-.43-.27-.79-.6-1.14-.92-.56-.52-1.14-1.05-2.07-1.39-1.19-.43-2.57-.39-4.11.11.35.41.62.83.86,1.21.4.63.74,1.17,1.38,1.54,1.16.65,2.87.47,5.08-.54Z"/>
      <path class="cls-4" d="m33.35,49.21c1.29.33,2.89-.29,4.77-1.84-.49-.15-.92-.37-1.34-.6-.67-.36-1.37-.72-2.36-.81-1.26-.11-2.59.29-3.94,1.17.45.31.81.64,1.14.95.55.51,1.02.94,1.73,1.13Z"/>
      <path class="cls-3" d="m51.19,21.5c-.13-.83-.29-1.65-.5-2.45-.56-2.21-1.41-4.31-2.51-6.24-.41-.74-.86-1.45-1.35-2.14-.81-1.16-1.71-2.25-2.7-3.26l-3.14,3.14c.99,1.01,1.88,2.12,2.65,3.31.25.38.48.77.7,1.16.9,1.61,1.6,3.34,2.06,5.17.11.43.2.86.28,1.3.24,1.27.36,2.58.36,3.92,0,.08,0,.17,0,.25-.01,1.46-.18,2.87-.47,4.25-.09.43-.2.85-.31,1.26-.5,1.8-1.24,3.5-2.16,5.07-.22.37-.45.72-.68,1.08-.14.2-.28.4-.42.6-.68.94-1.44,1.82-2.26,2.63,0,.01-.01.02-.02.03-.35.35-.72.69-1.1,1.01-.14.13-.29.25-.43.36,0,0,0,0,0,0,.02,0,.05-.01.07-.02,1.2-.22,2.12,0,2.93.18.73.16,1.35.3,2.06.11,2.1-.56,4.39-5.02,4.39-5.02,0,0,0,0,0,0,.8-1.54,1.45-3.18,1.92-4.88.13-.47.25-.95.35-1.44.07-.32.13-.65.19-.98.25-1.38.38-2.8.39-4.25,0-.08,0-.17,0-.25,0-1.34-.1-2.65-.3-3.92Z"/>
      <path class="cls-4" d="m17.33,46.05c-.58-.69-1.36-1.22-2.33-1.59l-1.94,3.37c1.92,1.09,3.99,1.94,6.17,2.5h0c.07.02.15.04.22.06-.59-.66-.81-1.39-1.03-2.1-.22-.73-.46-1.48-1.1-2.24Z"/>
      <path class="cls-4" d="m19.54.97c.43.27.79.6,1.14.92.56.52,1.14,1.05,2.07,1.39,1.19.43,2.57.39,4.11-.11-.35-.41-.62-.83-.86-1.21-.4-.63-.74-1.17-1.38-1.54-1.16-.65-2.87-.47-5.08.54Z"/>
      <path class="cls-4" d="m31.12.98c-.95-.93-2.65-1.2-5.05-.79h0c.35.37.61.79.87,1.19.41.64.83,1.31,1.64,1.88,1.04.72,2.38,1.04,3.99.96-.23-.49-.38-.96-.51-1.39-.22-.71-.41-1.32-.94-1.84Z"/>
      <path class="cls-4" d="m18.2,1.58c-1.29-.33-2.89.29-4.77,1.84.49.15.92.37,1.34.6.67.36,1.37.72,2.36.81,1.26.11,2.59-.29,3.94-1.17-.45-.31-.81-.64-1.15-.95-.55-.51-1.02-.94-1.73-1.13Z"/>
      <path class="cls-1" d="m12.38,8.82s0,0,0,0c-.15.12-.3.24-.45.37-.46.39-.91.8-1.33,1.23l-.02.02c-.74.75-1.43,1.56-2.05,2.41-.11.15-.21.29-.31.44-.1.15-.2.29-.3.44-.25.39-.5.79-.73,1.19-.51.9-.96,1.84-1.33,2.82-.06.15-.12.31-.18.47-.22.63-.42,1.27-.59,1.92-.11.45-.21.89-.29,1.35-.1.56-.19,1.13-.24,1.7-.02.16-.03.32-.04.47-.05.57-.07,1.16-.07,1.74,0,.08,0,.17,0,.25.01,1.06.1,2.1.26,3.11,0,.05.01.09.02.14h.02c.81,4.54,3.06,8.6,6.26,11.65l-3.12,3.13c-3.2-3.08-5.8-7.07-6.94-11.33-.22-.8-.41-1.62-.56-2.45-.2-1.09-.32-2.19-.36-3.32-.01-.28-.02-.57-.03-.85v-.07c0-.08,0-.17,0-.25,0-1.34.1-2.65.3-3.92.08-.54.18-1.08.3-1.61.06-.28.13-.55.19-.82,0-.02.01-.05.02-.07.49-1.91,1.19-3.73,2.08-5.44,0,0,2.22-4.37,4.42-5.01.71-.21,1.34-.06,2.06.11.81.18,1.73.39,2.93.18.03,0,.06-.01.08-.02Z"/>
      <path class="cls-4" d="m14.26,4.99c-.66-.35-1.22-.65-1.97-.64-1.33.01-2.72,1.03-4.13,3.01.51.02.99.12,1.45.23.74.17,1.51.34,2.49.17,1.25-.22,2.42-.95,3.51-2.15-.51-.18-.95-.41-1.35-.62Z"/>
      <path class="cls-4" d="m32.57.59c-.13-.04-.27-.07-.4-.11.52.64.74,1.34.95,2.01.23.73.46,1.48,1.1,2.24.66.78,1.57,1.36,2.73,1.73l1.87-3.23c-1.93-1.14-4.03-2.04-6.24-2.65Z"/>
    </g>
  </g>
</svg>