<?xml version="1.0" encoding="UTF-8"?>
<svg id="Layer_2" data-name="Layer 2" xmlns="http://www.w3.org/2000/svg" xmlns:xlink="http://www.w3.org/1999/xlink" viewBox="0 0 50.86 50.78">
  <defs>
    <style>
      .cls-1 {
        fill: url(#linear-gradient-2);
      }

      .cls-2 {
        fill: #232463;
      }

      .cls-3 {
        fill: #f05a28;
      }

      .cls-4 {
        fill: #804c9d;
      }

      .cls-5 {
        fill: url(#linear-gradient);
      }
    </style>
    <linearGradient id="linear-gradient" x1="8.01" y1="16.64" x2="31.17" y2="21.93" gradientUnits="userSpaceOnUse">
      <stop offset="0" stop-color="#232463"/>
      <stop offset=".04" stop-color="#2b2768"/>
      <stop offset=".24" stop-color="#4c357c"/>
      <stop offset=".43" stop-color="#633f8a"/>
      <stop offset=".6" stop-color="#724593"/>
      <stop offset=".75" stop-color="#774896"/>
      <stop offset="1" stop-color="#774896"/>
    </linearGradient>
    <linearGradient id="linear-gradient-2" x1="9.01" y1="20.55" x2="35.76" y2="20.55" gradientUnits="userSpaceOnUse">
      <stop offset="0" stop-color="#774896"/>
      <stop offset="1" stop-color="#774897"/>
    </linearGradient>
  </defs>
  <g id="Layer_1-2" data-name="Layer 1">
    <g>
      <g>
        <path class="cls-3" d="m41.73,25.43c0,.14,0,.29,0,.43-.02.7-.08,1.39-.18,2.06-.03.21-.07.42-.11.63-.1.51-.22,1.01-.36,1.49-.2.68-.44,1.35-.73,1.99-.28.64-.61,1.26-.97,1.86-.49.8-1.04,1.56-1.65,2.26-.3.34-.61.67-.93.99-.32.31-.65.61-.99.89-.73.6-1.51,1.14-2.33,1.61-.58.33-1.17.62-1.79.88-.67.28-1.36.51-2.06.7-.67.18-1.36.32-2.06.41v-4.26c.33-.06.65-.13.97-.22.9-.24,1.75-.58,2.55-1,.1-.05.19-.11.29-.16.11-.06.21-.12.31-.18.77-.47,1.49-1.02,2.13-1.65.66-.64,1.26-1.36,1.76-2.13.04-.05.07-.11.1-.16h0s.04-.06.05-.09c.02-.04.05-.08.07-.12.51-.85.92-1.76,1.21-2.72.1-.34.19-.69.27-1.04.13-.6.21-1.23.24-1.86,0-.07,0-.13,0-.2,0-.14,0-.29,0-.43,0-.55-.04-1.1-.11-1.63-.05-.37-.12-.74-.2-1.09-.08-.36-.18-.71-.3-1.06l3.4-1.96.3-.17c.02.06.05.12.07.17.24.63.43,1.27.59,1.94.16.67.28,1.36.35,2.06,0,.04,0,.08.01.12.05.54.08,1.08.08,1.63Z"/>
        <path class="cls-5" d="m43.98,8.04c-.11-.12-.22-.23-.33-.35-.9-.92-1.86-1.77-2.89-2.55-.77-.58-1.57-1.12-2.4-1.62-.83-.49-1.68-.93-2.57-1.33-1.16-.52-2.37-.95-3.62-1.3-.17-.05-.34-.09-.5-.13-1.34-.34-2.71-.57-4.12-.69-.7-.06-1.41-.09-2.12-.09-.67,0-1.34.03-2,.08-1.41.11-2.79.33-4.12.67-.17.04-.34.09-.51.13-1.24.34-2.45.76-3.61,1.27-.9.39-1.77.84-2.61,1.33-1.95,1.15-3.74,2.55-5.32,4.15-1.57,1.61-2.94,3.42-4.04,5.4-.46.82-.87,1.66-1.23,2.53-.5,1.19-.91,2.42-1.23,3.69-.04.14-.07.29-.11.43-.31,1.34-.51,2.71-.6,4.12-.04.54-.05,1.08-.05,1.63,0,.14,0,.29,0,.43.01.69.05,1.38.12,2.06.02.22.04.43.07.65.15,1.18.37,2.34.68,3.47.03.13.07.25.1.37.04.13.08.26.12.39.35,1.16.78,2.27,1.28,3.35.08.18.16.35.25.52l.9-.52,2.86-1.65c-.38-.8-.72-1.62-1-2.47-.08-.25-.16-.5-.23-.75-.07-.24-.13-.48-.19-.72-.22-.87-.38-1.75-.49-2.66-.07-.57-.11-1.16-.13-1.74,0-.11,0-.21,0-.32,0-.14,0-.29,0-.43,0-.55.02-1.09.06-1.63.09-1.17.28-2.32.55-3.43.06-.23.12-.46.18-.69.41-1.44.97-2.82,1.66-4.12.06-.12.13-.24.2-.36.92-1.65,2.05-3.16,3.36-4.49,1.31-1.34,2.8-2.5,4.42-3.45.14-.08.29-.16.43-.24,1.3-.72,2.67-1.3,4.12-1.74.2-.06.41-.12.62-.18,1.13-.3,2.3-.51,3.5-.62.64-.06,1.29-.09,1.94-.09h.06c.72,0,1.42.04,2.12.11,1.19.12,2.36.35,3.49.66.21.06.43.12.64.19,1.45.45,2.83,1.06,4.12,1.8.12.07.24.14.36.21h0c.13.08.26.15.38.23,1.26.79,2.43,1.71,3.49,2.74l-4.27,2.46c-.61-.5-1.27-.97-1.95-1.38-.66-.4-1.35-.75-2.07-1.06l-.06.04v-.06c-.6-.25-1.22-.47-1.85-.64-.74-.21-1.5-.37-2.27-.47-.69-.09-1.4-.14-2.12-.15h-.06c-.66,0-1.3.04-1.94.11-.78.09-1.55.24-2.29.44-.63.17-1.24.37-1.83.61-.77.3-1.5.67-2.21,1.08-.67.39-1.31.83-1.91,1.32-.54.43-1.06.9-1.54,1.39-.47.48-.91,1-1.32,1.54-.48.63-.91,1.29-1.29,1.99-.38.68-.71,1.4-.98,2.14-.23.62-.43,1.25-.58,1.9-.14.6-.26,1.2-.33,1.83-.02.13-.03.26-.04.39-.05.54-.08,1.08-.08,1.63,0,.14,0,.29,0,.43.02.7.08,1.39.18,2.06l.03.19c.11.67.26,1.33.45,1.97.2.67.44,1.33.72,1.96h.26l3.46-2c-.14-.34-.27-.69-.38-1.05-.11-.35-.2-.71-.27-1.07-.14-.67-.22-1.36-.25-2.06v-.06c0-.12,0-.25,0-.37,0-.55.04-1.1.11-1.63.05-.38.12-.76.2-1.13.18-.78.44-1.53.76-2.24h0c.11-.26.24-.51.37-.75,0-.01.01-.02.02-.03.16-.29.33-.57.51-.85.42-.65.9-1.25,1.44-1.8.51-.53,1.06-1.01,1.66-1.44.3-.21.6-.41.92-.6.03-.02.07-.04.1-.06.91-.52,1.89-.93,2.92-1.21.39-.11.79-.19,1.2-.26.63-.1,1.28-.15,1.94-.15.02,0,.04,0,.06,0,.38,0,.77.02,1.14.06.33.03.66.08.98.14.4.07.8.16,1.18.28,1.04.3,2.03.74,2.94,1.29.01,0,.02.01.03.02.02.01.04.03.06.04.23.14.46.3.69.46.64.46,1.24.99,1.78,1.56.27.28.52.57.75.88l.81-.47,10.78-6.23c-.77-1.16-1.64-2.25-2.59-3.26Zm-28.8,7.51h0s0,0,0,0h0Zm20.6,0h0s0,0,0,0h0Z"/>
        <path class="cls-3" d="m50.86,25.43c0,.14,0,.29,0,.43-.01.69-.05,1.38-.12,2.06-.14,1.41-.39,2.79-.75,4.12-.03.12-.07.25-.1.37-.37,1.3-.84,2.55-1.4,3.75-.37.79-.78,1.56-1.22,2.3-1.13,1.88-2.49,3.61-4.04,5.13-1.55,1.52-3.31,2.85-5.21,3.94-.72.41-1.46.79-2.22,1.13-1.23.55-2.51,1-3.83,1.35-.1.03-.19.05-.29.07-1.34.34-2.71.57-4.12.69v-4.41c1.12-.12,2.21-.32,3.27-.6.29-.08.57-.16.85-.25,1.45-.45,2.83-1.06,4.12-1.8,0,0,0,0,.01,0,1.57-.9,3.01-1.99,4.29-3.24,1.28-1.26,2.4-2.67,3.33-4.22.02-.03.03-.05.05-.08.77-1.29,1.4-2.67,1.88-4.12.09-.26.17-.52.24-.78.31-1.08.54-2.2.67-3.34.08-.68.13-1.37.14-2.06,0-.06,0-.12,0-.18,0-.08,0-.16,0-.25,0-.55-.02-1.09-.06-1.63-.07-.89-.19-1.77-.37-2.63-.05-.26-.11-.51-.17-.77-.06-.24-.12-.48-.19-.72-.25-.87-.55-1.72-.9-2.54l2.74-1.58,1.13-.65c.1.22.19.43.29.65.45,1.06.83,2.16,1.13,3.29.04.13.07.27.1.4.04.14.07.28.1.43.26,1.14.45,2.3.55,3.49.02.21.04.42.05.63.03.54.05,1.08.05,1.63Z"/>
        <path class="cls-2" d="m23.43,37.42v4.25c-.71-.08-1.4-.21-2.08-.38-.44-.11-.88-.24-1.31-.39h0c-.25-.09-.49-.18-.73-.27-.64-.25-1.26-.55-1.86-.88-.6-.33-1.18-.7-1.73-1.11l-.53.31-3.81,2.2c1.13,1,2.36,1.89,3.68,2.63.02,0,.03.02.05.03.03.02.06.03.08.05,1.3.72,2.67,1.3,4.12,1.74.27.08.55.16.83.23,1.07.27,2.16.46,3.29.57v4.39c-1.41-.11-2.79-.33-4.12-.67-.1-.02-.2-.05-.3-.08-1.32-.34-2.6-.79-3.82-1.33-.77-.34-1.53-.72-2.26-1.13-.73-.41-1.44-.86-2.12-1.34-1.1-.78-2.14-1.64-3.11-2.58-.08-.08-.16-.16-.25-.24-.99-.99-1.89-2.06-2.71-3.19l3.78-2.18,3.25-1.88.85-.49,2.57-1.49,1.13-.65c.24.26.48.52.74.76.68.64,1.44,1.2,2.25,1.67.08.05.16.09.25.14.04.02.08.04.11.06.06.03.12.06.18.09.82.42,1.69.75,2.6.97.32.08.65.15.99.2Z"/>
        <path class="cls-1" d="m35.76,12.79c-.61-.5-1.27-.97-1.95-1.38-.66-.4-1.35-.75-2.07-1.06l-.06.04v-.06c-.6-.25-1.22-.47-1.85-.64-.74-.21-1.5-.37-2.27-.47-.69-.09-1.4-.14-2.12-.15h-.06c-.66,0-1.3.04-1.94.11-.78.09-1.55.24-2.29.44-.63.17-1.24.37-1.83.61-.77.3-1.5.67-2.21,1.08-.67.39-1.31.83-1.91,1.32-.54.43-1.06.9-1.54,1.39-.47.48-.91,1-1.32,1.54-.48.63-.91,1.29-1.29,1.99-.38.68-.71,1.4-.98,2.14-.23.62-.43,1.25-.58,1.9-.14.6-.26,1.2-.33,1.83-.02.13-.03.26-.04.39-.05.54-.08,1.08-.08,1.63,0,.14,0,.29,0,.43.02.7.08,1.39.18,2.06l.03.19c.11.67.26,1.33.45,1.97.2.67.44,1.33.72,1.96h.26l3.46-2c-.14-.34-.27-.69-.38-1.05-.11-.35-.2-.71-.27-1.07-.14-.67-.22-1.36-.25-2.06v-.06c0-.12,0-.25,0-.37,0-.55.04-1.1.11-1.63.05-.38.12-.76.2-1.13.18-.78.44-1.53.76-2.24h0c.11-.26.24-.51.37-.75,0-.01.01-.02.02-.03.16-.29.33-.57.51-.85.42-.65.9-1.25,1.44-1.8.51-.53,1.06-1.01,1.66-1.44.3-.21.6-.41.92-.6.03-.02.07-.04.1-.06.91-.52,1.89-.93,2.92-1.21.39-.11.79-.19,1.2-.26.63-.1,1.28-.15,1.94-.15.02,0,.04,0,.06,0,.38,0,.77.02,1.14.06.33.03.66.08.98.14.4.07.8.16,1.18.28,1.04.3,2.03.74,2.94,1.29.01,0,.02.01.03.02.02.01.04.03.06.04.23.14.46.3.69.46.64.46,1.24.99,1.78,1.56.27.28.52.57.75.88"/>
      </g>
      <path class="cls-2" d="m25.43,25.38v7.67c-.66,0-1.32-.09-1.99-.26-2.04-.55-3.67-1.87-4.65-3.57-.98-1.7-1.31-3.77-.76-5.82.67-2.5,2.51-4.38,4.77-5.21l2.64,7.2Z"/>
      <path class="cls-3" d="m32.83,27.36c-.67,2.5-2.51,4.38-4.77,5.21-.83.31-1.72.47-2.64.47v-7.67l6.64-3.83c.98,1.7,1.31,3.77.76,5.82Z"/>
      <path class="cls-4" d="m32.07,21.55l-6.64,3.83-2.64-7.2c.83-.31,1.72-.47,2.64-.47.66,0,1.32.08,1.99.26,2.04.55,3.67,1.87,4.65,3.57Z"/>
    </g>
  </g>
</svg>