<?xml version="1.0" encoding="UTF-8"?>
<svg id="Layer_2" data-name="Layer 2" xmlns="http://www.w3.org/2000/svg" xmlns:xlink="http://www.w3.org/1999/xlink" viewBox="0 0 46.59 50.78">
  <defs>
    <style>
      .cls-1 {
        fill: url(#linear-gradient-2);
      }

      .cls-2 {
        fill: #a77a4d;
      }

      .cls-3 {
        fill: #262a62;
      }

      .cls-4 {
        fill: url(#linear-gradient);
      }
    </style>
    <linearGradient id="linear-gradient" x1="28.07" y1="2.15" x2="28.07" y2="33.55" gradientUnits="userSpaceOnUse">
      <stop offset="0" stop-color="#a77a4d"/>
      <stop offset=".29" stop-color="#a77a4d"/>
      <stop offset=".84" stop-color="#262a62"/>
      <stop offset="1" stop-color="#262a62"/>
    </linearGradient>
    <linearGradient id="linear-gradient-2" x1="24.01" y1="50.59" x2="24.01" y2="-3.77" gradientUnits="userSpaceOnUse">
      <stop offset="0" stop-color="#262a62"/>
      <stop offset=".16" stop-color="#262a62"/>
      <stop offset=".66" stop-color="#a77a4d"/>
      <stop offset=".89" stop-color="#a77a4d"/>
    </linearGradient>
  </defs>
  <g id="Layer_1-2" data-name="Layer 1">
    <g>
      <path class="cls-3" d="m20.43,19.93l-3.4,1.96c-.73.42-1.18,1.2-1.18,2.05v3.93c0,.85.45,1.63,1.18,2.05l3.4,1.96c.73.42,1.63.42,2.37,0l3.4-1.96c.73-.42,1.18-1.2,1.18-2.05v-3.93c0-.85-.45-1.63-1.18-2.05l-3.4-1.96c-.73-.42-1.63-.42-2.37,0Z"/>
      <g>
        <path class="cls-4" d="m38.59,7.72L21.88,0l-12.32,5.65v1.98l12.32-5.63,13.46,6.7c6.36,2.94,6.36,7.17,6.36,11.61v18.73l4.89-2.24v-16.11c0-4.93.2-9.49-8-12.97Z"/>
        <path class="cls-1" d="m33.97,14.03l-12.03-5.54-11.4,5.24.48,1.77,10.92-5.03,7.41,3.27c2.68,1.64,3.18,4.72,3.18,7.86v6.88c0,3.14-.5,5.91-3.18,7.54l-7.24,3.48c-.1.05-.17.15-.17.27v11.01l4.89-2.23v-9.21s5.53-2.49,7.11-3.28c3.22-1.62,3.55-4.84,3.55-8.44v-5.14c0-3.6-.21-7.02-3.52-8.44Z"/>
        <path class="cls-3" d="m4.89,7.8v32.62l-4.89-2.16V10.24c0-.12.07-.22.17-.27l4.72-2.17Z"/>
        <polygon class="cls-3" points="2.13 9.08 6.88 6.88 6.88 8.92 2.13 11.11 2.13 9.08"/>
        <path class="cls-2" d="m11.35,13.73v11.63h-1.78v-11c0-.12.07-.22.17-.27l.8-.37h.82Z"/>
      </g>
      <polygon class="cls-3" points="46.59 36.8 46.59 36.8 37.8 40.85 37.49 40.99 37.49 43 38.63 42.47 46.59 38.81 46.59 36.8"/>
    </g>
  </g>
</svg>