<?xml version="1.0" encoding="utf-8"?>
<!-- Generator: Adobe Illustrator 27.0.0, SVG Export Plug-In . SVG Version: 6.00 Build 0)  -->
<svg version="1.1" id="Layer_1" xmlns="http://www.w3.org/2000/svg" xmlns:xlink="http://www.w3.org/1999/xlink" x="0px" y="0px"
	 viewBox="0 0 500 500" style="enable-background:new 0 0 500 500;" xml:space="preserve">
<style type="text/css">
	.st0{fill:#292561;}
	.st1{fill:#662F8E;}
	.st2{fill:#F79420;}
	.st3{fill:#20285C;}
</style>
<g>
	<g>
		<path class="st0" d="M398.1,211c-3.7,66.1-50.2,120.8-112.3,136.7c-11.9,3.1-24.5,4.7-37.4,4.7c-2.1,0-4.2,0-6.3-0.1
			c-42.5-1.7-80.3-21.2-106.5-51.1c-17.3-19.8-29.5-44.2-34.5-71.2c11.6-7.5,24.6-13.1,38.5-16.3c8.7-2,17.7-3,27-3
			c6.1,0,12.2,0.5,18.1,1.3c8.6,1.3,17,3.5,24.9,6.6c4.1,2.1,8.3,4,12.6,5.7c2,0.8,4,1.5,6.1,2.2c11.6,3.7,24,5.7,36.8,5.7
			c15.9,0,31-3.1,44.8-8.6c-6.1,20.2-21.5,32.8-41.6,39.3c-6.2,2-12.7,3-19.6,3c-1.2,0-2.3,0-3.5-0.1c-0.6,0-1.1-0.1-1.7-0.1
			c-0.6,0-1.1-0.1-1.7-0.2c-0.6-0.1-1.1-0.1-1.7-0.2c-4-0.5-7.8-1.4-11.5-2.7c-0.4-0.1-0.7-0.2-1.1-0.4c-0.2-0.1-0.5-0.2-0.7-0.2
			c-1-0.4-1.9-0.7-2.9-1.1c-0.5-0.2-1.1-0.4-1.6-0.7c-0.9-0.4-1.8-0.8-2.6-1.3c-3.9-2-11.3-5.7-15.8-8.1c-2.5-1.3-5.5-1-7.7,0.8
			c-0.3,0.2-0.5,0.4-0.7,0.6l-21,16.9c-3.4,2.7-3.5,7.8-0.3,10.7c9,8,19.1,14.6,30.2,19.4c0,0,0.1,0,0.1,0c1.6,0.7,3.2,1.3,4.8,2
			c1.7,0.6,3.3,1.2,5,1.8c0.8,0.3,1.6,0.5,2.4,0.7c1.3,0.4,2.7,0.8,4,1.1c0.6,0.2,1.3,0.3,2,0.5c0.1,0,0.3,0.1,0.5,0.1
			c0.7,0.2,1.4,0.3,2.1,0.5c0.2,0,0.4,0.1,0.6,0.1c0.7,0.2,1.4,0.3,2.1,0.4c0.7,0.1,1.4,0.3,2.2,0.4c0.6,0.1,1.3,0.2,1.9,0.3
			c0.7,0.1,1.4,0.2,2.1,0.3c0.6,0.1,1.2,0.1,1.8,0.2c0.7,0.1,1.4,0.1,2.1,0.2c0.7,0.1,1.4,0.1,2.1,0.2c2.7,0.2,5.5,0.3,8.2,0.3
			c12.3,0,24.1-2,35.1-5.7c13-4.4,25-11.2,35.3-19.8c2.3-1.9,4.5-3.9,6.6-6L398.1,211z"/>
		<path class="st1" d="M402.8,163.8l-18.9,14.6l-19.4,15c0-0.9,0-1.7,0-2.6c0-12.1-1.9-23.7-5.3-34.7c-8.8-28-28-51.3-53-65.5
			c0,0.8,0,1.6,0,2.4c0,17.1-2.8,33.6-7.9,49c-9.8-9.9-22.7-16.8-37-19.3c3-12,4.6-24.6,4.6-37.6c0-2.8-0.1-5.6-0.2-8.3
			c-0.8-14.5-3.5-28.4-7.9-41.5c14,0.7,27.4,3.3,40.2,7.5c23.4,7.7,44.4,20.7,61.4,37.7c6.4,6.3,12.2,13.2,17.3,20.5
			C389.6,119.4,398.7,140.7,402.8,163.8z"/>
		<path class="st1" d="M168.8,124.1c16.6,0,32.7,2.6,47.7,7.4c-12.3,7.4-22.1,18.5-27.8,31.7c-4.6-0.8-9.2-1.5-13.9-1.9
			c-4.6-0.4-9.2-0.6-13.9-0.6c-6.9,0-13.7,0.5-20.3,1.3c-5.7,0.7-11.2,1.8-16.7,3.1c-9.3,2.3-18.2,5.3-26.7,9.2
			c1.3-12.9,4.3-25.3,8.6-37c7.8-21.3,20.1-40.4,35.7-56.2c15.2-15.3,33.6-27.5,54-35.5c10.5-4.1,21.5-7.1,32.9-8.8
			c7.5,12,13.5,25.1,17.5,39c-32.2,1.7-60.8,16.6-80.7,39.4c-2.6,3-5,6-7.3,9.3c2.4-0.2,4.9-0.3,7.4-0.3
			C166.5,124.1,167.7,124.1,168.8,124.1z"/>
		<path class="st2" d="M288.3,179.7c0,15.4-9,28.7-22,34.9c-4.7,2.2-9.9,3.6-15.4,3.7c-0.4,0-0.9,0-1.3,0c-8.7,0-16.8-2.9-23.3-7.8
			c-9.4-7.1-15.4-18.3-15.4-30.9c0-4.7,0.8-9.2,2.3-13.3c5.4-14.8,19.7-25.4,36.3-25.4c0.4,0,0.9,0,1.3,0c9.4,0.3,18,4,24.5,9.9
			c0.1,0,0.1,0.1,0.1,0.1c1.8,1.6,3.5,3.4,5,5.4c3.5,4.6,6,10.1,7.1,16C288,174.8,288.3,177.2,288.3,179.7z"/>
	</g>
	<g>
		<g>
			<g>
				<path class="st3" d="M117.2,398.1c0.6,0,1.1-0.2,1.6-0.6c0.4-0.4,0.7-0.9,0.7-1.5v-0.4h-5.9v-4.3h12c0.3,0,0.4,0.1,0.4,0.4v3.5
					c0,0.1,0,0.2-0.1,0.3c-0.1,0.1-0.2,0.1-0.3,0.1H123c0.1,0.1,0.1,0.2,0.1,0.5v0.3c0,0.9-0.2,1.7-0.5,2.4s-0.8,1.4-1.4,1.9
					c-0.6,0.6-1.3,1-2,1.3c-0.8,0.3-1.6,0.5-2.5,0.5h-5.1c-1,0-1.9-0.2-2.7-0.5s-1.6-0.8-2.2-1.5c-0.6-0.6-1.1-1.4-1.5-2.2
					c-0.4-0.8-0.6-1.7-0.6-2.7v-8.1h3.7v7.5c0,0.4,0.1,0.8,0.2,1.2c0.2,0.4,0.4,0.7,0.7,1c0.3,0.3,0.6,0.5,1,0.7
					c0.4,0.2,0.8,0.2,1.2,0.2H117.2z"/>
				<path class="st3" d="M136.5,381.8c0.7,0,1.3,0.1,1.9,0.4c0.6,0.3,1.1,0.6,1.6,1.1c0.4,0.4,0.8,1,1.1,1.5
					c0.3,0.6,0.4,1.2,0.4,1.9v0.8c0,0.6-0.1,1.2-0.4,1.8c-0.3,0.6-0.7,1-1.2,1.3l-1,0.7c0,0,0.1,0,0.2,0c0.1,0,0.3,0,0.5,0
					c0.2,0,0.4,0,0.7,0s0.5,0,0.7,0h1.8c0.2,0,0.3,0,0.3,0.1s0.1,0.2,0.1,0.3v3.5c0,0.1,0,0.2-0.1,0.3c-0.1,0.1-0.2,0.1-0.3,0.1
					h-2.9c-1,0-1.9-0.1-2.9-0.3s-1.8-0.5-2.7-1c-1.8,0.9-3.6,1.3-5.6,1.3h-3.3c-0.1,0-0.2,0-0.3-0.1c-0.1-0.1-0.1-0.2-0.1-0.3v-3.5
					c0-0.1,0-0.2,0.1-0.3c0.1-0.1,0.2-0.1,0.3-0.1h2.4c0.2,0,0.5,0,0.7,0s0.5,0,0.7,0s0.4,0,0.5,0c0.1,0,0.2,0,0.3,0l-2.7-1.8v-4.2
					c0-1.1,0.3-1.9,0.9-2.5c0.6-0.6,1.5-0.9,2.5-0.9H136.5z M131,387.2c0.1,0.1,0.4,0.3,0.8,0.5c0.4,0.2,0.8,0.5,1.2,0.8
					c0.5,0.3,1,0.7,1.5,1l3.2-1.9v-0.5c0-0.3-0.1-0.6-0.3-0.8c-0.2-0.2-0.5-0.3-0.9-0.3H131V387.2z"/>
				<path class="st3" d="M142.8,395.5c-0.1,0-0.2,0-0.3-0.1c-0.1-0.1-0.1-0.2-0.1-0.3v-3.5c0-0.3,0.1-0.4,0.4-0.4h1
					c0.3,0,0.6-0.1,0.9-0.3c0.2-0.2,0.4-0.5,0.5-0.8l0.6-3.1c0.1-0.6,0.3-1.1,0.6-1.6c0.3-0.5,0.7-0.9,1.1-1.2
					c0.4-0.3,0.9-0.6,1.4-0.8c0.5-0.2,1.1-0.3,1.7-0.3h1.7c0.7,0,1.4,0.1,2,0.4c0.6,0.3,1.2,0.6,1.6,1.1c0.5,0.5,0.8,1,1.1,1.6
					c0.3,0.6,0.4,1.3,0.4,2v1.8c0,0.3,0.1,0.6,0.3,0.9c0.2,0.2,0.5,0.4,0.9,0.4h1.2c0.1,0,0.2,0,0.3,0.1c0.1,0.1,0.1,0.2,0.1,0.3
					v3.5c0,0.1,0,0.2-0.1,0.3c-0.1,0.1-0.2,0.1-0.3,0.1h-0.5c-0.6,0-1.1-0.1-1.7-0.3c-0.5-0.2-1-0.5-1.5-1c-0.3,0.5-0.7,0.8-1.2,1
					c-0.5,0.2-0.9,0.3-1.4,0.3H150c-0.6,0-1.1-0.1-1.7-0.3c-0.5-0.2-1.1-0.7-1.5-1.3c-0.5,0.6-1,1-1.5,1.3s-1.2,0.4-1.8,0.4H142.8z
					 M149.5,391.2h4.1v-3c0-0.2-0.1-0.4-0.3-0.6c-0.2-0.2-0.4-0.3-0.6-0.3h-2.6c-0.2,0-0.4,0.1-0.6,0.2c-0.2,0.1-0.3,0.3-0.3,0.5
					l-0.5,2.4c0,0.2,0,0.4,0.1,0.6C149.1,391.1,149.3,391.2,149.5,391.2z"/>
				<path class="st3" d="M159.3,391.6c0-0.1,0-0.2,0.1-0.3c0.1-0.1,0.2-0.1,0.3-0.1h5.6c0.8,0,1.6-0.1,2.4-0.4
					c0.8-0.3,1.4-0.7,2-1.3l1.4-1.6c0-0.1,0.1-0.1,0.1-0.1c0,0,0.1-0.1,0.1-0.1c0,0,0.1-0.1,0.1-0.1l-6-1.8c-0.2,0-0.3,0-0.4,0
					c-0.1,0.1-0.2,0.2-0.3,0.3l-1.1,3.1l-3.2-0.9l0.8-2.8c0.2-0.7,0.5-1.2,0.9-1.7c0.4-0.5,0.9-0.8,1.4-1.1c0.5-0.3,1.1-0.4,1.7-0.5
					c0.6,0,1.2,0,1.7,0.2l12,3.6l-1,3.4l-1.6-0.5c-0.5-0.1-0.8-0.1-1.1,0c-0.2,0.1-0.5,0.3-0.8,0.5l-3.3,3.6c-0.9,0.9-1.9,1.6-3.1,2
					c-1.2,0.4-2.4,0.6-3.7,0.6h-4.7c-0.3,0-0.4-0.1-0.4-0.4V391.6z M168,402.8h3.7v-3.7H168V402.8z"/>
				<path class="st3" d="M196.1,398.1c0.6,0,1.1-0.2,1.6-0.6c0.4-0.4,0.7-0.9,0.7-1.5v-0.4h-5.9v-4.3h12c0.3,0,0.4,0.1,0.4,0.4v3.5
					c0,0.1,0,0.2-0.1,0.3c-0.1,0.1-0.2,0.1-0.3,0.1H202c0.1,0.1,0.1,0.2,0.1,0.5v0.3c0,0.9-0.2,1.7-0.5,2.4s-0.8,1.4-1.4,1.9
					c-0.6,0.6-1.3,1-2,1.3c-0.8,0.3-1.6,0.5-2.5,0.5h-5.1c-1,0-1.9-0.2-2.7-0.5s-1.6-0.8-2.2-1.5c-0.6-0.6-1.1-1.4-1.5-2.2
					c-0.4-0.8-0.6-1.7-0.6-2.7v-8.1h3.7v7.5c0,0.4,0.1,0.8,0.2,1.2c0.2,0.4,0.4,0.7,0.7,1c0.3,0.3,0.6,0.5,1,0.7
					c0.4,0.2,0.8,0.2,1.2,0.2H196.1z"/>
				<path class="st3" d="M204,391.6c0-0.3,0.1-0.4,0.4-0.4h1.9c0.3,0,0.6-0.1,0.9-0.3c0.2-0.2,0.3-0.5,0.3-0.8v-15.1h3.7V390
					c0,0.8-0.1,1.5-0.4,2.1c-0.3,0.7-0.7,1.3-1.2,1.8c-0.5,0.5-1.1,0.9-1.8,1.2c-0.7,0.3-1.4,0.4-2.2,0.4h-1.3c-0.1,0-0.2,0-0.3-0.1
					c-0.1-0.1-0.1-0.2-0.1-0.3V391.6z"/>
				<path class="st3" d="M220.7,395.1c0,0.3-0.1,0.4-0.4,0.4h-0.9c-0.8,0-1.5-0.1-2.1-0.4s-1.2-0.7-1.7-1.2
					c-0.5-0.5-0.9-1.1-1.2-1.7c-0.3-0.7-0.4-1.4-0.4-2.1v-15.2h3.7V390c0,0.3,0.1,0.6,0.3,0.8c0.2,0.2,0.5,0.3,0.9,0.3h1.5
					c0.1,0,0.2,0,0.3,0.1c0.1,0.1,0.1,0.2,0.1,0.3V395.1z"/>
				<path class="st3" d="M222.6,390.1l0.6-3.1c0.1-0.6,0.3-1.1,0.6-1.6c0.3-0.5,0.7-0.9,1.1-1.2c0.4-0.3,0.9-0.6,1.4-0.8
					c0.5-0.2,1.1-0.3,1.7-0.3h1.7c0.7,0,1.4,0.1,2,0.4c0.6,0.3,1.2,0.6,1.6,1.1c0.5,0.5,0.8,1,1.1,1.6c0.3,0.6,0.4,1.3,0.4,2v3.4
					c0,0.5-0.1,1-0.3,1.5c-0.2,0.5-0.5,0.9-0.9,1.2c-0.4,0.4-0.8,0.6-1.3,0.8s-1,0.3-1.5,0.3h-3.4c-0.6,0-1.1-0.1-1.7-0.3
					c-0.5-0.2-1.1-0.7-1.5-1.3c-0.5,0.6-1,1-1.5,1.3s-1.2,0.4-1.8,0.4h-0.7c-0.1,0-0.2,0-0.3-0.1c-0.1-0.1-0.1-0.2-0.1-0.3v-3.5
					c0-0.3,0.1-0.4,0.4-0.4h1c0.3,0,0.6-0.1,0.9-0.3C222.4,390.7,222.5,390.4,222.6,390.1z M227,391.2h4.1v-3c0-0.2-0.1-0.4-0.3-0.6
					c-0.2-0.2-0.4-0.3-0.6-0.3h-2.6c-0.2,0-0.4,0.1-0.6,0.2c-0.2,0.1-0.3,0.3-0.3,0.5l-0.5,2.4c0,0.2,0,0.4,0.1,0.6
					C226.6,391.1,226.8,391.2,227,391.2z"/>
				<path class="st3" d="M239.6,393.8v-8.9h3.7v8.4c0,0.4,0.1,0.8,0.2,1.2c0.2,0.4,0.4,0.7,0.7,1s0.6,0.5,1,0.7
					c0.4,0.2,0.8,0.2,1.2,0.2h5.4c0.4,0,0.7-0.1,1-0.2c0.3-0.1,0.6-0.3,0.8-0.5c0.2-0.2,0.4-0.5,0.5-0.8c0.1-0.3,0.2-0.6,0.2-1v-9.5
					h3.7v5.6c0,0.3,0.1,0.6,0.3,0.8c0.2,0.2,0.5,0.3,0.8,0.3h1.9c0.1,0,0.2,0,0.3,0.1c0.1,0.1,0.1,0.2,0.1,0.3v3.5
					c0,0.1,0,0.2-0.1,0.3c-0.1,0.1-0.2,0.1-0.3,0.1h-1.2c-0.6,0-1-0.1-1.3-0.3c-0.3-0.2-0.5-0.4-0.6-0.5v0.6c0,0.8-0.2,1.5-0.5,2.1
					c-0.3,0.7-0.8,1.2-1.4,1.7c-0.6,0.5-1.2,0.9-2,1.2s-1.5,0.4-2.3,0.4h-5.2c-1,0-1.9-0.2-2.7-0.5c-0.8-0.4-1.6-0.8-2.2-1.5
					c-0.6-0.6-1.1-1.4-1.5-2.2C239.8,395.7,239.6,394.8,239.6,393.8z M246.9,380.7h3.7v3.7h-3.7V380.7z"/>
				<path class="st3" d="M273.5,395.1c0,0.1,0,0.2-0.1,0.3c-0.1,0.1-0.2,0.1-0.3,0.1h-2.7c-0.6,0-1.2-0.1-1.8-0.4
					c-0.6-0.3-1.1-0.7-1.4-1.2c-0.4,0.5-0.9,0.9-1.5,1.2s-1.3,0.4-1.9,0.4H261c-0.1,0-0.2,0-0.3-0.1c-0.1-0.1-0.1-0.2-0.1-0.3v-3.5
					c0-0.1,0-0.2,0.1-0.3s0.2-0.1,0.3-0.1h3c0.3,0,0.6-0.1,0.9-0.3c0.3-0.2,0.4-0.5,0.5-0.8l1.2-5.6l3.6,0.7l-0.9,4.7
					c-0.1,0.4,0,0.7,0.2,1c0.2,0.3,0.5,0.4,0.9,0.4h2.6c0.1,0,0.2,0,0.3,0.1c0.1,0.1,0.1,0.2,0.1,0.3V395.1z M262.6,402.8h3.7v-3.7
					h-3.7V402.8z M267.8,402.8h3.7v-3.7h-3.7V402.8z"/>
				<path class="st3" d="M275.4,390.1l0.6-3.1c0.1-0.6,0.3-1.1,0.6-1.6c0.3-0.5,0.7-0.9,1.1-1.2c0.4-0.3,0.9-0.6,1.4-0.8
					c0.5-0.2,1.1-0.3,1.7-0.3h1.7c0.7,0,1.4,0.1,2,0.4c0.6,0.3,1.2,0.6,1.6,1.1c0.5,0.5,0.8,1,1.1,1.6c0.3,0.6,0.4,1.3,0.4,2v3.4
					c0,0.5-0.1,1-0.3,1.5c-0.2,0.5-0.5,0.9-0.9,1.2c-0.4,0.4-0.8,0.6-1.3,0.8s-1,0.3-1.5,0.3h-3.4c-0.6,0-1.1-0.1-1.7-0.3
					c-0.5-0.2-1.1-0.7-1.5-1.3c-0.5,0.6-1,1-1.5,1.3s-1.2,0.4-1.8,0.4H273c-0.1,0-0.2,0-0.3-0.1c-0.1-0.1-0.1-0.2-0.1-0.3v-3.5
					c0-0.3,0.1-0.4,0.4-0.4h1c0.3,0,0.6-0.1,0.9-0.3C275.1,390.7,275.3,390.4,275.4,390.1z M279.8,391.2h4.1v-3
					c0-0.2-0.1-0.4-0.3-0.6c-0.2-0.2-0.4-0.3-0.6-0.3h-2.6c-0.2,0-0.4,0.1-0.6,0.2c-0.2,0.1-0.3,0.3-0.3,0.5l-0.5,2.4
					c0,0.2,0,0.4,0.1,0.6C279.4,391.1,279.5,391.2,279.8,391.2z"/>
				<path class="st3" d="M297,395.1c0,0.3-0.1,0.4-0.4,0.4h-0.9c-0.8,0-1.5-0.1-2.1-0.4s-1.2-0.7-1.7-1.2c-0.5-0.5-0.9-1.1-1.2-1.7
					c-0.3-0.7-0.4-1.4-0.4-2.1v-15.2h3.7V390c0,0.3,0.1,0.6,0.3,0.8c0.2,0.2,0.5,0.3,0.9,0.3h1.5c0.1,0,0.2,0,0.3,0.1
					c0.1,0.1,0.1,0.2,0.1,0.3V395.1z"/>
				<path class="st3" d="M302.2,391.2c0.3,0,0.6-0.1,0.9-0.3c0.2-0.2,0.3-0.5,0.3-0.8v-6.4h3.7v6.4c0,0.8-0.1,1.5-0.4,2.2
					c-0.3,0.7-0.7,1.3-1.2,1.8c-0.5,0.5-1.1,0.9-1.8,1.2c-0.7,0.3-1.4,0.4-2.2,0.4h-4.9c-0.1,0-0.2,0-0.3-0.1
					c-0.1-0.1-0.1-0.2-0.1-0.3v-3.4c0-0.1,0-0.2,0.1-0.3c0.1-0.1,0.2-0.1,0.3-0.1H302.2z M298.1,381.1h3.7v-3.7h-3.7V381.1z
					 M303.4,381.1h3.7v-3.7h-3.7V381.1z"/>
				<path class="st2" d="M328.3,390.5c0.8,0.2,1.5,0.6,2,1.3c0.5,0.7,0.8,1.4,0.8,2.3v1c0,0.9-0.2,1.7-0.5,2.5
					c-0.3,0.8-0.8,1.4-1.4,2s-1.3,1-2,1.4c-0.8,0.3-1.6,0.5-2.5,0.5h-6c-1,0-1.9-0.2-2.7-0.5c-0.8-0.4-1.6-0.8-2.2-1.5
					c-0.6-0.6-1.1-1.4-1.5-2.2c-0.4-0.8-0.6-1.7-0.6-2.7v-6.8h3.7v6.3c0,0.4,0.1,0.8,0.2,1.2c0.2,0.4,0.4,0.7,0.7,1
					c0.3,0.3,0.6,0.5,1,0.7c0.4,0.2,0.8,0.2,1.2,0.2h6.5c0.6,0,1.1-0.2,1.6-0.7c0.4-0.4,0.6-1,0.6-1.6v-0.7l-8.4-2v-3.6
					c0-0.8,0.1-1.6,0.4-2.3c0.3-0.7,0.7-1.4,1.2-1.9s1.1-1,1.8-1.4s1.4-0.6,2.3-0.7l4.4-0.6l0.6,4.1l-5.1,0.6
					c-0.6,0.1-1.1,0.3-1.4,0.7c-0.4,0.4-0.6,0.9-0.6,1.4v0.7L328.3,390.5z"/>
				<path class="st2" d="M338.7,395.5c-0.8,0-1.5-0.2-2.1-0.5c-0.6-0.3-1.2-0.8-1.6-1.3c-0.4-0.5-0.8-1.2-1-1.9
					c-0.2-0.7-0.2-1.4-0.1-2.2l0.5-2.7c0.1-0.6,0.3-1.1,0.6-1.6s0.7-0.9,1.1-1.2c0.4-0.4,0.9-0.6,1.4-0.8c0.5-0.2,1.1-0.3,1.7-0.3
					h1.7c0.7,0,1.4,0.1,2,0.4c0.6,0.3,1.2,0.6,1.6,1.1c0.5,0.5,0.8,1,1.1,1.6c0.3,0.6,0.4,1.3,0.4,2v3h2c0.3,0,0.4,0.1,0.4,0.4v3.5
					c0,0.3-0.1,0.4-0.4,0.4h-2c0,0.1,0,0.2,0,0.3c-0.1,0.7-0.2,1.3-0.5,2c-0.3,0.6-0.6,1.2-1.1,1.7s-1,1-1.6,1.4
					c-0.6,0.4-1.2,0.7-1.9,1l-4.4,1.5l-1.1-3.5l4.4-1.5c0.7-0.2,1.3-0.6,1.7-1.1c0.5-0.5,0.7-1.1,0.7-1.9v-0.2
					c-0.3,0.1-0.6,0.2-0.9,0.3c-0.3,0.1-0.7,0.1-1,0.1H338.7z M338.2,391.2h4.1v-3c0-0.2-0.1-0.4-0.3-0.6c-0.2-0.2-0.4-0.3-0.6-0.3
					h-2.6c-0.4,0-0.7,0.2-0.9,0.7l-0.5,2.4c0,0.2,0,0.4,0.1,0.5S337.9,391.2,338.2,391.2z"/>
				<path class="st2" d="M371.5,390c0,0.3,0.1,0.6,0.4,0.8s0.5,0.3,0.9,0.3h2.1c0.1,0,0.2,0,0.3,0.1c0.1,0.1,0.1,0.2,0.1,0.3v3.5
					c0,0.3-0.1,0.4-0.4,0.4h-1.5c-0.7,0-1.3-0.1-2-0.4c-0.6-0.2-1.2-0.6-1.6-1c-0.5,0.4-1.1,0.7-1.7,1s-1.2,0.4-1.9,0.4H348
					c-0.3,0-0.4-0.1-0.4-0.4v-3.5c0-0.1,0-0.2,0.1-0.3c0.1-0.1,0.2-0.1,0.3-0.1h18.9c0.2,0,0.4-0.1,0.6-0.3c0.2-0.2,0.3-0.4,0.3-0.7
					v-2.1c0-0.3-0.1-0.5-0.3-0.8c-0.2-0.2-0.5-0.3-0.7-0.3h-15l-2.7-2.5l9.1-10.6l2.7,2.4l-5.7,6.7h11.2c0.7,0,1.4,0.1,2,0.4
					s1.2,0.6,1.6,1.1c0.5,0.5,0.8,1,1.1,1.6c0.3,0.6,0.4,1.3,0.4,2V390z"/>
				<path class="st2" d="M382.8,395.5c-0.7,0-1.4-0.1-2-0.4c-0.6-0.3-1.2-0.7-1.7-1.3c-0.5,0.6-1.1,1-1.7,1.3
					c-0.6,0.3-1.3,0.4-2,0.4h-0.7c-0.1,0-0.2,0-0.3-0.1c-0.1-0.1-0.1-0.2-0.1-0.3v-3.5c0-0.1,0-0.2,0.1-0.3s0.2-0.1,0.3-0.1h1.4
					c0.3,0,0.6-0.1,0.9-0.4c0.2-0.2,0.3-0.5,0.3-0.9v-5.5h3.7v5.5c0,0.3,0.1,0.6,0.3,0.9c0.2,0.2,0.5,0.4,0.9,0.4h0.9
					c0.3,0,0.6-0.1,0.9-0.3s0.4-0.5,0.5-0.8l1.1-5.6l3.7,0.7l-1,4.7c-0.1,0.3,0,0.7,0.2,1s0.5,0.4,0.9,0.4h2.3v-7.5h3.7v7.9
					c0,0.5-0.1,1-0.3,1.5c-0.2,0.5-0.5,0.9-0.9,1.3c-0.4,0.4-0.8,0.7-1.3,0.9c-0.5,0.2-1,0.3-1.5,0.3h-2.1c-0.6,0-1.2-0.1-1.8-0.4
					c-0.5-0.3-1-0.7-1.5-1.3c-0.5,0.6-1,1.1-1.6,1.3C384,395.4,383.4,395.5,382.8,395.5z"/>
			</g>
		</g>
		<g>
			<g>
				<path class="st3" d="M393.4,409.4c0-1.3-1.1-2.3-2.3-2.3H386c-1.3,0-2.4,1.1-2.4,2.4l-0.3,35l0,1.7c0,1.3,1.1,2.4,2.4,2.3l5.7,0
					c1.3,0,2.3-1.1,2.3-2.4L393.4,409.4z"/>
				<g>
					<path class="st3" d="M379.1,425.7v11.8c0,6.9-3.7,10.4-11.2,10.4h-7.6c-1.5,0-3-0.4-4.3-1.2c-1-0.6-1.9-1.4-2.8-2.4
						c-1.9,2.6-5,4-9.3,4.1c-1.9,0-3.6-0.2-5-0.7c-1.9-0.7-3.6-1.8-4.9-3.5c-2,2.6-5.2,4-9.5,4.2c-1.3,0-2.5-0.1-3.6-0.4
						c-1.4-0.3-2.6-0.8-3.8-1.5c0,0.6-0.3,1.2-0.7,1.6c-0.4,0.4-1,0.7-1.6,0.7h-73.5c-1.3,0-2.3-1-2.4-2.3l0.1-37.1
						c0-1.3,1.1-2.3,2.3-2.3h5.7c1.3,0,2.3,1.1,2.3,2.3v27.9c0,1.3,1.1,2.4,2.3,2.4H304c1.3,0,2.3-1.1,2.3-2.4v-13.2
						c0-1.3,1.1-2.3,2.3-2.3h5.8c1.3,0,2.3,1,2.4,2.3l0,0v10.7c0,2.6,2.1,4.8,4.8,4.8h0.1c2.6,0,4.8-2.1,4.8-4.8v-10.8
						c0-1.3,1.1-2.3,2.3-2.3h5.7c1,0,1.8,0.6,2.2,1.4v11.7c0,2.6,2,4.6,4.5,4.8l0,0c0.2,0,0.3,0,0.5,0c0,0,0,0,0,0
						c2.6-0.1,4.6-2.2,4.6-4.8v-11.1c0.1-1.1,1.1-2,2.3-2h5.7c1.3,0,2.3,1.1,2.3,2.3v12.3c0,1.3,1.1,2.3,2.3,2.3h7.3
						c1.3,0,2.3-1.1,2.3-2.3v-10.7c0-1.3,1.1-2.3,2.3-2.3h5.7C378.1,423.4,379.1,424.4,379.1,425.7z"/>
				</g>
				<path class="st3" d="M358.4,461.9h12.9c1.7,0,3-1.3,3-3v-2.6c0-1.7-1.3-3-3-3h-12.9c-1.7,0-3,1.3-3,3v2.6
					C355.4,460.5,356.7,461.9,358.4,461.9z"/>
				<path class="st3" d="M215.9,415.7h12.9c1.7,0,3-1.3,3-3v-2.6c0-1.7-1.3-3-3-3h-12.9c-1.7,0-3,1.3-3,3v2.6
					C212.9,414.4,214.3,415.7,215.9,415.7z"/>
				<path class="st3" d="M187.2,461.9h12.9c1.7,0,3-1.3,3-3v-2.6c0-1.7-1.3-3-3-3h-12.9c-1.7,0-3,1.3-3,3v2.6
					C184.2,460.5,185.6,461.9,187.2,461.9z"/>
				<path class="st3" d="M231.9,425.8v11.7c0,6.9-3.7,10.4-11.2,10.4h-4.6l0,0c-1.6-0.1-3.1-0.5-4.5-1.5c-0.7-0.5-1.3-1.1-1.9-1.7
					c0,0-0.1,0-0.1,0c-1.8,2.2-4.8,3.2-9,3.2h-8.5c-1.5,0-3-0.4-4.3-1.2c-1-0.6-1.9-1.3-2.7-2.3c0,0-0.1,0-0.1,0
					c-1.9,2.5-5,3.9-9.3,4.1c-1.9,0-3.6-0.2-5-0.7c-1.9-0.7-3.5-1.8-4.9-3.4c0,0-0.1,0-0.1,0c-2,2.6-5.2,4-9.4,4.1
					c-1.3,0-2.5-0.1-3.6-0.4c-1.4-0.3-2.6-0.8-3.7-1.5c0,0,0,0.1,0,0.2c0,0.2-0.1,0.4-0.1,0.6c-1,4.4-5.2,17.4-21.6,17.4
					c-11.6,0-21-9.4-21-21c0-0.2,0-8.9,0-13.6c0-1.3,1.1-2.3,2.3-2.3h5.9c1.3,0,2.3,1.1,2.3,2.3v13.2c0,0,0,0,0,0
					c0.5,5.5,5,9.7,10.6,9.7c5.6,0,10.3-4.4,10.6-9.9v0c0-0.1,0-0.1,0-0.1v-17.3c0-1.3,1.1-2.3,2.3-2.3h5.8c1.3,0,2.3,1,2.4,2.3l0,0
					v9c0,1.3,0.5,2.6,1.4,3.4c0.9,0.9,2,1.4,3.3,1.4c2.7,0.1,5-2.3,5-5v-8.8c0-1.3,1.1-2.4,2.4-2.4h5.7c1,0,1.8,0.6,2.1,1.4
					c0,0,0,0,0,0l0,10.1c0,2.6,2,4.6,4.5,4.8l0,0c0.2,0,0.3,0,0.5,0c0,0,0,0,0,0c2.6-0.1,4.6-2.2,4.6-4.8v-9.5c0.1-1.1,1.1-2,2.3-2
					h5.6c1.3,0,2.4,1.1,2.4,2.4v10.5c0,1.3,1.1,2.4,2.4,2.4h8c1.3,0,2.4-1.1,2.4-2.4v-12.1c0-1.3,1.1-2.4,2.4-2.4h5.5
					c1.3,0,2.3,1,2.4,2.2v10.9c0,2.6,2.1,4.8,4.8,4.8h0.2c2.6,0,4.8-2.2,4.8-4.8v-9.1c0-1.3,1.1-2.4,2.4-2.4h5.5
					C230.8,423.4,231.9,424.5,231.9,425.8z"/>
			</g>
		</g>
	</g>
</g>
</svg>
