<?xml version="1.0" encoding="UTF-8"?>
<svg id="Layer_2" data-name="Layer 2" xmlns="http://www.w3.org/2000/svg" xmlns:xlink="http://www.w3.org/1999/xlink" viewBox="0 0 51.94 50.78">
  <defs>
    <style>
      .cls-1 {
        fill: url(#linear-gradient-2);
      }

      .cls-2 {
        fill: #2aaeb0;
      }

      .cls-3 {
        fill: #232463;
      }

      .cls-4 {
        fill: url(#linear-gradient);
      }
    </style>
    <linearGradient id="linear-gradient" x1="27.88" y1="50.78" x2="27.88" y2="0" gradientUnits="userSpaceOnUse">
      <stop offset="0" stop-color="#29adb0"/>
      <stop offset="1" stop-color="#232463"/>
    </linearGradient>
    <linearGradient id="linear-gradient-2" x1="24.87" y1="41.72" x2="24.87" y2="9.05" gradientUnits="userSpaceOnUse">
      <stop offset="0" stop-color="#232463"/>
      <stop offset="1" stop-color="#29adb0"/>
    </linearGradient>
  </defs>
  <g id="Layer_1-2" data-name="Layer 1">
    <g>
      <rect class="cls-3" x="2.25" y="18.05" width="14.47" height=".86" rx=".43" ry=".43"/>
      <rect class="cls-3" x="6.86" y="32.91" width="10.39" height=".86" rx=".43" ry=".43"/>
      <rect class="cls-2" x="0" y="25.47" width="14.22" height=".86" rx=".43" ry=".43"/>
      <path class="cls-4" d="m51.94,25.39c0,.08,0,.17,0,.25-.01,1.43-.14,2.83-.39,4.19-.14.81-.32,1.6-.54,2.38-.6,2.15-1.47,4.18-2.57,6.05-1.12,1.9-2.48,3.64-4.04,5.18-1.55,1.54-3.31,2.88-5.21,3.98-1.88,1.08-3.91,1.93-6.05,2.5-.76.21-1.54.37-2.34.51-1.36.23-2.78.36-4.21.36H4.25c-.24,0-.43-.19-.43-.43h0c0-.24.19-.43.43-.43h21.01c.73,0,1.33-.6,1.33-1.33h0c0-.73-.6-1.33-1.33-1.33h-5.94c-.24,0-.43-.19-.43-.43h0c0-.24.19-.43.43-.43h7.27c1.43,0,2.85-.15,4.21-.43.41-.08.81-.18,1.21-.29,1.77-.47,3.45-1.17,5-2.06,1.58-.9,3.02-2.01,4.31-3.28,1.29-1.27,2.41-2.71,3.34-4.28.92-1.55,1.64-3.22,2.14-4.99.12-.41.22-.83.31-1.25.29-1.35.45-2.75.47-4.19,0-.08,0-.17,0-.25,0-1.32-.12-2.61-.36-3.87-.08-.43-.17-.86-.28-1.28-.45-1.81-1.14-3.52-2.03-5.1-.9-1.62-2.01-3.1-3.3-4.41-1.29-1.32-2.75-2.48-4.35-3.42-1.58-.94-3.29-1.67-5.1-2.17-.45-.12-.89-.23-1.35-.33-1.36-.28-2.77-.42-4.21-.42h0s-13.12,0-13.12,0c-.24,0-.43-.19-.43-.43h0c0-.24.19-.43.43-.43h11.79c.74,0,1.33-.6,1.33-1.34h0c0-.74-.6-1.33-1.33-1.33H4.3c-.24,0-.43-.19-.43-.43h0c0-.24.19-.43.43-.43h22.34c1.41,0,2.81.13,4.16.36.84.14,1.67.32,2.48.54,2.19.6,4.26,1.48,6.16,2.61,1.93,1.14,3.69,2.53,5.25,4.12,1.56,1.59,2.9,3.37,4,5.32,1.08,1.91,1.91,3.98,2.47,6.15.2.79.36,1.6.49,2.41.19,1.26.29,2.56.29,3.87Z"/>
      <path class="cls-1" d="m42.42,21.52s0-.05-.02-.07c-.35-1.41-.88-2.74-1.56-3.98-.7-1.26-1.56-2.42-2.56-3.45-1-1.03-2.14-1.93-3.38-2.68-1.23-.73-2.56-1.31-3.98-1.7-.05-.02-.09-.03-.14-.04-1.34-.36-2.76-.55-4.21-.56h-7.27c-.24,0-.43.19-.43.43h0c0,.24.19.43.43.43h6.06c.67,0,1.22.54,1.22,1.22h0c0,.67-.54,1.22-1.22,1.22H7.29c-.24,0-.43.19-.43.43h0c0,.24.19.43.43.43h19.3c1.12,0,2.23.21,3.26.5h0c.32.09.64.2.95.31.7.26,1.38.59,2.01.97.92.56,1.76,1.23,2.51,2.01.74.77,1.37,1.64,1.89,2.58.34.62.62,1.26.85,1.94.11.33.21.67.3,1.02.22.92.34,1.87.34,2.85,0,.08,0,.17,0,.25-.02,1.08-.19,2.14-.48,3.13-.1.36-.22.71-.36,1.05-.25.63-.55,1.23-.89,1.8-.54.89-1.18,1.71-1.93,2.44-.74.72-1.57,1.35-2.47,1.86-.56.32-1.15.6-1.76.83-.36.13-.72.25-1.09.35-.99.27-2.04.38-3.11.39h0s-11.94,0-11.94,0c-.24,0-.43.19-.43.43h0c0,.24.19.43.43.43h10.72c.67,0,1.22.54,1.22,1.22v.08c0,.67-.54,1.22-1.22,1.22H7.46c-.24,0-.43.19-.43.43h0c0,.24.19.43.43.43h19.13c1.45,0,2.87-.2,4.2-.56h0c1.37-.37,2.67-.91,3.87-1.59,1.22-.7,2.34-1.55,3.34-2.54,1-.98,1.87-2.09,2.59-3.3.71-1.2,1.28-2.5,1.67-3.87,0-.01,0-.02,0-.03.38-1.33.59-2.74.61-4.19,0-.08,0-.17,0-.25,0-1.33-.16-2.63-.46-3.87Z"/>
      <circle class="cls-3" cx="26.41" cy="25.82" r="7.52"/>
    </g>
  </g>
</svg>